{"glyphs":{"0":{"ha":764,"x_min":69,"x_max":694,"o":"m 69 453 q 93 641 69 554 q 157 789 116 727 q 256 887 199 852 q 381 921 314 921 q 506 886 449 921 q 605 788 564 851 q 671 639 647 726 q 694 451 694 553 q 671 264 694 351 q 606 116 648 178 q 507 18 565 53 q 381 -17 449 -17 q 255 18 313 -17 q 157 116 198 53 q 93 264 116 178 q 69 453 69 351 m 215 218 l 510 766 q 452 826 485 806 q 382 847 419 847 q 301 819 338 847 q 237 737 264 791 q 194 609 209 684 q 179 441 179 535 q 189 319 179 375 q 215 218 198 263 m 381 69 q 464 97 426 69 q 528 173 501 124 q 569 291 554 222 q 584 441 584 359 q 576 568 584 510 q 553 675 568 626 l 262 133 q 316 86 286 103 q 381 69 346 69 z "},"1":{"ha":764,"x_min":127,"x_max":649,"o":"m 127 757 q 259 808 200 772 q 347 903 317 844 l 446 903 l 446 81 l 642 81 l 642 76 q 643 37 642 57 q 649 0 644 17 l 147 0 l 147 81 l 347 81 l 347 752 q 266 692 321 716 q 138 660 211 668 l 127 757 z "},"2":{"ha":764,"x_min":93,"x_max":684,"o":"m 547 707 q 507 800 547 769 q 390 831 466 831 q 284 808 333 831 q 193 721 235 786 l 125 767 q 388 924 203 924 q 492 910 444 924 q 573 869 539 896 q 627 802 608 841 q 646 711 646 762 q 609 561 646 638 q 513 407 573 485 q 378 250 454 329 q 227 93 303 171 l 684 93 l 684 0 l 93 0 l 93 104 q 126 139 109 122 q 162 176 144 157 l 211 225 q 332 349 272 286 q 440 473 392 412 q 518 594 488 535 q 547 707 547 653 z "},"3":{"ha":764,"x_min":108,"x_max":660,"o":"m 157 818 q 193 863 169 844 q 247 895 216 882 q 313 915 278 909 q 380 921 347 921 q 484 904 435 921 q 568 854 532 887 q 624 775 604 821 q 645 671 645 729 q 614 549 645 602 q 524 463 583 495 q 623 374 587 436 q 660 230 660 313 q 584 48 660 113 q 375 -17 508 -17 q 212 20 277 -17 q 108 133 148 57 l 176 179 q 217 128 197 149 q 260 95 237 108 q 310 76 284 82 q 370 71 337 71 q 510 112 464 71 q 556 233 556 153 q 499 373 556 323 q 339 422 442 422 l 288 422 l 288 503 l 339 503 q 490 547 438 503 q 542 672 542 591 q 497 791 542 749 q 373 833 453 833 q 329 830 352 833 q 285 818 306 826 q 247 796 264 810 q 219 762 229 782 l 157 818 z "},"4":{"ha":764,"x_min":98,"x_max":638,"o":"m 506 282 l 506 0 l 407 0 l 407 282 l 98 282 l 98 383 l 389 903 l 493 903 l 203 372 l 407 372 l 407 541 l 513 541 q 506 503 507 523 q 506 464 506 484 l 506 372 l 638 372 l 638 282 l 506 282 z "},"5":{"ha":764,"x_min":111,"x_max":648,"o":"m 117 449 l 154 903 l 608 903 l 608 822 l 244 822 l 219 532 q 274 585 235 566 q 373 604 314 604 q 485 583 434 604 q 572 522 536 561 q 628 428 609 483 q 648 306 648 373 q 627 177 648 236 q 569 75 606 118 q 480 7 531 31 q 368 -17 429 -17 q 111 105 234 -17 l 176 169 q 264 98 219 120 q 362 76 309 76 q 502 137 454 76 q 551 302 551 197 q 502 462 551 409 q 361 516 453 516 q 266 498 307 516 q 205 449 225 480 l 117 449 z "},"6":{"ha":764,"x_min":103,"x_max":701,"o":"m 103 556 q 128 704 103 637 q 197 819 153 771 q 302 895 241 868 q 438 921 363 921 q 540 909 490 921 q 626 875 590 897 l 567 801 q 505 823 542 815 q 434 832 469 832 q 339 812 382 832 q 266 755 296 792 q 218 668 235 719 q 201 556 201 617 l 201 497 q 287 554 231 534 q 411 574 343 574 q 532 554 478 574 q 623 497 586 534 q 681 406 661 459 q 701 287 701 353 q 680 161 701 218 q 619 65 659 105 q 523 4 579 25 q 399 -17 468 -17 q 276 5 331 -17 q 183 68 221 27 q 124 167 145 109 q 103 299 103 226 l 103 556 m 201 383 l 201 299 q 216 209 201 250 q 258 138 231 168 q 320 93 284 109 q 399 76 356 76 q 481 93 443 76 q 546 137 519 109 q 590 205 574 166 q 605 289 605 244 q 591 370 605 333 q 550 433 576 406 q 489 475 524 459 q 411 490 454 490 q 348 481 380 490 q 289 459 317 473 q 239 426 262 446 q 201 383 216 406 z "},"7":{"ha":764,"x_min":88,"x_max":676,"o":"m 676 903 l 676 810 q 535 626 602 716 q 417 438 468 535 q 336 233 366 340 q 306 0 306 126 l 196 0 q 228 237 196 125 q 314 452 260 350 q 435 646 367 554 q 572 822 502 738 l 88 822 l 88 903 l 676 903 z "},"8":{"ha":764,"x_min":103,"x_max":657,"o":"m 153 711 q 170 802 153 763 q 218 868 188 841 q 291 908 249 895 q 382 921 333 921 q 472 907 431 921 q 544 867 514 894 q 591 801 574 840 q 608 711 608 762 q 567 568 608 632 q 457 473 527 503 q 549 431 510 458 q 611 369 587 403 q 646 300 635 336 q 657 234 657 265 q 637 127 657 174 q 580 49 617 81 q 494 -1 544 16 q 382 -17 443 -17 q 273 -2 324 -17 q 185 45 222 14 q 125 123 147 76 q 103 234 103 170 q 114 300 103 265 q 149 369 125 336 q 212 431 174 403 q 303 473 250 458 q 193 568 234 503 q 153 711 153 632 m 199 230 q 212 157 199 188 q 250 108 226 126 q 308 80 274 89 q 382 72 341 72 q 455 80 422 72 q 512 106 488 88 q 548 156 535 125 q 561 230 561 186 q 550 283 561 255 q 517 337 539 311 q 461 386 495 363 q 380 420 427 409 q 299 386 333 409 q 243 337 265 363 q 210 283 221 311 q 199 230 199 255 m 515 705 q 478 799 515 770 q 382 829 441 829 q 284 798 323 829 q 245 704 245 767 q 281 598 245 644 q 382 527 316 553 q 480 598 446 553 q 515 705 515 644 z "},"9":{"ha":764,"x_min":83,"x_max":682,"o":"m 385 920 q 509 898 454 920 q 602 835 564 876 q 661 736 640 794 q 682 604 682 677 l 682 347 q 657 199 682 266 q 588 84 632 132 q 482 9 544 36 q 345 -17 420 -17 q 245 -6 295 -17 q 159 28 194 6 l 218 102 q 280 80 243 88 q 350 72 316 72 q 444 91 402 72 q 519 148 487 111 q 567 235 550 184 q 583 347 583 286 l 583 405 q 497 343 553 369 q 363 317 440 317 q 249 337 301 317 q 160 396 197 358 q 104 488 124 434 q 83 611 83 543 q 105 739 83 682 q 166 836 126 796 q 262 898 206 876 q 385 920 317 920 m 179 608 q 194 524 179 563 q 234 459 208 486 q 294 417 259 432 q 369 402 329 402 q 435 411 403 402 q 495 438 468 421 q 546 476 523 455 q 583 521 569 498 l 583 604 q 568 694 583 653 q 527 764 553 735 q 465 810 501 794 q 385 826 428 826 q 305 810 343 826 q 240 765 267 794 q 196 696 212 736 q 179 608 179 655 z "},"\u0000":{"ha":0,"x_min":0,"x_max":0,"o":""},"\r":{"ha":764,"x_min":0,"x_max":0,"o":""}," ":{"ha":764,"x_min":0,"x_max":0,"o":""},"!":{"ha":764,"x_min":309,"x_max":454,"o":"m 336 258 l 319 678 l 319 903 l 441 903 l 441 678 l 425 258 l 336 258 m 309 56 q 328 109 309 90 q 382 127 347 127 q 454 56 454 127 q 382 -17 454 -17 q 309 56 309 -17 z "},"\"":{"ha":764,"x_min":204,"x_max":559,"o":"m 204 910 l 326 903 l 326 810 q 314 726 322 773 q 297 635 306 678 q 280 561 288 593 q 269 522 272 529 l 204 535 l 204 910 m 436 910 l 559 903 l 559 810 q 546 726 554 773 q 530 635 538 678 q 513 561 521 593 q 501 522 505 529 l 436 535 l 436 910 z "},"#":{"ha":764,"x_min":93,"x_max":671,"o":"m 93 308 l 185 308 l 223 596 l 135 596 l 135 679 l 236 679 l 269 902 l 362 902 l 330 679 l 490 679 l 522 902 l 616 902 l 582 679 l 671 679 l 671 596 l 569 596 l 532 308 l 628 308 l 628 227 l 521 227 l 488 0 l 395 0 l 428 227 l 269 227 l 235 0 l 141 0 l 175 227 l 93 227 l 93 308 m 279 308 l 439 308 l 477 596 l 316 596 l 279 308 z "},"$":{"ha":764,"x_min":95,"x_max":668,"o":"m 95 102 l 163 161 q 326 73 216 83 l 326 424 q 162 519 223 454 q 101 677 101 583 q 117 765 101 725 q 163 837 133 806 q 234 889 192 868 q 326 917 275 910 l 326 972 l 419 972 l 419 918 q 545 881 488 911 q 634 802 602 851 l 569 741 q 497 804 531 785 q 419 829 463 824 l 419 503 q 421 503 420 503 q 424 502 422 502 q 606 423 544 479 q 668 253 668 367 q 650 143 668 191 q 599 62 632 95 q 520 10 566 29 q 419 -15 475 -9 l 419 -88 l 326 -88 l 326 -15 q 186 22 248 -8 q 95 102 125 52 m 574 242 q 535 348 574 310 q 419 403 497 385 l 419 74 q 533 127 492 86 q 574 242 574 169 m 193 684 q 225 594 193 632 q 326 529 257 556 l 326 824 q 227 775 262 811 q 193 684 193 738 z "},"%":{"ha":764,"x_min":44,"x_max":729,"o":"m 700 877 l 142 -17 l 72 28 l 628 921 l 700 877 m 561 -15 q 495 -2 525 -15 q 442 34 464 10 q 407 88 420 57 q 395 156 395 119 q 407 223 395 193 q 441 275 419 253 q 494 308 463 296 q 561 321 524 321 q 629 308 598 321 q 682 275 660 296 q 717 223 705 253 q 729 156 729 193 q 716 89 729 120 q 681 34 704 57 q 628 -2 659 12 q 561 -15 597 -15 m 564 51 q 628 75 609 51 q 648 156 648 100 q 628 237 648 213 q 561 260 609 260 q 497 237 516 260 q 478 157 478 214 q 498 75 478 100 q 564 51 517 51 m 211 586 q 144 598 175 586 q 91 634 113 611 q 57 689 69 657 q 44 757 44 720 q 56 824 44 794 q 90 876 68 854 q 143 909 112 897 q 211 921 174 921 q 278 909 248 921 q 332 876 309 897 q 366 824 354 854 q 378 757 378 794 q 366 689 378 721 q 330 635 353 657 q 277 599 308 612 q 211 586 247 586 m 213 652 q 278 676 258 652 q 297 757 297 700 q 278 837 297 814 q 211 861 258 861 q 146 838 166 861 q 127 758 127 815 q 147 676 127 700 q 213 652 167 652 z "},"&":{"ha":764,"x_min":47,"x_max":736,"o":"m 212 517 q 167 584 184 556 q 141 635 150 612 q 127 677 131 657 q 124 715 124 697 q 139 800 124 762 q 184 865 155 838 q 254 907 213 892 q 345 922 295 922 q 552 814 481 922 l 487 752 q 425 812 464 791 q 337 833 385 833 q 218 719 218 833 q 222 678 218 698 q 240 633 227 657 q 275 578 252 609 q 332 507 297 547 l 550 253 q 615 403 584 317 l 677 332 q 608 186 645 251 l 736 36 l 650 -1 q 601 56 624 29 q 554 109 578 82 q 448 14 505 46 q 329 -17 391 -17 q 222 6 273 -17 q 133 70 171 30 q 71 161 94 110 q 47 270 47 213 q 87 402 47 339 q 212 517 127 464 m 266 447 q 146 267 146 368 q 162 193 146 229 q 204 130 178 157 q 264 86 230 103 q 333 69 299 69 q 419 96 377 69 q 499 172 461 123 q 364 328 421 262 q 266 447 307 395 z "},"'":{"ha":764,"x_min":315,"x_max":438,"o":"m 315 910 l 438 903 l 438 810 q 425 726 433 773 q 408 635 417 678 q 391 561 399 593 q 380 522 383 529 l 315 535 l 315 910 z "},"(":{"ha":764,"x_min":216,"x_max":551,"o":"m 332 339 q 344 198 332 264 q 381 72 355 133 q 449 -48 407 12 q 551 -171 491 -108 l 492 -231 q 367 -97 419 -164 q 281 39 315 -30 q 232 183 248 109 q 216 339 216 257 q 232 494 216 421 q 281 635 248 567 q 367 770 315 704 q 492 903 419 836 l 551 843 q 449 720 491 779 q 381 601 407 661 q 344 478 355 542 q 332 339 332 414 z "},")":{"ha":764,"x_min":213,"x_max":547,"o":"m 432 339 q 420 198 432 264 q 383 72 409 133 q 315 -48 357 12 q 213 -171 273 -108 l 272 -231 q 397 -97 345 -164 q 483 39 449 -30 q 532 183 516 109 q 547 339 547 257 q 532 494 547 421 q 483 635 516 567 q 397 770 449 704 q 272 903 345 836 l 213 843 q 315 720 273 779 q 383 601 357 661 q 420 478 409 542 q 432 339 432 414 z "},"*":{"ha":764,"x_min":135,"x_max":620,"o":"m 297 646 l 135 734 l 181 803 l 329 741 l 345 922 l 429 919 l 429 733 l 586 773 l 620 704 l 436 635 l 558 487 l 486 443 l 362 558 l 251 457 l 178 513 l 297 646 z "},"+":{"ha":764,"x_min":154,"x_max":609,"o":"m 154 404 l 333 404 l 333 584 l 426 584 l 426 404 l 609 404 l 609 311 l 426 311 l 426 131 l 333 131 l 333 311 l 154 311 l 154 404 z "},",":{"ha":764,"x_min":250,"x_max":454,"o":"m 250 -157 q 262 -135 253 -152 q 282 -95 271 -118 q 304 -46 293 -73 q 325 5 316 -20 q 309 56 309 23 q 328 109 309 90 q 382 127 347 127 q 454 56 454 127 q 437 -4 454 32 q 396 -77 420 -41 q 348 -144 373 -113 q 306 -185 323 -175 l 250 -157 z "},"-":{"ha":764,"x_min":156,"x_max":609,"o":"m 609 301 l 156 301 l 156 394 l 609 394 l 609 301 z "},".":{"ha":764,"x_min":309,"x_max":454,"o":"m 309 56 q 328 109 309 90 q 382 127 347 127 q 454 56 454 127 q 382 -17 454 -17 q 309 56 309 -17 z "},"/":{"ha":764,"x_min":83,"x_max":682,"o":"m 682 929 l 154 -159 l 83 -113 l 610 973 l 682 929 z "},":":{"ha":764,"x_min":309,"x_max":454,"o":"m 309 90 q 328 144 309 125 q 382 162 347 162 q 454 90 454 162 q 382 17 454 17 q 309 90 309 17 m 309 530 q 328 583 309 565 q 382 602 347 602 q 454 530 454 602 q 382 457 454 457 q 309 530 309 457 z "},";":{"ha":764,"x_min":250,"x_max":454,"o":"m 325 39 q 309 90 309 58 q 328 144 309 125 q 382 162 347 162 q 454 90 454 162 q 437 31 454 67 q 396 -42 420 -6 q 348 -109 373 -79 q 306 -150 323 -140 l 250 -123 q 262 -100 253 -117 q 282 -61 271 -83 q 304 -12 293 -38 q 325 39 316 15 m 309 530 q 328 583 309 565 q 382 602 347 602 q 454 530 454 602 q 382 457 454 457 q 309 530 309 457 z "},"<":{"ha":764,"x_min":135,"x_max":619,"o":"m 581 691 l 619 598 l 231 362 l 619 125 l 578 35 l 135 310 l 135 416 l 581 691 z "},"=":{"ha":764,"x_min":148,"x_max":615,"o":"m 608 435 l 148 435 l 155 528 l 615 528 l 608 435 m 608 191 l 148 191 l 155 284 l 615 284 l 608 191 z "},">":{"ha":764,"x_min":145,"x_max":628,"o":"m 183 691 l 145 598 l 532 362 l 145 125 l 186 35 l 628 310 l 628 416 l 183 691 z "},"?":{"ha":764,"x_min":108,"x_max":652,"o":"m 553 697 q 510 800 553 769 q 378 832 468 832 q 321 826 351 832 q 264 810 292 821 q 214 781 237 799 q 175 738 190 763 l 108 794 q 147 848 120 824 q 210 888 174 872 q 291 913 247 904 q 384 921 336 921 q 492 908 443 921 q 577 867 542 895 q 632 798 612 840 q 652 697 652 756 q 641 619 652 652 q 612 562 630 587 q 572 518 595 537 q 525 480 550 499 q 470 435 494 456 q 429 389 446 413 q 403 334 412 365 q 395 262 395 303 l 291 262 q 299 348 291 311 q 326 414 308 384 q 372 469 344 443 q 439 523 399 495 q 485 558 464 542 q 521 595 506 575 q 545 640 536 616 q 553 697 553 664 m 274 56 q 293 109 274 90 q 347 127 313 127 q 419 56 419 127 q 347 -17 419 -17 q 274 56 274 -17 z "},"@":{"ha":764,"x_min":73,"x_max":691,"o":"m 73 281 q 89 561 73 441 q 142 761 105 681 q 241 881 179 841 q 394 921 303 921 q 616 822 542 921 q 691 544 691 722 l 691 0 l 593 0 l 593 39 q 472 -17 541 -17 q 387 4 426 -17 q 320 64 348 25 q 276 157 292 103 q 260 274 260 211 q 275 385 260 336 q 317 468 289 434 q 382 521 344 502 q 466 539 420 539 q 535 524 507 539 q 593 475 564 509 l 593 544 q 394 832 593 832 q 292 803 334 832 q 223 707 250 774 q 183 530 196 640 q 171 256 171 419 q 179 131 171 194 q 209 10 188 67 q 268 -96 230 -47 q 365 -177 306 -145 l 286 -238 q 173 -143 215 -203 q 109 -13 131 -83 q 80 134 87 58 q 73 281 73 211 m 495 76 q 549 89 525 76 q 593 130 572 101 l 593 394 q 551 441 573 427 q 494 455 529 455 q 356 273 356 455 q 393 128 356 179 q 495 76 429 76 z "},"A":{"ha":764,"x_min":67,"x_max":697,"o":"m 304 903 l 442 903 l 697 0 l 598 0 l 525 255 l 235 255 l 166 0 l 67 0 l 304 903 m 256 336 l 502 336 l 383 749 l 368 749 l 256 336 z "},"B":{"ha":764,"x_min":104,"x_max":660,"o":"m 307 903 q 520 848 450 903 q 590 676 590 794 q 569 573 590 613 q 500 509 549 532 q 619 422 579 481 q 660 275 660 362 q 639 162 660 213 q 582 75 619 111 q 493 20 545 39 q 376 0 441 0 l 104 0 l 104 903 l 307 903 m 203 443 l 203 98 l 376 98 q 517 144 468 98 q 566 275 566 190 q 365 443 566 443 l 203 443 m 203 542 l 307 542 q 453 574 410 542 q 497 674 497 606 q 451 775 497 747 q 307 804 406 804 l 203 804 l 203 542 z "},"C":{"ha":764,"x_min":60,"x_max":692,"o":"m 692 192 q 655 112 684 150 q 582 45 625 74 q 487 -1 539 16 q 378 -17 434 -17 q 244 15 303 -17 q 144 106 185 47 q 82 248 103 166 q 60 433 60 331 q 84 630 60 541 q 150 785 108 720 q 252 885 193 850 q 381 921 310 921 q 473 906 427 921 q 557 864 519 890 q 625 803 596 838 q 666 727 654 767 l 557 696 q 531 748 549 723 q 490 790 513 772 q 438 818 466 808 q 381 829 410 829 q 293 801 332 829 q 227 722 255 773 q 185 598 200 671 q 170 436 170 525 q 225 168 170 262 q 381 75 279 75 q 449 86 416 75 q 510 115 483 97 q 557 157 538 133 q 580 207 575 182 l 692 192 z "},"D":{"ha":764,"x_min":98,"x_max":677,"o":"m 394 98 q 534 189 486 98 q 581 455 581 279 q 530 717 581 634 q 370 800 479 800 l 197 800 l 197 98 l 394 98 m 677 458 q 394 0 677 0 l 98 0 l 98 903 l 313 903 q 480 878 411 903 q 593 800 550 853 q 657 662 637 747 q 677 458 677 578 z "},"E":{"ha":764,"x_min":127,"x_max":631,"o":"m 127 0 l 127 903 l 631 903 l 631 804 l 226 804 l 226 524 l 561 524 l 561 426 l 226 426 l 226 98 l 631 98 l 631 0 l 127 0 z "},"F":{"ha":764,"x_min":139,"x_max":642,"o":"m 642 903 l 642 804 l 237 804 l 237 459 l 573 459 l 573 361 l 237 361 l 237 0 l 139 0 l 139 903 l 642 903 z "},"G":{"ha":764,"x_min":60,"x_max":692,"o":"m 692 324 q 670 183 692 247 q 608 76 648 120 q 510 7 567 31 q 382 -17 453 -17 q 245 13 304 -17 q 144 100 185 43 q 82 238 103 156 q 60 426 60 321 q 85 633 60 541 q 156 789 110 725 q 266 887 201 853 q 410 921 331 921 q 547 889 483 921 q 671 782 611 856 l 594 720 q 548 770 569 750 q 505 804 527 791 q 461 823 484 817 q 411 829 438 829 q 233 728 295 829 q 170 434 170 627 q 224 167 170 258 q 387 75 278 75 q 473 93 434 75 q 542 142 513 110 q 586 221 571 175 q 602 324 602 267 l 390 324 l 390 405 l 692 405 l 692 324 z "},"H":{"ha":764,"x_min":91,"x_max":675,"o":"m 91 903 l 190 903 l 190 475 l 569 475 l 569 903 l 668 903 l 668 76 q 668 37 668 57 q 675 0 669 17 l 569 0 l 569 394 l 190 394 l 190 0 l 91 0 l 91 903 z "},"I":{"ha":764,"x_min":132,"x_max":634,"o":"m 132 81 l 332 81 l 332 822 l 162 822 l 162 903 l 591 903 l 591 822 l 431 822 l 431 81 l 627 81 l 627 76 q 628 37 627 57 q 634 0 628 17 l 132 0 l 132 81 z "},"J":{"ha":764,"x_min":96,"x_max":666,"o":"m 96 89 l 155 161 q 385 72 231 72 q 560 191 560 72 l 560 814 l 171 814 l 171 903 l 666 903 q 659 866 660 885 q 659 826 659 846 l 659 191 q 639 105 659 144 q 583 40 619 67 q 496 -2 547 13 q 382 -17 444 -17 q 293 -10 337 -17 q 211 12 249 -2 q 144 45 174 25 q 96 89 115 65 z "},"K":{"ha":764,"x_min":104,"x_max":716,"o":"m 104 0 l 104 903 l 203 903 l 203 477 l 552 903 l 683 903 l 308 439 l 716 0 l 569 0 l 240 355 l 203 309 l 203 0 l 104 0 z "},"L":{"ha":764,"x_min":124,"x_max":642,"o":"m 642 0 l 124 0 l 124 903 l 222 903 l 222 81 l 642 81 l 642 0 z "},"M":{"ha":764,"x_min":67,"x_max":697,"o":"m 67 0 l 67 903 l 168 903 q 220 775 191 844 q 279 640 249 706 q 336 519 309 574 q 382 429 363 463 q 425 519 399 463 q 480 640 451 574 q 538 775 509 706 q 588 903 566 844 l 697 903 l 697 0 l 598 0 l 598 719 q 556 604 579 661 q 511 495 534 547 q 468 398 488 443 q 431 318 447 353 l 331 318 q 245 517 287 418 q 166 719 203 617 l 166 0 l 67 0 z "},"N":{"ha":764,"x_min":102,"x_max":662,"o":"m 200 719 l 200 0 l 102 0 l 102 903 l 207 903 l 564 213 l 564 903 l 662 903 l 662 0 l 557 0 l 200 719 z "},"O":{"ha":764,"x_min":60,"x_max":704,"o":"m 382 -17 q 245 13 306 -17 q 144 102 185 44 q 82 244 103 160 q 60 436 60 329 q 144 797 60 672 q 380 921 228 921 q 618 796 532 921 q 704 434 704 670 q 682 244 704 328 q 619 102 661 160 q 518 13 578 44 q 382 -17 458 -17 m 384 76 q 538 163 488 76 q 588 433 588 249 q 535 741 588 644 q 382 838 481 838 q 230 741 284 838 q 176 435 176 645 q 228 163 176 250 q 384 76 280 76 z "},"P":{"ha":764,"x_min":110,"x_max":666,"o":"m 382 903 q 499 883 447 903 q 588 827 551 863 q 645 739 625 791 q 666 624 666 688 q 640 502 666 552 q 569 421 615 453 q 458 376 523 390 q 313 361 392 361 l 208 361 l 208 0 l 110 0 l 110 903 l 382 903 m 370 459 q 572 627 572 459 q 523 759 572 713 q 382 804 473 804 l 208 804 l 208 459 l 370 459 z "},"Q":{"ha":764,"x_min":60,"x_max":704,"o":"m 60 436 q 144 797 60 672 q 380 921 228 921 q 618 796 532 921 q 704 434 704 670 q 633 123 704 240 q 434 -14 563 6 l 434 -168 l 330 -168 l 330 -14 q 215 31 265 -3 q 130 123 164 66 q 78 259 96 181 q 60 436 60 338 m 330 83 l 330 307 l 434 307 l 434 82 q 550 187 513 102 q 588 433 588 272 q 535 741 588 644 q 382 838 481 838 q 230 741 284 838 q 176 435 176 645 q 214 190 176 275 q 330 83 252 104 z "},"R":{"ha":764,"x_min":110,"x_max":678,"o":"m 110 903 l 382 903 q 499 883 447 903 q 588 827 551 863 q 645 739 625 791 q 666 624 666 688 q 616 464 666 522 q 478 381 566 405 q 502 340 490 361 q 527 299 514 319 q 536 282 531 289 q 546 265 541 274 q 594 185 571 225 q 637 109 618 145 q 667 46 655 74 q 678 0 678 17 l 563 0 q 551 46 563 17 q 521 109 539 74 q 480 183 503 144 q 432 263 456 222 l 399 315 q 385 339 392 328 q 372 363 377 351 q 342 362 356 362 q 313 361 328 361 l 208 361 l 208 0 l 110 0 l 110 903 m 208 459 l 370 459 q 572 627 572 459 q 523 759 572 713 q 382 804 473 804 l 208 804 l 208 459 z "},"S":{"ha":764,"x_min":95,"x_max":668,"o":"m 370 -17 q 203 14 278 -17 q 95 102 128 45 l 163 161 q 365 71 226 71 q 519 114 463 71 q 574 242 574 157 q 528 354 574 316 q 392 409 483 392 q 274 442 328 419 q 182 499 220 465 q 122 578 144 534 q 101 677 101 623 q 121 775 101 730 q 178 852 141 819 q 265 902 214 884 q 377 920 316 920 q 528 889 459 920 q 634 802 597 858 l 569 741 q 527 783 547 766 q 484 810 506 800 q 440 825 463 821 q 388 830 417 830 q 244 790 294 830 q 193 684 193 750 q 249 571 193 617 q 424 502 304 525 q 606 423 544 479 q 668 253 668 367 q 646 133 668 184 q 584 49 624 82 q 490 -1 545 15 q 370 -17 435 -17 z "},"T":{"ha":764,"x_min":88,"x_max":676,"o":"m 676 903 l 676 822 l 427 822 l 427 0 l 329 0 l 329 822 l 88 822 l 88 903 l 676 903 z "},"U":{"ha":764,"x_min":94,"x_max":670,"o":"m 94 903 l 192 903 l 192 248 q 207 171 192 204 q 247 117 221 139 q 308 86 273 96 q 384 75 343 75 q 459 86 425 75 q 519 117 494 96 q 558 171 544 139 q 572 248 572 204 l 572 903 l 670 903 l 670 242 q 652 136 670 184 q 598 54 634 88 q 508 1 561 20 q 383 -17 455 -17 q 258 1 313 -17 q 167 54 204 20 q 112 136 131 88 q 94 242 94 184 l 94 903 z "},"V":{"ha":764,"x_min":46,"x_max":719,"o":"m 46 903 l 150 903 l 375 154 l 615 903 l 719 903 l 422 0 l 324 0 l 46 903 z "},"W":{"ha":764,"x_min":52,"x_max":711,"o":"m 150 903 q 152 793 150 855 q 157 663 154 731 q 166 523 161 595 q 178 385 171 451 q 194 260 185 318 q 213 161 203 203 q 259 288 240 233 q 293 386 279 343 q 316 465 307 429 q 332 532 325 500 l 432 532 q 446 465 438 500 q 468 387 455 431 q 500 289 481 344 q 544 161 519 234 q 565 260 556 203 q 583 385 575 318 q 595 523 590 451 q 605 663 601 595 q 611 793 609 731 q 612 903 612 855 l 711 903 q 707 768 711 843 q 696 611 703 693 q 678 444 689 529 q 656 278 668 359 q 629 127 644 198 q 600 0 615 56 l 506 0 q 470 98 488 46 q 434 201 451 149 q 403 305 417 253 q 380 403 389 356 q 355 305 370 356 q 322 201 340 253 q 285 98 304 149 q 248 0 266 46 l 154 0 q 127 127 140 56 q 104 278 115 198 q 83 444 93 359 q 67 611 73 529 q 56 768 60 693 q 52 903 52 843 l 150 903 z "},"X":{"ha":764,"x_min":79,"x_max":678,"o":"m 378 350 l 189 0 l 79 0 l 324 449 l 79 903 l 184 903 l 378 547 l 573 903 l 678 903 l 433 449 l 678 0 l 568 0 l 378 350 z "},"Y":{"ha":764,"x_min":34,"x_max":729,"o":"m 138 903 l 374 490 l 625 903 l 729 903 l 421 375 l 421 0 l 323 0 l 323 375 l 34 903 l 138 903 z "},"Z":{"ha":764,"x_min":73,"x_max":691,"o":"m 73 93 l 273 398 l 139 398 l 139 487 l 331 487 l 543 810 l 108 810 l 108 903 l 668 903 l 668 810 l 457 487 l 625 487 l 625 398 l 398 398 l 199 93 l 691 93 l 691 0 l 73 0 l 73 93 z "},"[":{"ha":764,"x_min":243,"x_max":545,"o":"m 243 -231 l 243 903 l 545 903 l 545 810 l 347 810 l 347 -139 l 545 -139 l 545 -231 l 243 -231 z "},"\\":{"ha":764,"x_min":82,"x_max":681,"o":"m 82 929 l 610 -159 l 681 -113 l 154 973 l 82 929 z "},"]":{"ha":764,"x_min":219,"x_max":521,"o":"m 521 -231 l 521 903 l 219 903 l 219 810 l 417 810 l 417 -139 l 219 -139 l 219 -231 l 521 -231 z "},"^":{"ha":764,"x_min":124,"x_max":639,"o":"m 323 961 l 421 961 l 639 660 l 535 660 l 374 841 l 228 660 l 124 660 l 323 961 z "},"_":{"ha":764,"x_min":29,"x_max":736,"o":"m 736 -231 l 29 -231 l 29 -150 l 736 -150 l 736 -231 z "},"`":{"ha":764,"x_min":222,"x_max":541,"o":"m 222 927 l 275 1014 l 541 826 l 506 766 l 222 927 z "},"a":{"ha":764,"x_min":93,"x_max":659,"o":"m 93 171 q 190 321 93 271 q 481 372 288 372 q 523 371 505 372 q 560 369 542 370 l 560 374 q 546 461 560 421 q 505 528 531 500 q 443 573 479 557 q 362 589 406 589 q 270 569 318 589 q 167 495 222 550 l 108 567 q 222 649 156 620 q 360 678 287 678 q 481 655 426 678 q 575 591 536 632 q 637 495 615 551 q 659 374 659 439 l 659 0 l 535 0 q 552 35 543 12 q 560 81 560 58 q 479 10 535 37 q 354 -16 424 -16 q 252 -4 300 -16 q 168 32 204 8 q 113 90 133 56 q 93 171 93 125 m 193 171 q 236 94 193 120 q 337 67 278 67 q 398 74 367 67 q 458 94 428 81 q 514 128 487 108 q 560 177 541 149 l 560 284 q 522 285 541 285 q 486 285 503 285 q 264 259 334 285 q 193 171 193 233 z "},"b":{"ha":764,"x_min":100,"x_max":689,"o":"m 100 0 l 100 910 l 198 903 l 198 579 q 283 655 235 631 q 400 678 331 678 q 613 592 537 678 q 689 348 689 506 q 667 199 689 266 q 605 84 645 132 q 510 10 566 36 q 387 -16 455 -16 q 286 0 332 -16 q 204 45 240 16 q 212 19 207 31 q 223 0 218 7 l 100 0 m 198 176 q 266 102 221 126 q 384 78 311 78 q 467 98 429 78 q 532 153 505 118 q 575 238 560 189 q 590 347 590 288 q 576 448 590 403 q 537 525 563 493 q 476 574 512 557 q 396 591 440 591 q 282 558 333 591 q 198 464 230 524 l 198 176 z "},"c":{"ha":764,"x_min":83,"x_max":670,"o":"m 670 191 q 635 105 661 144 q 572 40 610 67 q 486 -2 535 13 q 378 -16 436 -16 q 160 69 237 -16 q 83 316 83 155 q 102 458 83 392 q 157 573 120 524 q 248 650 193 622 q 376 678 303 678 q 471 665 426 678 q 554 628 516 652 q 619 571 591 604 q 659 497 646 537 l 550 465 q 485 554 532 523 q 376 586 438 586 q 238 512 282 586 q 193 309 193 439 q 383 75 193 75 q 499 108 454 75 q 557 207 544 141 l 670 191 z "},"d":{"ha":764,"x_min":78,"x_max":674,"o":"m 366 678 q 483 655 435 678 q 568 579 531 631 l 568 910 l 667 903 l 667 76 q 667 37 667 57 q 674 0 668 17 l 568 0 l 568 50 q 483 1 531 19 q 380 -16 435 -16 q 256 10 313 -16 q 161 84 200 36 q 100 199 122 132 q 78 348 78 266 q 153 592 78 506 q 366 678 229 678 m 382 78 q 500 102 455 78 q 568 176 545 126 l 568 464 q 484 558 536 524 q 370 591 433 591 q 291 574 326 591 q 229 525 255 557 q 190 448 204 493 q 176 347 176 403 q 191 238 176 288 q 234 153 206 189 q 299 98 262 118 q 382 78 337 78 z "},"e":{"ha":764,"x_min":93,"x_max":662,"o":"m 93 284 l 93 341 q 169 590 93 502 q 394 678 245 678 q 530 650 477 678 q 612 575 582 623 q 652 466 641 528 q 662 336 662 404 q 662 310 662 323 q 661 284 662 296 l 191 284 q 206 198 191 237 q 247 131 221 160 q 310 87 273 103 q 389 72 346 72 q 481 91 433 72 q 584 166 529 111 l 644 94 q 530 12 595 41 q 391 -17 464 -17 q 272 5 326 -17 q 178 68 218 28 q 115 163 138 108 q 93 284 93 219 m 192 372 l 558 372 l 559 394 q 513 541 558 490 q 380 591 469 591 q 296 576 331 591 q 239 532 262 561 q 205 463 216 503 q 192 372 194 422 z "},"f":{"ha":764,"x_min":134,"x_max":620,"o":"m 359 678 l 359 -238 l 260 -231 l 260 678 l 359 678 m 359 676 q 370 741 359 713 q 399 787 381 769 q 440 815 417 806 q 490 824 464 824 q 567 802 529 824 q 626 728 604 779 l 714 767 q 670 837 696 808 q 615 885 645 867 q 554 913 586 904 q 491 921 522 921 q 405 905 447 921 q 331 856 363 888 q 280 780 299 825 q 260 676 260 734 l 359 676 m 620 282 l 134 282 l 134 372 l 620 372 l 620 282 z "},"g":{"ha":764,"x_min":96,"x_max":659,"o":"m 659 0 l 659 583 q 659 623 659 603 q 666 660 660 642 l 560 660 l 560 0 l 659 0 m 659 0 q 639 -86 659 -47 q 583 -151 619 -124 q 496 -193 547 -178 q 382 -208 444 -208 q 293 -201 337 -208 q 211 -179 249 -193 q 144 -146 174 -166 q 96 -102 115 -126 l 155 -30 q 385 -119 231 -119 q 560 0 560 -119 l 659 0 m 355 678 q 237 657 289 678 q 148 597 184 637 q 91 503 111 558 q 72 380 72 448 q 92 252 72 310 q 149 152 112 193 q 237 87 185 110 q 352 64 289 64 q 464 83 410 64 q 564 139 517 102 l 564 269 q 483 187 536 216 q 369 157 429 157 q 286 175 324 157 q 223 222 249 192 q 182 292 197 252 q 168 378 168 332 q 182 463 168 424 q 222 531 196 502 q 283 577 248 560 q 362 594 318 594 q 478 560 425 594 q 564 463 531 525 l 564 579 q 355 678 493 678 z "},"h":{"ha":764,"x_min":105,"x_max":650,"o":"m 200 580 q 234 620 212 602 q 284 651 256 638 q 343 671 311 664 q 405 678 374 678 q 514 649 469 678 q 588 573 559 620 q 630 465 617 525 q 644 344 644 405 l 644 76 q 644 37 644 57 q 650 0 645 17 l 538 0 l 538 368 q 526 451 538 412 q 490 518 514 490 q 433 563 466 546 q 355 580 399 580 q 258 549 294 580 q 200 475 222 519 l 200 580 m 105 910 l 204 903 l 204 0 l 105 0 l 105 910 z "},"i":{"ha":764,"x_min":131,"x_max":633,"o":"m 300 850 q 319 903 300 884 q 373 921 338 921 q 444 850 444 921 q 373 777 444 777 q 300 850 300 777 m 131 81 l 337 81 l 337 579 l 201 587 l 201 660 l 432 660 l 432 81 l 626 81 l 626 76 q 627 37 626 57 q 633 0 627 17 l 131 0 l 131 81 z "},"j":{"ha":764,"x_min":103,"x_max":571,"o":"m 426 850 q 445 903 426 884 q 499 921 464 921 q 571 850 571 921 q 499 777 571 777 q 426 850 426 777 m 191 -50 q 251 -123 213 -101 q 328 -146 288 -146 q 377 -137 353 -146 q 418 -109 400 -127 q 447 -62 436 -90 q 458 2 458 -35 l 458 579 l 323 587 l 323 660 l 557 660 l 557 2 q 540 -92 557 -47 q 493 -170 523 -137 q 421 -223 463 -204 q 326 -243 378 -243 q 263 -234 295 -243 q 202 -207 231 -226 q 147 -159 172 -189 q 103 -89 122 -130 l 191 -50 z "},"k":{"ha":764,"x_min":132,"x_max":712,"o":"m 230 903 l 230 396 l 536 660 l 674 660 l 340 361 l 712 0 l 559 0 l 262 291 l 230 264 l 230 0 l 132 0 l 132 910 l 230 903 z "},"l":{"ha":764,"x_min":133,"x_max":635,"o":"m 133 81 l 333 81 l 333 822 l 198 830 l 198 903 l 432 903 l 432 81 l 628 81 l 628 76 q 629 37 628 57 q 635 0 630 17 l 133 0 l 133 81 z "},"m":{"ha":764,"x_min":83,"x_max":691,"o":"m 83 660 l 182 660 l 182 608 q 226 663 201 647 q 285 678 251 678 q 367 651 334 678 q 417 580 400 624 q 441 625 429 606 q 466 656 453 644 q 499 673 480 668 q 543 678 517 678 q 617 663 588 678 q 663 620 646 647 q 685 555 679 593 q 691 473 691 517 l 691 0 l 597 0 l 597 498 q 578 564 597 536 q 525 591 559 591 q 478 570 500 591 q 435 497 456 549 q 436 479 436 487 q 436 462 436 471 l 436 0 l 343 0 l 343 486 q 323 552 343 524 q 269 580 304 580 q 221 561 241 580 q 182 502 201 542 l 182 76 q 182 37 182 57 q 189 0 183 17 l 83 0 l 83 660 z "},"n":{"ha":764,"x_min":116,"x_max":663,"o":"m 118 660 l 116 660 l 242 660 q 225 625 234 648 q 216 579 216 602 l 216 0 l 118 0 l 118 660 m 213 580 q 247 620 225 602 q 296 651 269 638 q 355 671 324 664 q 418 678 387 678 q 527 649 481 678 q 601 573 572 620 q 643 465 630 525 q 656 344 656 405 l 656 76 q 657 37 656 57 q 663 0 657 17 l 551 0 l 551 368 q 539 451 551 412 q 503 518 527 490 q 446 563 479 546 q 368 580 412 580 q 271 549 307 580 q 213 475 235 519 l 213 580 z "},"o":{"ha":764,"x_min":78,"x_max":686,"o":"m 381 -17 q 256 6 311 -17 q 160 75 200 30 q 99 183 120 119 q 78 328 78 248 q 98 471 78 406 q 159 582 119 536 q 253 653 198 628 q 378 678 309 678 q 506 653 449 678 q 602 581 563 627 q 664 470 642 535 q 686 326 686 405 q 664 183 686 247 q 602 75 642 119 q 506 6 563 30 q 381 -17 450 -17 m 384 67 q 524 134 473 67 q 574 326 574 200 q 524 524 574 451 q 382 597 473 597 q 240 525 291 597 q 190 329 190 453 q 242 135 190 203 q 384 67 294 67 z "},"p":{"ha":764,"x_min":93,"x_max":682,"o":"m 93 660 l 216 660 q 200 625 208 648 q 191 579 191 602 q 276 655 228 631 q 394 678 324 678 q 606 592 530 678 q 682 348 682 506 q 660 199 682 266 q 598 84 638 132 q 503 10 559 36 q 380 -16 448 -16 q 276 1 324 -16 q 191 50 228 19 l 191 -231 l 93 -238 l 93 660 m 191 176 q 259 102 214 126 q 377 78 304 78 q 460 98 422 78 q 525 153 498 118 q 568 238 553 189 q 583 347 583 288 q 569 448 583 403 q 530 525 556 493 q 469 574 505 557 q 389 591 433 591 q 275 558 326 591 q 191 464 223 524 l 191 176 z "},"q":{"ha":764,"x_min":80,"x_max":676,"o":"m 80 348 q 156 592 80 506 q 368 678 231 678 q 486 655 438 678 q 571 579 534 631 l 571 660 l 676 660 q 670 623 670 642 q 669 583 669 603 l 669 -231 l 571 -238 l 571 50 q 486 1 534 19 q 382 -16 438 -16 q 259 10 315 -16 q 163 84 203 36 q 102 199 124 132 q 80 348 80 266 m 384 78 q 502 102 457 78 q 571 176 547 126 l 571 464 q 487 558 538 524 q 373 591 435 591 q 293 574 329 591 q 231 525 257 557 q 192 448 206 493 q 178 347 178 403 q 193 238 178 288 q 236 153 208 189 q 302 98 264 118 q 384 78 339 78 z "},"r":{"ha":764,"x_min":90,"x_max":712,"o":"m 90 81 l 295 81 l 295 579 l 160 587 l 160 660 l 403 660 q 396 645 399 655 q 391 622 394 634 q 386 599 388 610 q 384 582 384 588 q 428 635 402 616 q 483 663 455 654 q 539 675 512 672 q 586 678 567 678 q 605 678 595 678 q 630 674 616 677 q 664 664 645 670 q 712 647 684 657 l 650 551 q 551 578 602 578 q 447 545 492 578 q 390 459 403 513 l 390 81 l 586 81 l 586 76 q 586 37 586 57 q 593 0 587 17 l 90 0 l 90 81 z "},"s":{"ha":764,"x_min":116,"x_max":655,"o":"m 414 378 q 525 350 479 367 q 600 311 571 333 q 642 260 628 289 q 655 194 655 231 q 637 109 655 148 q 584 42 618 71 q 501 -2 550 14 q 392 -17 453 -17 q 236 17 303 -17 q 116 122 168 52 l 182 189 q 282 101 230 132 q 394 71 334 71 q 458 80 427 71 q 512 107 488 90 q 549 146 535 124 q 563 193 563 169 q 556 222 563 209 q 532 245 549 235 q 487 263 515 255 q 418 280 459 272 q 293 314 345 295 q 208 358 241 333 q 159 413 175 382 q 144 483 144 444 q 162 563 144 527 q 214 624 181 598 q 295 664 248 650 q 402 678 343 678 q 547 650 484 678 q 647 571 610 623 l 584 508 q 504 570 544 552 q 410 588 464 588 q 340 580 372 588 q 285 559 308 573 q 249 527 262 545 q 236 485 236 508 q 280 420 236 444 q 414 378 324 396 z "},"t":{"ha":764,"x_min":116,"x_max":676,"o":"m 222 660 l 222 910 l 321 903 l 321 660 l 602 660 l 602 571 l 321 571 l 321 228 q 332 163 321 191 q 361 117 343 135 q 402 89 378 98 q 451 80 426 80 q 528 102 491 80 q 588 176 566 125 l 676 137 q 578 19 639 56 q 454 -17 516 -17 q 368 -1 410 -17 q 294 46 326 15 q 242 123 262 78 q 222 226 222 168 l 222 571 l 116 571 l 116 660 l 222 660 z "},"u":{"ha":764,"x_min":100,"x_max":646,"o":"m 639 660 l 639 76 q 639 37 639 57 q 646 0 640 17 l 541 0 l 541 660 l 639 660 m 544 95 q 509 49 530 69 q 461 13 487 28 q 406 -9 435 -1 q 347 -17 377 -17 q 247 9 293 -17 q 168 79 201 35 q 117 181 135 123 q 100 306 100 240 l 100 661 l 205 661 l 205 281 q 218 201 205 240 q 256 134 231 163 q 314 87 280 104 q 389 69 348 69 q 436 78 416 69 q 475 101 457 86 q 509 140 493 117 q 544 193 525 163 l 544 95 z "},"v":{"ha":764,"x_min":89,"x_max":674,"o":"m 89 660 l 193 660 l 374 154 l 569 660 l 674 660 l 421 0 l 323 0 l 89 660 z "},"w":{"ha":764,"x_min":64,"x_max":699,"o":"m 162 678 q 181 411 162 536 q 233 161 200 286 q 292 329 266 251 q 334 498 318 407 l 434 498 q 472 329 449 407 q 527 161 494 251 q 581 411 561 286 q 601 678 601 536 l 699 678 q 689 502 699 588 q 663 332 679 416 q 624 165 646 248 q 580 0 603 82 l 486 0 q 453 89 469 46 q 425 172 438 131 q 401 256 412 214 q 381 345 390 299 q 365 277 374 310 q 343 205 355 244 q 311 117 330 167 q 265 0 292 68 l 171 0 q 131 165 150 82 q 97 332 112 248 q 73 502 82 416 q 64 678 64 588 l 162 678 z "},"x":{"ha":764,"x_min":115,"x_max":650,"o":"m 330 332 l 122 660 l 230 660 l 384 418 l 541 660 l 649 660 l 439 332 l 650 0 l 541 0 l 383 247 l 225 0 l 115 0 l 330 332 z "},"y":{"ha":764,"x_min":98,"x_max":660,"o":"m 196 660 q 221 552 203 613 q 264 422 240 491 q 319 284 289 354 q 380 147 350 213 q 436 298 409 222 q 486 442 463 374 q 526 565 509 509 q 550 660 543 622 l 660 660 q 625 543 648 613 q 571 389 602 472 q 505 214 541 306 q 435 35 470 123 l 434 35 q 408 -31 421 1 q 382 -94 395 -64 q 303 -209 350 -171 q 188 -247 257 -247 q 164 -245 177 -247 q 138 -242 152 -244 l 154 -166 q 168 -168 161 -168 q 181 -168 175 -168 q 250 -141 222 -168 q 297 -65 278 -113 q 317 -17 307 -42 q 337 35 326 8 q 262 186 300 101 q 190 357 223 271 q 132 523 156 443 q 98 660 108 603 l 196 660 z "},"z":{"ha":764,"x_min":131,"x_max":633,"o":"m 520 579 l 146 579 l 146 660 l 622 660 l 622 571 l 234 81 l 626 81 l 626 76 q 627 37 626 57 q 633 0 627 17 l 131 0 l 131 81 l 520 579 z "},"{":{"ha":764,"x_min":197,"x_max":566,"o":"m 197 289 l 197 382 q 277 394 248 382 q 322 422 307 405 q 343 462 338 440 q 347 505 347 484 q 340 568 347 538 q 323 630 333 597 q 307 679 314 655 q 301 734 301 704 q 319 810 301 778 q 367 863 337 843 q 439 894 397 884 q 527 904 480 904 q 546 904 536 904 q 566 903 557 904 l 566 826 q 520 830 542 830 q 475 825 495 830 q 438 810 454 821 q 413 782 422 800 q 404 740 404 765 q 410 693 404 718 q 425 638 416 668 q 441 578 433 612 q 449 502 449 543 q 422 395 449 440 q 330 338 395 350 q 387 315 363 332 q 424 275 410 299 q 443 222 438 251 q 449 163 449 193 q 441 89 449 120 q 424 29 433 57 q 410 -13 416 8 q 404 -58 404 -35 q 440 -136 404 -113 q 525 -159 476 -159 q 566 -155 545 -159 l 566 -231 q 548 -233 557 -233 q 530 -233 539 -233 q 441 -222 483 -233 q 368 -187 399 -211 q 319 -130 337 -164 q 301 -46 301 -95 q 307 8 301 -15 q 323 52 314 30 q 341 108 334 82 q 347 166 347 133 q 343 207 347 185 q 323 248 339 229 q 278 278 308 266 q 197 289 248 289 z "},"|":{"ha":764,"x_min":329,"x_max":434,"o":"m 329 903 l 434 903 l 434 -231 l 329 -231 l 329 903 z "},"}":{"ha":764,"x_min":198,"x_max":567,"o":"m 567 289 l 567 382 q 487 394 516 382 q 442 422 457 405 q 421 462 426 440 q 417 505 417 484 q 424 568 417 538 q 441 630 431 597 q 457 679 450 655 q 463 734 463 704 q 445 810 463 778 q 397 863 427 843 q 325 894 367 884 q 237 904 284 904 q 218 904 228 904 q 198 903 207 904 l 198 826 q 244 830 222 830 q 289 825 269 830 q 326 810 310 821 q 351 782 341 800 q 360 740 360 765 q 354 693 360 718 q 339 638 348 668 q 323 578 331 612 q 315 502 315 543 q 342 395 315 440 q 434 338 369 350 q 377 315 400 332 q 340 275 354 299 q 321 222 326 251 q 315 163 315 193 q 323 89 315 120 q 340 29 331 57 q 354 -13 348 8 q 360 -58 360 -35 q 324 -136 360 -113 q 238 -159 288 -159 q 198 -155 219 -159 l 198 -231 q 216 -233 207 -233 q 234 -233 225 -233 q 323 -222 281 -233 q 396 -187 365 -211 q 445 -130 427 -164 q 463 -46 463 -95 q 457 8 463 -15 q 441 52 450 30 q 423 108 429 82 q 417 166 417 133 q 421 207 417 185 q 440 248 425 229 q 486 278 456 266 q 567 289 516 289 z "},"~":{"ha":764,"x_min":88,"x_max":677,"o":"m 274 469 q 354 447 323 469 q 410 403 385 426 q 451 369 432 383 q 495 354 471 354 q 557 381 529 354 q 609 450 586 409 l 677 402 q 649 354 666 378 q 609 308 632 329 q 557 275 586 288 q 492 262 528 262 q 448 267 468 262 q 413 283 429 273 q 382 304 396 293 q 355 328 368 316 q 316 361 337 345 q 269 376 295 376 q 155 279 207 376 l 88 329 q 168 432 122 396 q 274 469 215 469 z "},"¡":{"ha":764,"x_min":309,"x_max":454,"o":"m 441 109 l 441 -116 l 319 -116 l 319 109 l 336 529 l 425 529 l 441 109 m 309 731 q 382 804 309 804 q 454 731 454 804 q 382 660 454 660 q 328 678 347 660 q 309 731 309 697 z "},"¢":{"ha":764,"x_min":83,"x_max":670,"o":"m 324 674 l 324 794 l 422 794 l 422 675 q 502 655 464 670 q 571 617 541 640 q 624 563 602 594 q 659 497 647 532 l 550 465 q 483 555 531 524 q 376 586 435 586 q 284 560 319 586 q 228 494 248 535 q 201 405 208 454 q 193 309 193 356 q 203 216 193 259 q 236 142 213 174 q 294 93 258 111 q 383 75 330 75 q 496 107 448 75 q 557 207 544 139 l 670 191 q 587 50 653 104 q 422 -14 521 -3 l 422 -146 l 324 -139 l 324 -13 q 146 87 208 3 q 83 316 83 171 q 98 446 83 385 q 144 554 113 507 q 219 633 174 602 q 324 674 264 664 z "},"£":{"ha":764,"x_min":100,"x_max":653,"o":"m 106 446 l 230 446 q 230 484 230 465 q 228 523 229 503 q 225 596 226 560 q 223 669 223 632 q 281 856 223 791 q 444 921 339 921 q 571 891 517 921 q 653 809 625 861 l 593 751 q 525 810 567 788 q 441 831 484 831 q 353 791 384 831 q 322 664 322 751 q 322 650 322 659 q 323 632 323 642 q 323 623 323 627 q 324 613 323 619 q 324 600 324 606 q 325 587 324 594 q 329 516 328 551 q 330 446 330 481 l 543 446 l 536 365 l 325 365 q 294 225 317 296 q 222 81 271 154 l 642 81 l 642 0 l 124 0 l 124 93 q 196 235 174 168 q 226 365 219 302 l 100 365 l 106 446 z "},"¤":{"ha":764,"x_min":74,"x_max":690,"o":"m 241 546 q 383 583 301 583 q 523 546 465 583 l 624 647 l 690 581 l 591 481 q 622 416 611 453 q 632 338 632 380 q 621 258 632 294 q 590 192 610 222 l 690 94 l 624 28 l 522 127 q 383 91 463 91 q 241 127 302 91 l 140 27 l 74 93 l 175 193 q 135 338 135 255 q 145 416 135 380 q 174 480 155 451 l 74 582 l 140 648 l 241 546 m 383 498 q 277 455 313 498 q 241 338 241 413 q 277 220 241 262 q 383 178 313 178 q 489 220 454 178 q 524 338 524 262 q 489 455 524 413 q 383 498 454 498 z "},"¥":{"ha":764,"x_min":34,"x_max":729,"o":"m 34 903 l 138 903 l 374 490 l 625 903 l 729 903 l 433 395 l 595 395 l 588 314 l 421 314 l 421 221 l 595 221 l 588 140 l 421 140 l 421 0 l 323 0 l 323 140 l 152 140 l 159 221 l 323 221 l 323 314 l 152 314 l 159 395 l 313 395 l 34 903 z "},"¦":{"ha":764,"x_min":329,"x_max":434,"o":"m 329 903 l 434 903 l 434 417 l 329 417 l 329 903 m 329 243 l 434 243 l 434 -231 l 329 -231 l 329 243 z "},"§":{"ha":764,"x_min":101,"x_max":661,"o":"m 376 991 q 464 983 420 991 q 545 960 507 975 q 613 927 583 946 q 661 884 644 907 l 602 813 q 505 877 566 853 q 373 902 443 902 q 241 865 286 902 q 197 759 197 828 q 242 653 197 691 q 380 616 288 616 q 482 602 432 616 q 572 563 532 589 q 635 494 611 536 q 659 397 659 453 q 631 283 659 322 q 558 227 604 244 q 631 154 602 197 q 661 59 661 111 q 642 -37 661 7 q 587 -113 623 -81 q 501 -162 552 -145 q 385 -179 450 -179 q 299 -171 343 -179 q 218 -149 256 -163 q 149 -116 179 -135 q 101 -73 118 -96 l 160 -1 q 257 -66 196 -42 q 389 -90 318 -90 q 520 -53 476 -90 q 565 52 565 -16 q 519 158 565 120 q 381 196 473 196 q 279 209 329 196 q 190 249 229 222 q 127 317 150 275 q 103 414 103 359 q 130 528 103 490 q 204 584 157 567 q 130 657 160 615 q 101 752 101 700 q 120 848 101 804 q 174 924 139 892 q 261 973 209 956 q 376 991 313 991 m 378 286 q 470 289 434 286 q 528 305 507 293 q 558 341 550 317 q 567 406 567 366 q 550 469 567 446 q 507 505 534 493 q 447 521 480 517 q 383 525 414 525 q 291 522 328 525 q 234 506 255 519 q 204 470 213 494 q 196 405 196 446 q 213 343 196 366 q 258 307 230 319 q 317 290 285 294 q 378 286 350 286 z "},"¨":{"ha":764,"x_min":159,"x_max":535,"o":"m 390 850 q 409 903 390 884 q 463 921 428 921 q 535 850 535 921 q 463 777 535 777 q 390 850 390 777 m 159 850 q 178 903 159 884 q 231 921 197 921 q 303 850 303 921 q 231 777 303 777 q 159 850 159 777 z "},"©":{"ha":764,"x_min":73,"x_max":690,"o":"m 381 991 q 502 966 446 991 q 600 895 558 942 q 666 780 641 848 q 690 620 690 711 q 666 461 690 530 q 600 345 641 392 q 502 274 558 299 q 381 250 446 250 q 261 274 317 250 q 163 345 205 299 q 97 461 122 392 q 73 620 73 530 q 97 780 73 711 q 163 895 122 848 q 261 966 205 942 q 381 991 317 991 m 381 324 q 474 344 431 324 q 550 403 517 365 q 602 497 583 441 q 622 623 622 552 q 602 748 622 693 q 550 841 583 803 q 474 898 517 878 q 381 918 431 918 q 288 898 331 918 q 212 841 244 878 q 161 748 179 803 q 142 623 142 693 q 161 497 142 552 q 212 403 179 441 q 288 344 244 365 q 381 324 331 324 m 556 538 q 503 443 547 479 q 387 406 459 406 q 257 461 301 406 q 213 615 213 516 q 223 703 213 662 q 255 775 234 744 q 309 825 277 807 q 387 843 341 843 q 492 810 448 843 q 549 726 536 777 l 484 707 q 451 762 477 742 q 387 781 425 781 q 304 737 329 781 q 279 619 279 692 q 306 505 279 542 q 391 468 332 468 q 487 549 480 468 l 556 538 z "},"«":{"ha":764,"x_min":115,"x_max":631,"o":"m 344 80 q 223 198 285 131 q 115 339 162 266 q 224 478 163 411 q 344 597 285 545 l 388 532 q 334 470 356 498 q 295 421 311 443 q 267 378 279 398 q 245 339 255 359 q 267 300 255 319 q 295 258 279 280 q 334 208 311 235 q 388 146 356 181 l 344 80 m 587 80 q 466 198 528 131 q 358 339 405 266 q 467 478 406 411 q 587 597 528 545 l 631 532 q 577 470 600 498 q 538 421 554 443 q 510 378 522 398 q 488 339 498 359 q 510 300 498 319 q 538 258 522 280 q 577 208 554 235 q 631 146 600 181 l 587 80 z "},"¬":{"ha":764,"x_min":168,"x_max":597,"o":"m 597 162 l 505 162 l 505 301 l 168 301 l 168 382 l 597 382 l 597 162 z "},"®":{"ha":764,"x_min":81,"x_max":684,"o":"m 81 684 q 105 803 81 748 q 170 900 128 859 q 266 966 211 942 q 383 991 321 991 q 501 966 446 991 q 596 900 556 942 q 660 803 637 859 q 684 684 684 748 q 660 565 684 620 q 596 468 637 509 q 501 402 556 426 q 383 377 446 377 q 266 402 321 377 q 170 468 211 426 q 105 565 128 509 q 81 684 81 620 m 383 451 q 474 470 432 451 q 547 521 516 488 q 597 595 579 553 q 615 686 615 638 q 597 776 615 734 q 547 850 579 818 q 474 899 516 881 q 383 917 432 917 q 292 899 334 917 q 219 850 250 881 q 170 776 188 818 q 152 686 152 734 q 170 595 152 638 q 219 521 188 553 q 292 470 250 488 q 383 451 334 451 m 279 830 l 389 830 q 430 823 410 830 q 466 804 450 817 q 492 771 483 791 q 502 727 502 752 q 490 679 502 698 q 455 649 477 660 q 475 620 465 635 q 491 590 484 604 q 502 564 498 575 q 507 545 507 552 l 446 545 q 433 584 446 558 q 402 635 420 610 l 336 635 l 336 545 l 279 545 l 279 830 m 336 690 l 385 690 q 433 697 417 690 q 449 730 449 704 q 433 766 449 757 q 388 775 417 775 l 336 775 l 336 690 z "},"¯":{"ha":764,"x_min":213,"x_max":550,"o":"m 550 764 l 213 764 l 213 833 l 550 833 l 550 764 z "},"°":{"ha":764,"x_min":103,"x_max":461,"o":"m 281 574 q 213 588 245 574 q 156 626 181 602 q 117 683 132 650 q 103 751 103 715 q 117 818 103 787 q 155 872 131 848 q 211 908 178 895 q 280 921 243 921 q 350 908 317 921 q 407 871 383 895 q 446 816 432 847 q 461 750 461 785 q 446 682 461 714 q 407 626 432 650 q 351 588 383 602 q 281 574 318 574 m 281 642 q 355 671 330 642 q 380 751 380 699 q 354 831 380 803 q 281 859 329 859 q 211 831 235 859 q 186 751 186 803 q 211 671 186 699 q 281 642 235 642 z "},"±":{"ha":764,"x_min":104,"x_max":649,"o":"m 104 454 l 328 454 l 328 625 l 421 625 l 421 454 l 649 454 l 649 366 l 421 366 l 421 193 l 328 193 l 328 366 l 104 366 l 104 454 m 132 153 l 628 153 l 628 64 l 132 64 l 132 153 z "},"´":{"ha":764,"x_min":223,"x_max":542,"o":"m 542 927 l 488 1014 l 223 826 l 258 766 l 542 927 z "},"¶":{"ha":764,"x_min":80,"x_max":678,"o":"m 355 295 q 144 393 207 315 q 80 605 80 471 q 97 730 80 676 q 153 821 115 784 q 256 878 192 858 q 412 903 319 899 l 678 903 l 678 -238 l 580 -231 l 580 822 l 454 822 l 454 -238 l 355 -231 l 355 295 z "},"·":{"ha":764,"x_min":309,"x_max":454,"o":"m 309 368 q 328 421 309 403 q 382 440 347 440 q 454 368 454 440 q 382 295 454 295 q 309 368 309 295 m 309 368 q 328 421 309 403 q 382 440 347 440 q 454 368 454 440 q 382 295 454 295 q 309 368 309 295 z "},"¸":{"ha":764,"x_min":275,"x_max":596,"o":"m 431 -296 q 340 -281 375 -296 q 275 -229 306 -266 l 324 -181 q 363 -216 340 -207 q 431 -226 387 -226 q 502 -215 481 -226 q 523 -177 523 -204 q 507 -138 523 -152 q 461 -125 491 -125 q 419 -131 439 -125 q 390 -147 399 -138 l 324 -147 l 352 0 l 420 0 l 400 -84 q 427 -73 405 -79 q 475 -68 449 -68 q 564 -98 532 -68 q 596 -179 596 -127 q 554 -267 596 -237 q 431 -296 512 -296 z "},"»":{"ha":764,"x_min":133,"x_max":649,"o":"m 376 146 q 430 208 407 181 q 469 258 453 235 q 497 300 485 280 q 519 339 509 319 q 497 378 509 359 q 469 421 485 398 q 430 470 453 443 q 376 532 407 498 l 420 597 q 540 478 479 545 q 649 339 601 411 q 541 198 602 266 q 420 80 479 131 l 376 146 m 133 146 q 187 208 164 181 q 226 258 209 235 q 254 300 242 280 q 275 339 266 319 q 254 378 266 359 q 226 421 242 398 q 187 470 209 443 q 133 532 164 498 l 177 597 q 297 478 236 545 q 406 339 358 411 q 297 198 359 266 q 177 80 236 131 l 133 146 m 376 146 q 430 208 407 181 q 469 258 453 235 q 497 300 485 280 q 519 339 509 319 q 497 378 509 359 q 469 421 485 398 q 430 470 453 443 q 376 532 407 498 l 420 597 q 540 478 479 545 q 649 339 601 411 q 541 198 602 266 q 420 80 479 131 l 376 146 m 133 146 q 187 208 164 181 q 226 258 209 235 q 254 300 242 280 q 275 339 266 319 q 254 378 266 359 q 226 421 242 398 q 187 470 209 443 q 133 532 164 498 l 177 597 q 297 478 236 545 q 406 339 358 411 q 297 198 359 266 q 177 80 236 131 l 133 146 z "},"¼":{"ha":764,"x_min":47,"x_max":716,"o":"m 412 152 l 572 402 l 640 402 l 480 152 l 576 152 l 576 225 l 648 225 q 642 189 642 208 q 641 152 641 170 l 716 152 l 716 102 l 641 102 l 641 0 l 576 0 l 576 102 l 412 102 l 412 152 m 666 668 l 713 633 l 95 213 l 52 250 l 666 668 m 47 838 q 120 864 91 847 q 166 903 149 881 l 229 903 l 229 501 l 166 501 l 166 829 q 127 802 155 811 q 54 786 98 792 l 47 838 z "},"½":{"ha":764,"x_min":46,"x_max":715,"o":"m 712 645 l 94 225 l 51 262 l 664 679 l 712 645 m 164 501 l 164 829 q 126 802 154 811 q 53 786 97 792 l 46 838 q 119 864 90 847 q 164 903 148 881 l 228 903 l 228 501 l 164 501 m 640 302 q 556 356 640 356 q 496 345 523 356 q 446 304 469 334 l 397 325 q 460 383 418 360 q 554 405 502 405 q 612 397 584 405 q 660 375 639 389 q 693 342 681 361 q 705 301 705 323 q 693 258 705 279 q 663 216 682 237 q 621 175 645 196 q 573 134 597 154 q 520 91 544 111 q 476 50 497 71 l 715 50 l 715 0 l 390 0 l 390 50 q 440 94 413 73 q 495 137 468 116 q 549 179 523 159 q 595 221 575 200 q 628 262 616 242 q 640 302 640 282 z "},"¾":{"ha":764,"x_min":47,"x_max":716,"o":"m 47 572 l 86 601 q 108 579 97 588 q 131 564 118 569 q 160 557 145 559 q 198 554 176 554 q 269 567 243 554 q 294 616 294 579 q 181 694 294 694 l 153 694 l 153 740 l 181 740 q 261 759 235 740 q 287 813 287 779 q 280 843 287 831 q 259 861 272 854 q 230 870 247 868 q 197 873 214 873 q 143 865 166 873 q 109 839 120 858 l 75 873 q 123 909 88 896 q 198 921 159 921 q 255 914 227 921 q 306 892 284 906 q 341 858 328 878 q 354 813 354 838 q 335 756 354 782 q 282 716 316 730 q 340 678 316 705 q 363 615 363 650 q 350 569 363 589 q 314 535 337 549 q 259 513 291 521 q 191 506 228 506 q 104 522 137 506 q 47 572 71 538 m 412 152 l 572 402 l 640 402 l 480 152 l 576 152 l 576 225 l 648 225 q 642 189 642 208 q 641 152 641 170 l 716 152 l 716 102 l 641 102 l 641 0 l 576 0 l 576 102 l 412 102 l 412 152 m 52 250 l 666 668 l 713 633 l 95 213 l 52 250 z "},"¿":{"ha":764,"x_min":108,"x_max":652,"o":"m 206 91 q 249 -12 206 20 q 381 -44 292 -44 q 438 -38 409 -44 q 495 -21 468 -32 q 546 8 522 -10 q 584 50 569 25 l 652 -6 q 613 -60 640 -36 q 550 -100 587 -83 q 469 -124 514 -116 q 375 -133 424 -133 q 267 -120 316 -133 q 182 -79 218 -106 q 127 -10 147 -52 q 108 91 108 32 q 119 169 108 137 q 148 226 130 201 q 188 270 166 251 q 234 308 211 289 q 289 354 265 332 q 330 399 314 375 q 356 454 347 424 q 365 527 365 485 l 469 527 q 460 440 469 477 q 433 374 451 404 q 388 319 416 345 q 322 265 360 293 q 275 230 296 247 q 238 193 253 213 q 215 148 223 172 q 206 91 206 124 m 485 733 q 466 679 485 698 q 412 661 447 661 q 340 733 340 661 q 412 806 340 806 q 485 733 485 806 z "},"×":{"ha":764,"x_min":177,"x_max":587,"o":"m 324 346 l 178 491 l 235 547 l 381 403 l 528 550 l 586 493 l 438 345 l 587 196 l 530 142 l 382 289 l 235 142 l 177 199 l 324 346 z "},"Þ":{"ha":764,"x_min":110,"x_max":666,"o":"m 110 903 l 208 903 l 208 676 l 382 676 q 498 660 446 676 q 587 613 550 644 q 645 540 625 582 q 666 446 666 498 q 574 277 666 336 q 313 218 483 218 l 208 218 l 208 0 l 110 0 l 110 903 m 370 309 q 518 346 464 309 q 572 446 572 383 q 520 546 572 508 q 382 584 468 584 l 208 584 l 208 309 l 370 309 z "},"ß":{"ha":764,"x_min":133,"x_max":644,"o":"m 360 921 q 453 902 412 921 q 521 851 493 882 q 563 782 549 821 q 578 706 578 744 q 568 651 578 675 q 545 609 559 627 q 513 578 530 591 q 478 551 495 564 q 434 515 453 532 q 416 471 416 498 q 432 436 416 451 q 495 397 448 420 q 557 361 530 380 q 604 319 584 343 q 633 266 623 296 q 644 196 644 236 q 631 112 644 150 q 593 46 618 74 q 530 2 567 19 q 444 -14 493 -14 q 367 -4 406 -14 q 299 25 329 6 l 341 101 q 389 82 362 88 q 438 75 416 75 q 483 86 465 75 q 512 112 501 96 q 526 148 522 128 q 530 185 530 167 q 520 242 530 219 q 493 284 509 266 q 457 314 477 301 q 416 337 436 326 q 376 358 395 347 q 342 383 356 369 q 319 415 328 397 q 310 458 310 433 q 336 530 310 503 q 391 579 361 557 q 454 639 436 613 q 471 698 471 664 q 462 749 471 725 q 436 792 453 773 q 397 823 419 811 q 348 834 375 834 q 263 782 293 834 q 233 624 233 729 l 233 0 l 133 0 l 133 617 q 148 742 133 686 q 192 839 163 799 q 263 900 221 878 q 360 921 306 921 z "},"æ":{"ha":764,"x_min":35,"x_max":723,"o":"m 429 244 q 435 157 429 192 q 454 102 441 123 q 486 72 466 81 q 532 64 505 64 q 579 71 559 64 q 614 90 598 78 q 643 121 630 103 q 670 162 656 139 l 715 101 q 686 57 703 79 q 648 20 670 36 q 596 -7 625 3 q 528 -17 567 -17 q 432 10 465 -17 q 380 94 399 38 q 318 9 356 35 q 223 -16 279 -16 q 86 35 138 -16 q 35 171 35 86 q 57 266 35 228 q 116 328 80 304 q 199 362 153 352 q 292 372 245 372 q 317 371 306 372 q 338 369 328 370 q 334 478 338 435 q 321 546 331 521 q 292 580 310 571 q 245 589 274 589 q 170 568 200 589 q 109 495 140 547 l 50 567 q 230 678 105 678 q 324 658 285 678 q 380 603 363 638 q 432 659 396 640 q 520 678 468 678 q 675 597 626 678 q 723 341 723 515 l 723 284 l 429 284 l 429 244 m 528 595 q 453 539 476 595 q 431 361 431 484 l 620 361 q 615 470 620 426 q 598 543 609 515 q 569 583 587 571 q 528 595 552 595 m 338 284 q 319 285 328 285 q 301 285 310 285 q 175 258 214 285 q 135 171 135 230 q 160 91 135 118 q 218 65 184 65 q 286 93 252 65 q 338 177 319 122 l 338 284 z "},"ð":{"ha":764,"x_min":66,"x_max":664,"o":"m 368 597 q 477 571 431 597 q 566 495 523 544 q 550 573 565 536 q 512 644 536 610 q 458 709 488 678 q 392 767 427 741 l 258 674 l 223 734 l 322 816 q 233 865 277 845 q 153 898 189 885 l 194 973 q 272 943 216 966 q 394 878 328 920 l 500 968 l 553 881 l 470 823 q 543 751 508 791 q 606 662 579 711 q 649 556 633 613 q 664 432 664 499 l 664 295 q 647 185 664 233 q 602 103 630 138 q 541 45 574 68 q 474 8 507 22 q 413 -12 441 -6 q 368 -17 384 -17 q 245 6 301 -17 q 150 71 190 29 q 88 171 110 112 q 66 299 66 229 q 87 422 66 367 q 148 516 109 477 q 243 576 188 556 q 368 597 299 597 m 365 76 q 434 89 398 76 q 499 128 470 102 q 547 196 529 155 q 566 295 566 237 l 566 396 q 477 483 525 453 q 369 513 428 513 q 288 496 325 513 q 222 450 250 479 q 178 382 194 421 q 162 297 162 343 q 178 211 162 251 q 222 141 194 171 q 286 94 249 111 q 365 76 323 76 z "},"÷":{"ha":764,"x_min":122,"x_max":644,"o":"m 644 301 l 122 301 l 122 382 l 644 382 l 644 301 m 313 560 q 332 613 313 595 q 385 632 351 632 q 457 560 457 632 q 385 487 457 487 q 313 560 313 487 m 313 122 q 332 175 313 156 q 385 193 351 193 q 457 122 457 193 q 385 49 457 49 q 313 122 313 49 z "},"ŋ":{"ha":764,"x_min":118,"x_max":656,"o":"m 118 660 l 242 660 q 226 627 234 649 q 216 582 218 604 q 249 622 228 604 q 297 652 271 639 q 355 671 324 664 q 416 678 385 678 q 525 649 480 678 q 600 573 571 620 q 643 465 630 525 q 656 344 656 405 l 656 -81 q 641 -148 656 -117 q 601 -201 626 -178 q 544 -236 576 -223 q 476 -249 512 -249 q 406 -231 438 -249 q 339 -172 374 -213 l 389 -110 q 480 -162 427 -162 q 551 -58 551 -162 l 551 368 q 539 451 551 412 q 503 518 527 490 q 445 563 479 546 q 367 580 411 580 q 273 550 307 580 q 216 477 238 521 l 216 0 l 118 0 l 118 660 z "},"Œ":{"ha":764,"x_min":64,"x_max":676,"o":"m 64 453 q 118 800 64 679 q 301 921 172 921 q 390 903 352 921 l 676 903 l 676 804 l 487 804 q 530 682 515 752 q 549 524 544 612 l 638 524 l 638 426 l 550 426 q 485 98 544 212 l 676 98 l 676 0 l 390 0 q 310 -17 354 -17 q 128 103 193 -17 q 64 453 64 223 m 315 76 q 373 98 350 76 q 410 164 396 119 q 431 281 425 209 q 438 453 438 352 q 433 628 438 556 q 415 748 428 701 q 377 817 402 795 q 313 838 353 838 q 245 815 271 838 q 204 745 219 793 q 185 626 190 698 q 179 453 179 553 q 212 166 179 255 q 315 76 245 76 z "},"œ":{"ha":764,"x_min":37,"x_max":726,"o":"m 399 580 q 549 678 433 678 q 628 660 596 678 q 679 602 660 642 q 708 498 699 561 q 716 341 716 434 l 716 284 l 447 284 l 447 244 q 451 157 447 191 q 468 105 456 124 q 499 79 479 86 q 552 72 520 72 q 621 86 596 72 q 670 140 646 101 l 726 82 q 556 -17 681 -17 q 448 5 492 -17 q 392 67 405 28 q 320 4 360 25 q 236 -17 280 -17 q 153 7 190 -17 q 91 76 117 31 q 51 186 65 122 q 37 330 37 250 q 51 475 37 410 q 91 584 65 539 q 153 654 117 630 q 234 678 189 678 q 285 671 259 678 q 333 650 310 663 q 373 619 355 637 q 399 580 390 601 m 240 67 q 287 88 265 67 q 325 145 309 109 q 351 230 341 181 q 360 337 360 280 q 351 443 360 394 q 325 528 341 492 q 287 584 309 564 q 240 604 265 604 q 167 533 192 604 q 141 334 141 462 q 167 137 141 207 q 240 67 192 67 m 549 595 q 472 540 495 595 q 448 361 448 485 l 626 361 q 622 477 626 432 q 609 548 618 522 q 584 584 600 574 q 549 595 569 595 z "},"ȷ":{"ha":764,"x_min":103,"x_max":557,"o":"m 191 -50 q 251 -123 213 -101 q 328 -146 288 -146 q 377 -137 353 -146 q 418 -109 400 -127 q 447 -62 436 -90 q 458 2 458 -35 l 458 579 l 323 587 l 323 660 l 557 660 l 557 2 q 540 -92 557 -47 q 493 -170 523 -137 q 421 -223 463 -204 q 326 -243 378 -243 q 263 -234 295 -243 q 202 -207 231 -226 q 147 -159 172 -189 q 103 -89 122 -130 l 191 -50 z "},"ˆ":{"ha":764,"x_min":193,"x_max":582,"o":"m 340 957 l 419 957 l 582 740 l 499 740 l 381 862 l 277 740 l 193 740 l 340 957 z "},"ˇ":{"ha":764,"x_min":188,"x_max":576,"o":"m 334 756 l 413 756 l 576 973 l 493 973 l 375 851 l 271 973 l 188 973 l 334 756 z "},"˘":{"ha":764,"x_min":188,"x_max":576,"o":"m 271 904 q 302 824 271 854 q 385 794 333 794 q 465 823 436 794 q 493 904 493 852 l 576 904 q 562 833 576 866 q 521 775 547 800 q 461 737 495 751 q 385 723 426 723 q 308 738 344 723 q 245 777 272 752 q 203 834 219 801 q 188 904 188 867 l 271 904 z "},"˙":{"ha":764,"x_min":309,"x_max":454,"o":"m 309 850 q 328 903 309 884 q 382 921 347 921 q 454 850 454 921 q 382 777 454 777 q 309 850 309 777 z "},"˚":{"ha":764,"x_min":248,"x_max":516,"o":"m 382 660 q 285 696 323 660 q 248 791 248 731 q 285 885 248 850 q 382 921 323 921 q 479 885 441 921 q 516 791 516 850 q 478 696 516 731 q 382 660 440 660 m 382 712 q 433 734 414 712 q 451 791 451 757 q 433 847 451 824 q 382 869 414 869 q 332 847 351 869 q 313 791 313 824 q 332 734 313 757 q 382 712 352 712 z "},"˛":{"ha":764,"x_min":341,"x_max":545,"o":"m 545 -220 q 453 -249 498 -249 q 411 -242 431 -249 q 376 -222 391 -235 q 351 -192 360 -209 q 341 -152 341 -174 q 362 -80 341 -118 q 411 0 382 -43 l 476 0 q 432 -72 449 -38 q 416 -125 416 -105 q 434 -157 416 -148 q 469 -166 453 -166 q 501 -159 485 -166 q 529 -144 516 -153 l 545 -220 z "},"˜":{"ha":764,"x_min":127,"x_max":635,"o":"m 294 921 q 362 906 338 921 q 405 874 387 890 q 442 847 428 854 q 471 840 455 840 q 573 916 532 840 l 635 872 q 609 830 625 851 q 573 794 594 810 q 525 767 552 778 q 466 757 499 757 q 401 772 425 757 q 359 804 377 787 q 328 828 344 817 q 288 838 313 838 q 237 822 262 838 q 189 762 212 806 l 127 807 q 200 894 157 867 q 294 921 242 921 z "},"˝":{"ha":764,"x_min":200,"x_max":575,"o":"m 494 926 l 575 904 l 440 744 l 374 744 l 494 926 m 200 744 l 321 926 l 402 904 l 266 744 l 200 744 z "},"̀":{"ha":764,"x_min":222,"x_max":541,"o":"m 222 927 l 275 1014 l 541 826 l 506 766 l 222 927 z "},"́":{"ha":764,"x_min":223,"x_max":542,"o":"m 542 927 l 488 1014 l 223 826 l 258 766 l 542 927 z "},"̂":{"ha":764,"x_min":188,"x_max":576,"o":"m 334 957 l 413 957 l 576 740 l 493 740 l 375 862 l 271 740 l 188 740 l 334 957 z "},"̃":{"ha":764,"x_min":127,"x_max":635,"o":"m 294 921 q 362 906 338 921 q 405 874 387 890 q 442 847 428 854 q 471 840 455 840 q 573 916 532 840 l 635 872 q 609 830 625 851 q 573 794 594 810 q 525 767 552 778 q 466 757 499 757 q 401 772 425 757 q 359 804 377 787 q 328 828 344 817 q 288 838 313 838 q 237 822 262 838 q 189 762 212 806 l 127 807 q 200 894 157 867 q 294 921 242 921 z "},"̄":{"ha":764,"x_min":213,"x_max":550,"o":"m 550 764 l 213 764 l 213 833 l 550 833 l 550 764 z "},"̆":{"ha":764,"x_min":188,"x_max":576,"o":"m 271 904 q 302 824 271 854 q 385 794 333 794 q 465 823 436 794 q 493 904 493 852 l 576 904 q 562 833 576 866 q 521 775 547 800 q 461 737 495 751 q 385 723 426 723 q 308 738 344 723 q 245 777 272 752 q 203 834 219 801 q 188 904 188 867 l 271 904 z "},"̇":{"ha":764,"x_min":309,"x_max":454,"o":"m 309 850 q 328 903 309 884 q 382 921 347 921 q 454 850 454 921 q 382 777 454 777 q 309 850 309 777 z "},"̈":{"ha":764,"x_min":193,"x_max":569,"o":"m 425 850 q 444 903 425 884 q 498 921 463 921 q 569 850 569 921 q 498 777 569 777 q 425 850 425 777 m 193 850 q 212 903 193 884 q 266 921 231 921 q 338 850 338 921 q 266 777 338 777 q 193 850 193 777 z "},"̊":{"ha":764,"x_min":248,"x_max":516,"o":"m 382 660 q 285 696 323 660 q 248 791 248 731 q 285 885 248 850 q 382 921 323 921 q 479 885 441 921 q 516 791 516 850 q 478 696 516 731 q 382 660 440 660 m 382 712 q 433 734 414 712 q 451 791 451 757 q 433 847 451 824 q 382 869 414 869 q 332 847 351 869 q 313 791 313 824 q 332 734 313 757 q 382 712 352 712 z "},"̋":{"ha":764,"x_min":200,"x_max":575,"o":"m 494 926 l 575 904 l 440 744 l 374 744 l 494 926 m 200 744 l 321 926 l 402 904 l 266 744 l 200 744 z "},"̌":{"ha":764,"x_min":188,"x_max":576,"o":"m 334 756 l 413 756 l 576 973 l 493 973 l 375 851 l 271 973 l 188 973 l 334 756 z "},"̒":{"ha":764,"x_min":164,"x_max":296,"o":"m 164 800 q 174 850 164 819 q 198 910 184 881 q 226 964 212 940 q 249 997 241 988 l 296 983 q 291 964 295 978 q 281 930 286 949 q 270 888 275 911 q 260 845 264 866 q 280 807 275 832 q 233 741 289 750 q 216 740 227 740 q 166 787 175 740 q 164 800 164 792 z "},"̦":{"ha":764,"x_min":293,"x_max":456,"o":"m 293 -265 q 302 -247 295 -260 q 318 -215 309 -234 q 336 -176 326 -197 q 353 -135 346 -155 q 340 -95 340 -120 q 398 -37 340 -37 q 456 -95 456 -37 q 451 -122 456 -112 q 429 -169 444 -142 q 396 -220 413 -196 q 362 -263 378 -244 q 337 -287 346 -281 l 293 -265 z "},"̧":{"ha":764,"x_min":275,"x_max":596,"o":"m 431 -296 q 340 -281 375 -296 q 275 -229 306 -266 l 324 -181 q 363 -216 340 -207 q 431 -226 387 -226 q 502 -215 481 -226 q 523 -177 523 -204 q 507 -138 523 -152 q 461 -125 491 -125 q 419 -131 439 -125 q 390 -147 399 -138 l 324 -147 l 352 0 l 420 0 l 400 -84 q 427 -73 405 -79 q 475 -68 449 -68 q 564 -98 532 -68 q 596 -179 596 -127 q 554 -267 596 -237 q 431 -296 512 -296 z "},"̨":{"ha":764,"x_min":275,"x_max":479,"o":"m 479 -220 q 387 -249 432 -249 q 345 -242 365 -249 q 310 -222 325 -235 q 285 -192 294 -209 q 275 -152 275 -174 q 296 -80 275 -118 q 345 0 316 -43 l 410 0 q 366 -72 383 -38 q 350 -125 350 -105 q 368 -157 350 -148 q 403 -166 387 -166 q 435 -159 419 -166 q 463 -144 450 -153 l 479 -220 z "},"̵":{"ha":764,"x_min":139,"x_max":626,"o":"m 139 382 l 626 382 l 626 293 l 139 293 l 139 382 z "},"̶":{"ha":764,"x_min":29,"x_max":736,"o":"m 29 282 l 29 363 l 736 363 l 736 282 l 29 282 z "},"̷":{"ha":764,"x_min":118,"x_max":610,"o":"m 193 80 l 118 115 l 538 906 l 610 862 l 193 80 z "},"̸":{"ha":764,"x_min":126,"x_max":627,"o":"m 627 759 l 197 -126 l 126 -81 l 556 803 l 627 759 z "},"΄":{"ha":764,"x_min":46,"x_max":188,"o":"m 188 912 l 145 707 l 46 707 l 78 912 l 188 912 z "},"΅":{"ha":764,"x_min":112,"x_max":650,"o":"m 506 850 q 525 903 506 884 q 579 921 544 921 q 650 850 650 921 q 579 777 650 777 q 506 850 506 777 m 112 850 q 131 903 112 884 q 185 921 150 921 q 257 850 257 921 q 185 777 257 777 q 112 850 112 777 m 456 954 l 413 749 l 315 749 l 346 954 l 456 954 z "},"Α":{"ha":764,"x_min":67,"x_max":697,"o":"m 304 903 l 442 903 l 697 0 l 598 0 l 525 255 l 235 255 l 166 0 l 67 0 l 304 903 m 256 336 l 502 336 l 383 749 l 368 749 l 256 336 z "},"Β":{"ha":764,"x_min":104,"x_max":660,"o":"m 307 903 q 520 848 450 903 q 590 676 590 794 q 569 573 590 613 q 500 509 549 532 q 619 422 579 481 q 660 275 660 362 q 639 162 660 213 q 582 75 619 111 q 493 20 545 39 q 376 0 441 0 l 104 0 l 104 903 l 307 903 m 203 443 l 203 98 l 376 98 q 517 144 468 98 q 566 275 566 190 q 365 443 566 443 l 203 443 m 203 542 l 307 542 q 453 574 410 542 q 497 674 497 606 q 451 775 497 747 q 307 804 406 804 l 203 804 l 203 542 z "},"Γ":{"ha":764,"x_min":167,"x_max":583,"o":"m 572 810 l 265 810 l 265 0 l 167 0 l 167 903 l 583 903 l 572 810 z "},"Δ":{"ha":764,"x_min":63,"x_max":700,"o":"m 700 89 l 700 0 l 63 0 l 63 89 l 329 903 l 427 903 l 700 89 m 162 89 l 598 89 l 380 760 l 162 89 z "},"Ε":{"ha":764,"x_min":127,"x_max":631,"o":"m 127 0 l 127 903 l 631 903 l 631 804 l 226 804 l 226 524 l 561 524 l 561 426 l 226 426 l 226 98 l 631 98 l 631 0 l 127 0 z "},"Ζ":{"ha":764,"x_min":73,"x_max":691,"o":"m 199 93 l 691 93 l 691 0 l 73 0 l 73 93 l 543 810 l 108 810 l 108 903 l 668 903 l 668 810 l 199 93 z "},"Η":{"ha":764,"x_min":91,"x_max":675,"o":"m 91 903 l 190 903 l 190 475 l 569 475 l 569 903 l 668 903 l 668 76 q 668 37 668 57 q 675 0 669 17 l 569 0 l 569 394 l 190 394 l 190 0 l 91 0 l 91 903 z "},"Θ":{"ha":764,"x_min":60,"x_max":704,"o":"m 513 405 l 257 405 l 257 498 l 513 498 l 513 405 m 382 -17 q 245 13 306 -17 q 144 102 185 44 q 82 244 103 160 q 60 436 60 329 q 144 797 60 672 q 380 921 228 921 q 618 796 532 921 q 704 434 704 670 q 682 244 704 328 q 619 102 661 160 q 518 13 578 44 q 382 -17 458 -17 m 384 76 q 538 163 488 76 q 588 433 588 249 q 535 741 588 644 q 382 838 481 838 q 230 741 284 838 q 176 435 176 645 q 228 163 176 250 q 384 76 280 76 z "},"Ι":{"ha":764,"x_min":132,"x_max":634,"o":"m 332 81 l 332 822 l 162 822 l 162 903 l 591 903 l 591 822 l 431 822 l 431 81 l 627 81 l 627 76 q 628 37 627 57 q 634 0 628 17 l 132 0 l 132 81 l 332 81 z "},"Κ":{"ha":764,"x_min":104,"x_max":716,"o":"m 104 0 l 104 903 l 203 903 l 203 477 l 552 903 l 683 903 l 308 439 l 716 0 l 569 0 l 240 355 l 203 309 l 203 0 l 104 0 z "},"Λ":{"ha":764,"x_min":69,"x_max":696,"o":"m 324 903 l 422 903 l 696 0 l 591 0 l 375 726 l 174 0 l 69 0 l 324 903 z "},"Μ":{"ha":764,"x_min":67,"x_max":697,"o":"m 67 0 l 67 903 l 168 903 q 220 775 191 844 q 279 640 249 706 q 336 519 309 574 q 382 429 363 463 q 425 519 399 463 q 480 640 451 574 q 538 775 509 706 q 588 903 566 844 l 697 903 l 697 0 l 598 0 l 598 719 q 556 604 579 661 q 511 495 534 547 q 468 398 488 443 q 431 318 447 353 l 331 318 q 245 517 287 418 q 166 719 203 617 l 166 0 l 67 0 m 67 0 l 67 903 l 168 903 q 220 775 191 844 q 279 640 249 706 q 336 519 309 574 q 382 429 363 463 q 425 519 399 463 q 480 640 451 574 q 538 775 509 706 q 588 903 566 844 l 697 903 l 697 0 l 598 0 l 598 719 q 556 604 579 661 q 511 495 534 547 q 468 398 488 443 q 431 318 447 353 l 331 318 q 245 517 287 418 q 166 719 203 617 l 166 0 l 67 0 z "},"Ν":{"ha":764,"x_min":102,"x_max":662,"o":"m 200 719 l 200 0 l 102 0 l 102 903 l 207 903 l 564 213 l 564 903 l 662 903 l 662 0 l 557 0 l 200 719 m 200 719 l 200 0 l 102 0 l 102 903 l 207 903 l 564 213 l 564 903 l 662 903 l 662 0 l 557 0 l 200 719 z "},"Ξ":{"ha":764,"x_min":73,"x_max":691,"o":"m 691 93 l 691 0 l 73 0 l 73 93 l 691 93 m 590 398 l 174 398 l 174 487 l 590 487 l 590 398 m 108 810 l 108 903 l 668 903 l 668 810 l 108 810 z "},"Ο":{"ha":764,"x_min":60,"x_max":704,"o":"m 382 -17 q 245 13 306 -17 q 144 102 185 44 q 82 244 103 160 q 60 436 60 329 q 144 797 60 672 q 380 921 228 921 q 618 796 532 921 q 704 434 704 670 q 682 244 704 328 q 619 102 661 160 q 518 13 578 44 q 382 -17 458 -17 m 384 76 q 538 163 488 76 q 588 433 588 249 q 535 741 588 644 q 382 838 481 838 q 230 741 284 838 q 176 435 176 645 q 228 163 176 250 q 384 76 280 76 z "},"Π":{"ha":764,"x_min":91,"x_max":675,"o":"m 91 903 l 668 903 l 668 76 q 668 37 668 57 q 675 0 669 17 l 569 0 l 569 822 l 190 822 l 190 0 l 91 0 l 91 903 z "},"Ρ":{"ha":764,"x_min":110,"x_max":666,"o":"m 382 903 q 499 883 447 903 q 588 827 551 863 q 645 739 625 791 q 666 624 666 688 q 640 502 666 552 q 569 421 615 453 q 458 376 523 390 q 313 361 392 361 l 208 361 l 208 0 l 110 0 l 110 903 l 382 903 m 370 459 q 572 627 572 459 q 523 759 572 713 q 382 804 473 804 l 208 804 l 208 459 l 370 459 m 382 903 q 499 883 447 903 q 588 827 551 863 q 645 739 625 791 q 666 624 666 688 q 640 502 666 552 q 569 421 615 453 q 458 376 523 390 q 313 361 392 361 l 208 361 l 208 0 l 110 0 l 110 903 l 382 903 m 370 459 q 572 627 572 459 q 523 759 572 713 q 382 804 473 804 l 208 804 l 208 459 l 370 459 z "},"Σ":{"ha":764,"x_min":127,"x_max":631,"o":"m 127 98 l 442 455 l 127 804 l 127 903 l 631 903 l 631 804 l 249 804 l 538 501 l 538 403 l 249 98 l 631 98 l 631 0 l 127 0 l 127 98 z "},"Τ":{"ha":764,"x_min":88,"x_max":676,"o":"m 676 903 l 676 822 l 427 822 l 427 0 l 329 0 l 329 822 l 88 822 l 88 903 l 676 903 z "},"Υ":{"ha":764,"x_min":34,"x_max":729,"o":"m 138 903 l 374 490 l 625 903 l 729 903 l 421 375 l 421 0 l 323 0 l 323 375 l 34 903 l 138 903 z "},"Φ":{"ha":764,"x_min":52,"x_max":712,"o":"m 52 461 q 124 701 52 615 q 332 800 196 787 l 332 903 l 431 903 l 431 800 q 639 700 567 786 q 712 463 712 613 q 638 218 712 310 q 431 110 564 126 l 431 0 l 332 0 l 332 109 q 126 213 199 122 q 52 461 52 304 m 431 705 l 431 204 q 572 278 525 215 q 619 461 619 340 q 575 636 619 578 q 431 705 530 694 m 332 205 l 332 705 q 189 635 234 693 q 145 464 145 576 q 332 205 145 233 z "},"Χ":{"ha":764,"x_min":79,"x_max":678,"o":"m 378 350 l 189 0 l 79 0 l 324 449 l 79 903 l 184 903 l 378 547 l 573 903 l 678 903 l 433 449 l 678 0 l 568 0 l 378 350 z "},"Ψ":{"ha":764,"x_min":58,"x_max":707,"o":"m 58 677 l 58 903 l 150 903 l 150 678 q 195 514 150 569 q 333 447 240 458 l 333 903 l 432 903 l 432 447 q 570 513 525 457 q 615 677 615 568 l 615 903 l 707 903 l 707 678 q 634 450 707 534 q 432 354 561 367 l 432 0 l 333 0 l 333 354 q 131 451 204 368 q 58 677 58 535 z "},"Ω":{"ha":764,"x_min":52,"x_max":712,"o":"m 381 921 q 514 891 454 921 q 619 800 575 860 q 688 653 663 741 q 712 453 712 566 q 698 322 712 380 q 661 222 684 265 q 612 147 639 178 q 559 95 586 116 l 700 95 l 700 0 l 441 0 l 441 95 q 483 117 457 95 q 535 185 509 140 q 578 296 560 229 q 596 453 596 363 q 580 623 596 552 q 535 738 564 693 q 466 805 506 784 q 381 826 427 826 q 297 806 336 826 q 229 740 258 785 q 184 624 200 694 q 168 453 168 553 q 186 296 168 363 q 230 185 205 229 q 282 117 256 140 q 323 95 308 95 l 323 0 l 64 0 l 64 95 l 201 95 q 150 146 176 115 q 102 221 124 177 q 66 322 80 265 q 52 453 52 380 q 76 653 52 566 q 144 800 101 741 q 248 891 188 860 q 381 921 308 921 z "},"β":{"ha":764,"x_min":105,"x_max":657,"o":"m 204 46 l 204 -238 l 105 -231 l 105 667 q 125 772 105 725 q 181 852 145 819 q 267 903 216 885 q 377 921 317 921 q 553 861 490 921 q 616 693 616 800 q 608 624 616 657 q 587 564 601 591 q 553 516 573 536 q 509 486 534 497 q 568 449 541 475 q 615 389 595 424 q 646 317 634 355 q 657 238 657 278 q 635 136 657 183 q 573 55 612 89 q 480 2 534 21 q 366 -17 427 -17 q 278 -1 319 -17 q 204 46 237 16 m 378 71 q 508 112 462 71 q 553 231 553 154 q 537 317 553 278 q 492 385 521 356 q 424 429 463 413 q 337 446 384 446 l 286 446 l 286 527 l 337 527 q 472 572 422 527 q 522 693 522 617 q 481 797 522 762 q 365 833 441 833 q 245 792 286 833 q 204 667 204 750 l 204 156 q 273 93 229 116 q 378 71 317 71 z "},"γ":{"ha":764,"x_min":78,"x_max":662,"o":"m 182 660 l 385 212 q 451 329 422 275 q 502 436 480 383 q 537 542 523 488 q 558 660 551 596 l 662 660 q 634 504 654 578 q 584 359 613 431 q 518 214 556 287 q 435 58 480 140 l 435 -231 l 336 -231 l 336 58 l 78 648 l 182 660 z "},"η":{"ha":764,"x_min":86,"x_max":656,"o":"m 405 678 q 507 653 461 678 q 586 584 553 628 q 638 479 619 541 q 656 344 656 417 l 656 -231 l 551 -231 l 551 368 q 538 452 551 413 q 500 519 524 491 q 443 564 476 547 q 372 580 410 580 q 216 444 262 580 l 216 0 l 118 0 l 118 557 q 111 607 118 584 q 86 660 104 630 l 183 660 q 209 616 201 639 q 216 557 216 593 q 242 606 225 584 q 285 645 260 628 q 341 670 310 661 q 405 678 372 678 z "},"θ":{"ha":764,"x_min":93,"x_max":671,"o":"m 93 451 q 111 641 93 554 q 164 789 128 727 q 255 887 200 852 q 381 921 309 921 q 507 886 453 921 q 598 788 561 851 q 653 638 634 725 q 671 450 671 552 q 653 264 671 350 q 599 116 635 178 q 508 18 563 53 q 381 -17 454 -17 q 254 18 308 -17 q 164 116 200 53 q 111 264 128 178 q 93 451 93 350 m 561 486 q 548 634 559 567 q 515 748 537 700 q 460 821 493 795 q 382 847 427 847 q 304 822 337 847 q 250 751 272 797 q 217 637 228 704 q 204 486 206 569 l 561 486 m 204 394 q 217 262 206 322 q 250 160 228 203 q 304 93 272 117 q 383 69 337 69 q 461 93 428 69 q 514 158 493 116 q 547 260 536 200 q 560 394 558 321 l 204 394 z "},"ι":{"ha":764,"x_min":185,"x_max":516,"o":"m 419 660 l 419 235 q 441 135 419 174 q 516 88 463 97 l 492 0 q 362 74 403 19 q 321 228 321 130 l 321 579 l 185 587 l 185 660 l 419 660 z "},"κ":{"ha":764,"x_min":130,"x_max":712,"o":"m 674 660 l 216 251 l 132 311 l 536 660 l 674 660 m 712 0 l 559 0 l 160 390 l 310 390 l 712 0 m 132 660 l 130 660 l 256 660 q 239 625 248 648 q 230 579 230 602 l 230 0 l 132 0 l 132 660 z "},"λ":{"ha":764,"x_min":93,"x_max":694,"o":"m 93 0 l 326 561 q 300 626 313 595 q 275 685 287 656 q 222 771 249 742 q 164 811 196 801 l 204 903 q 292 842 252 888 q 366 714 331 796 q 470 470 421 583 q 562 266 520 358 q 638 108 604 175 q 694 0 671 41 l 581 0 q 541 80 564 32 q 491 186 517 128 q 435 309 464 244 q 378 440 406 374 l 196 0 l 93 0 z "},"µ":{"ha":764,"x_min":89,"x_max":686,"o":"m 89 -238 l 89 660 l 188 660 l 188 206 q 217 143 198 169 q 260 101 236 117 q 311 77 284 84 q 368 69 339 69 q 416 75 395 69 q 453 93 436 81 q 483 123 469 105 q 512 162 498 140 l 512 660 l 610 660 l 610 223 q 611 142 610 174 q 620 91 612 110 q 643 64 627 72 q 686 57 659 57 l 666 -17 q 625 -14 648 -17 q 580 -2 602 -12 q 541 25 559 8 q 516 71 523 43 q 438 6 486 30 q 337 -17 389 -17 q 255 -1 293 -17 q 188 44 218 15 l 188 -231 l 89 -238 z "},"ν":{"ha":764,"x_min":78,"x_max":650,"o":"m 650 660 q 572 330 633 494 q 421 0 512 166 l 323 0 l 78 648 l 170 660 l 374 154 q 491 407 449 281 q 546 660 532 532 l 650 660 z "},"ο":{"ha":764,"x_min":78,"x_max":686,"o":"m 381 -17 q 256 6 311 -17 q 160 75 200 30 q 99 183 120 119 q 78 328 78 248 q 98 471 78 406 q 159 582 119 536 q 253 653 198 628 q 378 678 309 678 q 506 653 449 678 q 602 581 563 627 q 664 470 642 535 q 686 326 686 405 q 664 183 686 247 q 602 75 642 119 q 506 6 563 30 q 381 -17 450 -17 m 384 67 q 524 134 473 67 q 574 326 574 200 q 524 524 574 451 q 382 597 473 597 q 240 525 291 597 q 190 329 190 453 q 242 135 190 203 q 384 67 294 67 z "},"π":{"ha":764,"x_min":65,"x_max":699,"o":"m 65 660 l 699 660 l 688 579 l 595 579 l 595 223 q 597 168 595 193 q 608 124 598 144 q 638 93 618 105 q 692 76 657 81 l 668 -12 q 538 63 579 7 q 497 216 497 118 l 497 579 l 257 579 l 257 0 l 162 0 l 162 579 l 65 579 l 65 660 z "},"ρ":{"ha":764,"x_min":93,"x_max":682,"o":"m 93 -238 l 93 348 q 108 495 93 433 q 159 598 124 557 q 250 659 193 639 q 389 678 307 678 q 605 592 529 678 q 682 348 682 506 q 660 199 682 266 q 598 84 638 132 q 502 10 558 36 q 377 -16 446 -16 q 191 50 266 -16 l 191 -231 l 93 -238 m 191 179 q 259 102 214 126 q 377 78 303 78 q 460 98 422 78 q 525 153 498 118 q 568 238 553 189 q 583 347 583 288 q 569 448 583 403 q 530 525 556 493 q 469 574 505 557 q 389 591 433 591 q 237 531 282 591 q 191 348 191 471 l 191 179 z "},"σ":{"ha":764,"x_min":78,"x_max":709,"o":"m 78 337 q 98 479 78 416 q 157 587 119 543 q 249 655 196 631 q 369 678 303 678 l 709 678 l 700 586 l 582 586 q 642 479 620 542 q 663 337 663 416 q 641 192 663 257 q 580 80 619 127 q 488 8 542 34 q 369 -17 434 -17 q 252 8 306 -17 q 159 80 198 34 q 99 192 120 126 q 78 337 78 257 m 372 75 q 500 143 453 75 q 547 337 547 211 q 502 523 547 459 q 372 586 456 586 q 240 523 287 586 q 193 338 193 461 q 241 144 193 213 q 372 75 289 75 z "},"τ":{"ha":764,"x_min":123,"x_max":641,"o":"m 123 660 l 641 660 l 630 579 l 420 579 l 420 223 q 422 168 420 193 q 433 124 424 144 q 463 93 443 105 q 517 76 483 81 l 493 -12 q 363 63 404 7 q 322 216 322 118 l 322 579 l 123 579 l 123 660 z "},"υ":{"ha":764,"x_min":113,"x_max":650,"o":"m 559 660 q 650 250 650 410 q 396 -17 650 -17 q 188 55 263 -17 q 113 271 113 127 l 113 661 l 219 661 l 219 247 q 264 126 219 170 q 406 82 309 82 q 521 116 485 82 q 558 229 558 149 q 534 398 558 296 q 462 645 510 499 l 559 660 z "},"φ":{"ha":764,"x_min":57,"x_max":697,"o":"m 57 343 q 71 510 57 427 q 112 660 86 594 l 216 660 q 171 502 186 583 q 155 343 155 421 q 198 147 155 213 q 324 78 241 81 l 324 413 q 371 611 324 544 q 507 678 418 678 q 653 587 609 678 q 697 319 697 497 q 629 67 697 148 q 422 -15 561 -15 l 422 -238 l 324 -231 l 324 -15 q 124 74 191 -15 q 57 343 57 163 m 422 413 l 422 78 q 511 87 477 78 q 564 124 545 97 q 591 198 583 152 q 598 317 598 244 q 595 431 598 382 q 581 513 591 480 q 553 563 571 546 q 506 580 535 580 q 440 535 457 580 q 422 413 422 491 z "},"ψ":{"ha":764,"x_min":59,"x_max":705,"o":"m 59 660 l 157 660 l 157 434 q 167 284 157 347 q 197 178 176 220 q 249 113 218 135 q 326 83 281 90 l 326 660 l 425 660 l 425 86 q 565 192 521 105 q 610 447 610 279 q 596 660 610 541 l 694 660 q 705 454 705 545 q 638 115 705 227 q 425 -14 571 2 l 425 -231 l 326 -231 l 326 -16 q 204 17 255 -10 q 121 100 153 45 q 74 236 89 154 q 59 433 59 318 l 59 660 z "},"–":{"ha":764,"x_min":115,"x_max":650,"o":"m 644 301 l 115 301 q 121 338 120 318 q 122 377 122 358 l 122 382 l 650 382 q 644 345 645 365 q 644 306 644 325 l 644 301 z "},"—":{"ha":764,"x_min":29,"x_max":736,"o":"m 736 301 l 29 301 l 29 382 l 736 382 l 736 301 z "},"‘":{"ha":764,"x_min":309,"x_max":477,"o":"m 314 692 q 331 755 318 720 q 360 823 344 791 q 392 882 376 856 q 417 917 407 907 l 477 898 q 469 874 475 892 q 456 832 463 856 q 442 780 449 808 q 431 727 435 752 q 455 678 450 712 q 396 595 468 608 q 386 594 390 594 q 377 594 382 594 q 313 654 323 594 q 314 692 309 678 z "},"’":{"ha":764,"x_min":287,"x_max":455,"o":"m 333 770 q 309 818 315 786 q 319 874 303 852 q 368 902 334 896 q 378 903 374 903 q 387 903 382 903 q 451 843 441 903 q 450 804 455 821 q 433 742 446 777 q 404 674 420 707 q 372 615 388 641 q 347 580 356 589 l 287 598 q 295 622 289 604 q 308 664 301 640 q 322 716 315 689 q 333 770 329 744 z "},"‚":{"ha":764,"x_min":273,"x_max":477,"o":"m 348 5 q 332 56 332 23 q 351 109 332 90 q 405 127 370 127 q 477 56 477 127 q 460 -4 477 32 q 420 -77 443 -41 q 371 -144 396 -113 q 329 -185 346 -175 l 273 -157 q 285 -135 277 -152 q 305 -95 294 -118 q 328 -46 316 -73 q 348 5 339 -20 z "},"“":{"ha":764,"x_min":205,"x_max":569,"o":"m 406 692 q 424 755 411 720 q 453 823 436 791 q 484 882 469 856 q 509 917 500 907 l 569 898 q 561 874 567 892 q 549 832 556 856 q 535 780 542 808 q 523 727 528 752 q 547 678 543 712 q 488 595 560 608 q 479 594 483 594 q 470 594 475 594 q 405 654 416 594 q 406 692 402 678 m 209 692 q 227 755 214 720 q 256 823 240 791 q 288 882 272 856 q 313 917 303 907 l 373 898 q 365 874 370 892 q 352 832 359 856 q 338 780 345 808 q 326 727 331 752 q 351 678 346 712 q 292 595 363 608 q 282 594 286 594 q 273 594 278 594 q 208 654 219 594 q 209 692 205 678 z "},"”":{"ha":764,"x_min":194,"x_max":559,"o":"m 438 770 q 413 818 419 786 q 423 874 407 852 q 472 902 439 896 q 482 903 478 903 q 491 903 486 903 q 556 843 545 903 q 554 804 559 821 q 537 742 550 777 q 508 674 524 707 q 476 615 492 641 q 451 580 461 589 l 391 598 q 399 622 394 604 q 412 664 405 640 q 426 716 419 689 q 438 770 433 744 m 241 770 q 216 818 222 786 q 226 874 211 852 q 275 902 242 896 q 285 903 281 903 q 294 903 289 903 q 359 843 348 903 q 358 804 362 821 q 340 742 353 777 q 311 674 328 707 q 280 615 295 641 q 255 580 264 589 l 194 598 q 203 622 197 604 q 215 664 208 640 q 229 716 222 689 q 241 770 236 744 z "},"„":{"ha":764,"x_min":194,"x_max":559,"o":"m 438 2 q 413 51 419 19 q 423 106 407 84 q 472 134 439 128 q 482 135 478 135 q 491 135 486 135 q 556 75 545 135 q 554 37 559 51 q 537 -26 550 9 q 508 -94 524 -61 q 476 -153 492 -127 q 451 -187 461 -178 l 391 -169 q 399 -145 394 -163 q 412 -103 405 -127 q 426 -51 419 -79 q 438 2 433 -23 m 241 2 q 216 51 222 19 q 226 106 211 84 q 275 134 242 128 q 285 135 281 135 q 294 135 289 135 q 359 75 348 135 q 358 37 362 51 q 340 -26 353 9 q 311 -94 328 -61 q 280 -153 295 -127 q 255 -187 264 -178 l 194 -169 q 203 -145 197 -163 q 215 -103 208 -127 q 229 -51 222 -79 q 241 2 236 -23 z "},"†":{"ha":764,"x_min":166,"x_max":605,"o":"m 434 563 l 434 0 l 330 0 l 330 563 l 166 563 l 166 660 l 330 660 l 330 903 l 434 903 l 434 660 l 605 660 l 605 563 l 434 563 z "},"‡":{"ha":764,"x_min":166,"x_max":605,"o":"m 166 347 l 330 347 l 330 563 l 166 563 l 166 660 l 330 660 l 330 903 l 434 903 l 434 660 l 605 660 l 605 563 l 434 563 l 434 347 l 605 347 l 605 250 l 434 250 l 434 0 l 330 0 l 330 250 l 166 250 l 166 347 z "},"•":{"ha":764,"x_min":266,"x_max":483,"o":"m 266 366 q 295 446 266 418 q 375 473 323 473 q 455 446 427 473 q 483 366 483 418 q 455 285 483 313 q 375 257 427 257 q 266 366 266 257 z "},"…":{"ha":764,"x_min":89,"x_max":674,"o":"m 89 56 q 108 109 89 90 q 162 127 127 127 q 234 56 234 127 q 162 -17 234 -17 q 89 56 89 -17 m 89 56 q 108 109 89 90 q 162 127 127 127 q 234 56 234 127 q 162 -17 234 -17 q 89 56 89 -17 m 529 56 q 548 109 529 90 q 602 127 567 127 q 674 56 674 127 q 602 -17 674 -17 q 529 56 529 -17 m 529 56 q 548 109 529 90 q 602 127 567 127 q 674 56 674 127 q 602 -17 674 -17 q 529 56 529 -17 m 309 56 q 328 109 309 90 q 382 127 347 127 q 454 56 454 127 q 382 -17 454 -17 q 309 56 309 -17 m 309 56 q 328 109 309 90 q 382 127 347 127 q 454 56 454 127 q 382 -17 454 -17 q 309 56 309 -17 z "},"‰":{"ha":764,"x_min":32,"x_max":728,"o":"m 700 750 l 152 353 l 81 398 l 628 794 l 700 750 m 199 -15 q 133 -2 163 -15 q 80 34 102 10 q 45 88 58 57 q 32 156 32 119 q 45 223 32 193 q 79 275 57 253 q 131 308 101 296 q 199 321 162 321 q 267 308 236 321 q 320 275 297 296 q 355 223 343 253 q 367 156 367 193 q 354 89 367 120 q 319 34 341 57 q 266 -2 296 12 q 199 -15 235 -15 m 201 51 q 266 75 247 51 q 286 156 286 100 q 266 237 286 213 q 199 260 247 260 q 135 237 154 260 q 116 157 116 214 q 135 75 116 100 q 201 51 155 51 m 200 586 q 134 598 164 586 q 81 634 103 611 q 46 689 59 657 q 34 757 34 720 q 46 824 34 794 q 80 876 58 854 q 133 909 102 897 q 200 921 163 921 q 268 909 237 921 q 321 876 299 897 q 356 824 344 854 q 368 757 368 794 q 355 689 368 721 q 320 635 343 657 q 267 599 297 612 q 200 586 236 586 m 203 652 q 267 676 248 652 q 287 757 287 700 q 267 837 287 814 q 200 861 248 861 q 136 838 155 861 q 117 758 117 815 q 137 676 117 700 q 203 652 156 652 m 560 -15 q 494 -2 524 -15 q 441 34 463 10 q 406 88 419 57 q 394 156 394 119 q 406 223 394 193 q 440 275 418 253 q 492 308 462 296 q 560 321 523 321 q 628 308 597 321 q 681 275 659 296 q 716 223 704 253 q 728 156 728 193 q 715 89 728 120 q 680 34 703 57 q 627 -2 657 12 q 560 -15 596 -15 m 563 51 q 627 75 608 51 q 647 156 647 100 q 627 237 647 213 q 560 260 608 260 q 496 237 515 260 q 477 157 477 214 q 497 75 477 100 q 563 51 516 51 z "},"‹":{"ha":764,"x_min":220,"x_max":493,"o":"m 449 80 q 329 198 390 131 q 220 339 267 266 q 329 478 269 411 q 449 597 390 545 l 493 532 q 439 470 462 498 q 400 421 417 443 q 372 378 384 398 q 351 339 360 359 q 372 300 360 319 q 400 258 384 280 q 439 208 417 235 q 493 146 462 181 l 449 80 z "},"›":{"ha":764,"x_min":271,"x_max":544,"o":"m 315 80 q 435 198 374 131 q 544 339 497 266 q 435 478 495 411 q 315 597 374 545 l 271 532 q 325 470 302 498 q 363 421 347 443 q 392 378 380 398 q 413 339 404 359 q 392 300 404 319 q 363 258 380 280 q 325 208 347 235 q 271 146 302 181 l 315 80 z "},"⁄":{"ha":764,"x_min":35,"x_max":730,"o":"m 730 529 l 82 102 l 35 157 l 683 575 l 730 529 z "},"€":{"ha":764,"x_min":28,"x_max":704,"o":"m 35 370 l 87 370 q 85 401 86 385 q 84 433 84 417 q 84 460 84 447 q 86 486 84 473 l 28 486 l 35 567 l 95 567 q 136 712 108 647 q 204 824 164 778 q 295 896 244 870 q 404 921 345 921 q 494 906 450 921 q 575 864 538 890 q 638 803 611 838 q 677 727 666 767 l 568 696 q 545 748 560 723 q 507 790 529 772 q 459 818 485 808 q 404 829 433 829 q 274 759 326 829 q 204 567 222 690 l 471 567 l 464 486 l 196 486 q 194 461 194 473 q 194 436 194 449 q 195 403 194 419 q 197 370 196 387 l 471 370 l 464 289 l 207 289 q 277 130 227 184 q 404 75 326 75 q 470 86 439 75 q 528 115 502 97 q 570 157 553 133 q 591 207 587 182 l 704 192 q 668 112 696 150 q 600 45 640 74 q 508 -1 559 16 q 402 -17 457 -17 q 291 4 341 -17 q 202 65 241 25 q 137 162 163 105 q 97 289 110 219 l 28 289 l 35 370 z "},"™":{"ha":764,"x_min":29,"x_max":730,"o":"m 29 841 l 29 903 l 425 903 q 486 767 454 830 q 541 663 517 704 q 594 767 563 704 q 652 903 625 830 l 730 903 l 730 394 l 657 394 l 657 778 l 574 586 l 513 586 l 424 778 l 424 394 l 351 394 l 351 841 l 228 841 l 228 394 l 155 394 l 155 841 l 29 841 z "},"⅛":{"ha":764,"x_min":47,"x_max":716,"o":"m 404 86 q 430 152 404 123 q 503 199 456 181 q 447 243 468 214 q 427 308 427 272 q 462 379 427 353 q 558 405 497 405 q 653 378 617 405 q 689 308 689 351 q 670 244 689 273 q 617 199 650 215 q 716 87 716 163 q 672 12 716 42 q 558 -17 627 -17 q 496 -10 524 -17 q 447 12 468 -2 q 416 45 427 25 q 404 86 404 64 m 666 679 l 713 645 l 95 225 l 52 262 l 666 679 m 47 838 q 120 864 91 847 q 166 903 149 881 l 229 903 l 229 501 l 166 501 l 166 829 q 127 802 155 811 q 54 786 98 792 l 47 838 m 458 87 q 558 29 458 29 q 634 45 606 29 q 661 87 661 60 q 634 137 661 113 q 558 177 606 161 q 484 137 510 161 q 458 87 458 113 m 561 222 l 559 221 q 635 306 635 255 q 614 346 635 330 q 560 362 593 362 q 503 345 525 362 q 480 303 480 329 q 501 259 480 280 q 561 222 522 237 m 559 177 l 557 177 l 559 177 z "},"⅜":{"ha":764,"x_min":47,"x_max":716,"o":"m 404 86 q 430 152 404 123 q 503 199 456 181 q 447 243 468 214 q 427 308 427 272 q 462 379 427 353 q 558 405 497 405 q 653 378 617 405 q 689 308 689 351 q 670 244 689 273 q 617 199 650 215 q 716 87 716 163 q 672 12 716 42 q 558 -17 627 -17 q 496 -10 524 -17 q 447 12 468 -2 q 416 45 427 25 q 404 86 404 64 m 47 572 l 86 601 q 108 579 97 588 q 131 564 118 569 q 160 557 145 559 q 198 554 176 554 q 269 567 243 554 q 294 616 294 579 q 181 694 294 694 l 153 694 l 153 740 l 181 740 q 261 759 235 740 q 287 813 287 779 q 280 843 287 831 q 259 861 272 854 q 230 870 247 868 q 197 873 214 873 q 143 865 166 873 q 109 839 120 858 l 75 873 q 123 909 88 896 q 198 921 159 921 q 255 914 227 921 q 306 892 284 906 q 341 858 328 878 q 354 813 354 838 q 335 756 354 782 q 282 716 316 730 q 340 678 316 705 q 363 615 363 650 q 350 569 363 589 q 314 535 337 549 q 259 513 291 521 q 191 506 228 506 q 104 522 137 506 q 47 572 71 538 m 52 262 l 666 679 l 713 645 l 95 225 l 52 262 m 458 87 q 558 29 458 29 q 634 45 606 29 q 661 87 661 60 q 634 137 661 113 q 558 177 606 161 q 484 137 510 161 q 458 87 458 113 m 480 303 q 501 259 480 280 q 561 222 522 237 l 559 221 q 635 306 635 255 q 614 346 635 330 q 560 362 593 362 q 503 345 525 362 q 480 303 480 329 m 559 177 l 557 177 l 559 177 z "},"⅝":{"ha":764,"x_min":47,"x_max":716,"o":"m 503 199 q 447 243 468 214 q 427 308 427 272 q 462 379 427 353 q 558 405 497 405 q 653 378 617 405 q 689 308 689 351 q 670 244 689 273 q 617 199 650 215 q 716 87 716 163 q 672 12 716 42 q 558 -17 627 -17 q 496 -10 524 -17 q 447 12 468 -2 q 416 45 427 25 q 404 86 404 64 q 430 152 404 123 q 503 199 456 181 m 82 578 q 131 547 105 557 q 188 538 156 538 q 264 561 236 538 q 292 638 292 583 q 269 709 292 686 q 205 733 247 733 q 152 722 175 733 q 119 698 130 712 l 59 698 l 80 903 l 329 903 l 329 852 l 141 852 l 127 744 q 158 770 137 758 q 212 781 179 781 q 268 770 242 781 q 314 740 294 759 q 345 694 333 721 q 356 638 356 668 q 343 576 356 604 q 306 529 329 549 q 252 498 282 509 q 189 487 222 487 q 47 542 115 487 l 82 578 m 666 668 l 713 633 l 95 213 l 52 250 l 666 668 m 458 87 q 558 29 458 29 q 634 45 606 29 q 661 87 661 60 q 634 137 661 113 q 558 177 606 161 q 484 137 510 161 q 458 87 458 113 m 561 222 l 559 221 q 635 306 635 255 q 614 346 635 330 q 560 362 593 362 q 503 345 525 362 q 480 303 480 329 q 501 259 480 280 q 561 222 522 237 m 559 177 l 557 177 l 559 177 z "},"⅞":{"ha":764,"x_min":47,"x_max":716,"o":"m 503 199 q 447 243 468 214 q 427 308 427 272 q 462 379 427 353 q 558 405 497 405 q 653 378 617 405 q 689 308 689 351 q 670 244 689 273 q 617 199 650 215 q 716 87 716 163 q 672 12 716 42 q 558 -17 627 -17 q 496 -10 524 -17 q 447 12 468 -2 q 416 45 427 25 q 404 86 404 64 q 430 152 404 123 q 503 199 456 181 m 47 851 l 47 903 l 366 903 l 366 851 q 336 812 352 831 q 302 773 319 793 q 237 690 264 727 q 194 622 211 654 q 171 560 178 589 q 164 501 164 531 l 93 501 q 105 580 93 543 q 137 651 117 617 q 181 716 156 685 q 231 778 206 748 q 291 851 263 815 l 47 851 m 666 691 l 713 656 l 95 236 l 52 273 l 666 691 m 458 87 q 558 29 458 29 q 634 45 606 29 q 661 87 661 60 q 634 137 661 113 q 558 177 606 161 q 484 137 510 161 q 458 87 458 113 m 561 222 l 559 221 q 635 306 635 255 q 614 346 635 330 q 560 362 593 362 q 503 345 525 362 q 480 303 480 329 q 501 259 480 280 q 561 222 522 237 m 559 177 l 557 177 l 559 177 z "},"←":{"ha":764,"x_min":30,"x_max":704,"o":"m 348 610 l 398 541 l 185 367 l 704 367 l 704 286 l 189 286 l 398 113 l 345 46 l 65 287 q 41 307 52 297 q 30 328 30 317 q 41 348 30 338 q 65 369 52 359 l 348 610 z "},"↑":{"ha":764,"x_min":100,"x_max":663,"o":"m 100 360 l 340 644 q 361 667 351 656 q 382 678 372 678 q 402 667 392 678 q 422 644 412 656 l 663 363 l 596 310 l 424 520 l 424 0 l 343 0 l 343 523 l 169 310 l 100 360 z "},"→":{"ha":764,"x_min":60,"x_max":734,"o":"m 416 610 l 699 369 q 723 348 712 359 q 734 328 734 338 q 723 307 734 317 q 699 287 712 297 l 419 46 l 366 113 l 575 286 l 60 286 l 60 367 l 579 367 l 366 541 l 416 610 z "},"↓":{"ha":764,"x_min":100,"x_max":663,"o":"m 100 301 l 169 351 l 343 138 l 343 661 l 424 661 l 424 141 l 596 351 l 663 297 l 422 17 q 402 -6 412 5 q 382 -17 392 -17 q 361 -6 372 -17 q 340 17 351 5 l 100 301 z "},"↔":{"ha":764,"x_min":19,"x_max":745,"o":"m 267 564 l 317 494 l 177 367 l 587 367 l 447 494 l 497 564 l 711 369 q 734 348 723 358 q 745 328 745 338 q 734 308 745 317 q 711 287 723 299 l 500 93 l 447 160 l 587 286 l 177 286 l 317 160 l 264 93 l 53 287 q 30 308 41 299 q 19 328 19 317 q 30 348 19 338 q 53 369 41 358 l 267 564 z "},"↕":{"ha":764,"x_min":123,"x_max":640,"o":"m 340 887 q 362 910 352 899 q 382 921 372 921 q 402 910 392 921 q 422 887 411 899 l 640 653 l 573 600 l 424 766 l 424 -94 l 573 73 l 640 20 l 422 -214 q 402 -238 411 -227 q 382 -249 392 -249 q 362 -238 372 -249 q 340 -214 352 -227 l 123 23 l 192 73 l 343 -94 l 343 766 l 192 600 l 123 649 l 340 887 z "},"↖":{"ha":764,"x_min":132,"x_max":644,"o":"m 163 153 l 133 523 q 133 540 133 532 q 132 554 132 547 q 137 574 132 569 q 151 580 141 579 q 172 581 161 581 l 191 581 l 560 553 l 550 469 l 280 495 l 644 131 l 587 73 l 220 440 l 248 167 l 163 153 z "},"↗":{"ha":764,"x_min":120,"x_max":633,"o":"m 601 153 l 516 167 l 544 440 l 177 73 l 120 131 l 484 495 l 214 469 l 204 553 l 573 581 l 591 581 q 613 580 603 581 q 627 574 623 579 q 633 554 633 569 q 633 540 633 547 q 631 523 632 532 l 601 153 z "},"↘":{"ha":764,"x_min":120,"x_max":633,"o":"m 601 501 l 631 131 q 633 115 632 123 q 633 101 633 106 q 627 80 633 86 q 613 74 623 75 q 591 73 603 73 l 573 73 l 204 101 l 214 185 l 484 159 l 120 523 l 177 581 l 544 214 l 516 487 l 601 501 z "},"↙":{"ha":764,"x_min":132,"x_max":644,"o":"m 163 501 l 248 487 l 220 214 l 587 581 l 644 523 l 280 159 l 550 185 l 560 101 l 191 73 l 172 73 q 151 74 161 73 q 137 80 141 75 q 132 101 132 86 q 133 115 132 106 q 133 131 133 123 l 163 501 z "},"∂":{"ha":764,"x_min":66,"x_max":664,"o":"m 368 597 q 477 571 431 597 q 566 495 523 544 q 542 591 564 545 q 487 677 521 637 q 411 753 454 718 q 322 816 368 788 q 233 865 277 844 q 153 898 189 885 l 194 973 q 253 951 212 968 q 347 906 295 935 q 455 834 399 876 q 558 733 512 792 q 634 600 604 675 q 664 432 664 525 l 664 295 q 647 185 664 233 q 602 103 630 138 q 541 45 574 68 q 474 8 507 22 q 413 -12 441 -6 q 368 -17 384 -17 q 245 6 301 -17 q 150 71 190 29 q 88 171 110 112 q 66 299 66 229 q 87 422 66 367 q 148 516 109 477 q 243 576 188 556 q 368 597 299 597 m 162 297 q 178 211 162 251 q 222 141 194 171 q 286 94 249 111 q 365 76 323 76 q 434 89 398 76 q 499 128 470 102 q 547 196 529 155 q 566 295 566 237 l 566 396 q 477 483 525 453 q 369 513 428 513 q 288 496 325 513 q 222 450 250 479 q 178 382 194 421 q 162 297 162 343 z "},"∅":{"ha":764,"x_min":49,"x_max":715,"o":"m 49 10 l 130 103 q 71 203 93 147 q 50 322 50 259 q 76 453 50 391 q 148 561 103 515 q 254 633 193 606 q 383 660 315 660 q 482 644 435 660 q 569 602 529 628 l 650 693 l 713 637 l 632 546 q 693 444 671 501 q 715 322 715 387 q 689 190 715 252 q 618 83 663 128 q 513 10 573 37 q 383 -16 453 -16 q 278 1 328 -16 q 188 49 228 19 l 106 -42 l 49 10 m 243 111 q 308 80 273 91 q 383 69 344 69 q 483 89 436 69 q 564 144 529 109 q 618 225 598 178 q 638 324 638 271 q 622 413 638 372 q 579 487 606 454 l 243 111 m 516 542 q 454 569 487 559 q 383 579 420 579 q 284 559 330 579 q 203 505 237 539 q 148 424 168 470 q 128 324 128 377 q 143 238 128 279 q 184 164 157 198 l 516 542 z "},"∏":{"ha":764,"x_min":75,"x_max":690,"o":"m 75 845 l 690 845 l 690 764 l 596 764 l 596 -146 l 498 -139 l 498 764 l 272 764 l 272 -146 l 174 -139 l 174 764 l 75 764 l 75 845 z "},"∑":{"ha":764,"x_min":135,"x_max":628,"o":"m 135 93 l 471 446 l 135 810 l 135 903 l 628 903 l 628 810 l 275 810 l 567 484 l 567 412 l 275 93 l 628 93 l 628 0 l 135 0 l 135 93 z "},"−":{"ha":764,"x_min":156,"x_max":609,"o":"m 609 301 l 156 301 l 156 394 l 609 394 l 609 301 z "},"√":{"ha":764,"x_min":68,"x_max":685,"o":"m 172 493 l 281 120 l 461 903 l 685 903 l 685 807 l 534 807 l 346 0 l 219 0 l 68 493 l 172 493 z "},"∞":{"ha":764,"x_min":15,"x_max":749,"o":"m 749 345 q 736 256 749 296 q 701 187 723 215 q 646 143 678 159 q 575 127 615 127 q 465 161 516 127 q 382 258 414 196 q 298 161 348 196 q 189 127 248 127 q 117 143 149 127 q 62 187 84 159 q 27 255 39 215 q 15 343 15 294 q 28 432 15 391 q 64 501 41 472 q 119 546 87 530 q 190 563 152 563 q 300 526 249 563 q 382 427 351 490 q 464 526 413 490 q 575 563 515 563 q 646 547 615 563 q 701 502 678 531 q 736 433 723 473 q 749 345 749 394 m 191 208 q 282 240 247 208 q 351 345 318 271 q 318 411 334 384 q 284 454 302 438 q 243 477 265 470 q 194 484 221 484 q 115 453 138 484 q 93 346 93 422 q 115 239 93 270 q 191 208 137 208 m 574 208 q 649 239 627 208 q 671 346 671 270 q 649 453 671 422 q 569 484 627 484 q 520 477 542 484 q 480 454 499 470 q 446 411 462 438 q 413 345 429 384 q 481 240 444 271 q 574 208 519 208 z "},"∫":{"ha":764,"x_min":133,"x_max":603,"o":"m 313 -75 q 285 -128 307 -105 q 235 -167 263 -150 q 179 -191 207 -183 q 133 -199 150 -199 l 133 -112 q 166 -106 148 -112 q 198 -90 183 -101 q 226 -65 214 -80 q 242 -30 238 -50 l 403 727 q 432 781 410 759 q 483 815 454 802 q 545 834 513 829 q 603 840 576 840 l 603 765 q 565 760 586 765 q 527 746 545 756 q 494 720 508 736 q 475 683 479 705 l 313 -75 z "},"≈":{"ha":764,"x_min":110,"x_max":653,"o":"m 300 539 q 365 524 341 539 q 407 493 389 509 q 439 469 424 479 q 477 458 454 458 q 590 534 532 458 l 653 490 q 620 448 638 469 q 582 412 603 428 q 534 385 560 396 q 475 375 507 375 q 408 390 432 375 q 365 422 384 405 q 327 449 341 442 q 296 456 313 456 q 229 435 265 456 q 171 380 193 413 l 110 425 q 193 508 141 477 q 300 539 244 539 m 300 319 q 365 304 341 319 q 407 273 389 289 q 439 249 424 259 q 477 238 454 238 q 590 314 532 238 l 653 270 q 620 229 638 249 q 582 192 603 208 q 534 166 560 176 q 475 155 507 155 q 408 170 432 155 q 365 203 384 185 q 327 229 341 222 q 296 236 313 236 q 230 215 266 236 q 171 160 194 194 l 110 205 q 192 288 140 257 q 300 319 243 319 z "},"≠":{"ha":764,"x_min":148,"x_max":615,"o":"m 447 435 l 377 284 l 615 284 l 608 191 l 334 191 l 274 58 l 218 79 l 269 191 l 148 191 l 155 284 l 310 284 l 380 435 l 148 435 l 155 528 l 421 528 l 478 653 l 536 632 l 488 528 l 615 528 l 608 435 l 447 435 z "},"≤":{"ha":764,"x_min":117,"x_max":649,"o":"m 606 681 l 649 606 l 222 417 l 649 227 l 603 155 l 117 375 l 117 459 l 606 681 m 120 116 l 642 116 l 642 35 l 120 35 l 120 116 z "},"≥":{"ha":764,"x_min":116,"x_max":647,"o":"m 644 35 l 122 35 l 122 116 l 644 116 l 644 35 m 647 459 l 647 375 l 161 155 l 116 227 l 542 417 l 116 606 l 157 681 l 647 459 z "},"▀":{"ha":764,"x_min":0,"x_max":764,"o":"m 764 1346 l 764 520 l 0 520 l 0 1346 l 764 1346 z "},"▁":{"ha":764,"x_min":0,"x_max":764,"o":"m 764 -307 l 0 -307 l 0 -101 l 764 -101 l 764 -307 z "},"▂":{"ha":764,"x_min":0,"x_max":764,"o":"m 764 -307 l 0 -307 l 0 106 l 764 106 l 764 -307 z "},"▃":{"ha":764,"x_min":0,"x_max":764,"o":"m 764 -307 l 0 -307 l 0 313 l 764 313 l 764 -307 z "},"▄":{"ha":764,"x_min":0,"x_max":764,"o":"m 764 -307 l 0 -307 l 0 520 l 764 520 l 764 -307 z "},"▅":{"ha":764,"x_min":0,"x_max":764,"o":"m 764 -307 l 0 -307 l 0 726 l 764 726 l 764 -307 z "},"▆":{"ha":764,"x_min":0,"x_max":764,"o":"m 764 -307 l 0 -307 l 0 933 l 764 933 l 764 -307 z "},"▇":{"ha":764,"x_min":0,"x_max":764,"o":"m 764 -307 l 0 -307 l 0 1139 l 764 1139 l 764 -307 z "},"█":{"ha":764,"x_min":0,"x_max":764,"o":"m 764 1346 l 764 -307 l 0 -307 l 0 1346 l 764 1346 z "},"▉":{"ha":764,"x_min":0,"x_max":669,"o":"m 669 1346 l 669 -307 l 0 -307 l 0 1346 l 669 1346 z "},"▊":{"ha":764,"x_min":0,"x_max":573,"o":"m 573 1346 l 573 -307 l 0 -307 l 0 1346 l 573 1346 z "},"▋":{"ha":764,"x_min":0,"x_max":478,"o":"m 478 1346 l 478 -307 l 0 -307 l 0 1346 l 478 1346 z "},"▌":{"ha":764,"x_min":0,"x_max":382,"o":"m 382 1346 l 382 -307 l 0 -307 l 0 1346 l 382 1346 z "},"▍":{"ha":764,"x_min":0,"x_max":287,"o":"m 287 1346 l 287 -307 l 0 -307 l 0 1346 l 287 1346 z "},"▎":{"ha":764,"x_min":0,"x_max":191,"o":"m 191 1346 l 191 -307 l 0 -307 l 0 1346 l 191 1346 z "},"▏":{"ha":764,"x_min":0,"x_max":96,"o":"m 96 1346 l 96 -307 l 0 -307 l 0 1346 l 96 1346 z "},"▐":{"ha":764,"x_min":382,"x_max":764,"o":"m 764 1346 l 764 -307 l 382 -307 l 382 1346 l 764 1346 z "},"░":{"ha":764,"x_min":12,"x_max":752,"o":"m 688 262 l 752 262 l 752 51 l 688 51 l 688 262 m 76 988 l 76 778 l 12 778 l 12 988 l 76 988 m 521 591 l 521 802 l 586 802 l 586 591 l 521 591 m 76 620 l 76 410 l 12 410 l 12 620 l 76 620 m 521 -134 l 521 76 l 586 76 l 586 -134 l 521 -134 m 688 -96 l 752 -96 l 752 -307 l 688 -307 l 688 -96 m 76 1346 l 76 1135 l 12 1135 l 12 1346 l 76 1346 m 688 1135 l 688 1346 l 752 1346 l 752 1135 l 688 1135 m 76 -96 l 76 -307 l 12 -307 l 12 -96 l 76 -96 m 688 988 l 752 988 l 752 778 l 688 778 l 688 988 m 688 620 l 752 620 l 752 410 l 688 410 l 688 620 m 586 1160 l 586 949 l 521 949 l 521 1160 l 586 1160 m 12 51 l 12 262 l 76 262 l 76 51 l 12 51 m 243 1160 l 243 949 l 178 949 l 178 1160 l 243 1160 m 178 -134 l 178 76 l 243 76 l 243 -134 l 178 -134 m 243 434 l 243 223 l 178 223 l 178 434 l 243 434 m 414 1346 l 414 1135 l 350 1135 l 350 1346 l 414 1346 m 414 -96 l 414 -307 l 350 -307 l 350 -96 l 414 -96 m 350 778 l 350 988 l 414 988 l 414 778 l 350 778 m 243 802 l 243 591 l 178 591 l 178 802 l 243 802 m 586 434 l 586 223 l 521 223 l 521 434 l 586 434 m 414 262 l 414 51 l 350 51 l 350 262 l 414 262 m 350 410 l 350 620 l 414 620 l 414 410 l 350 410 m 521 1346 l 586 1346 l 586 1280 l 521 1280 l 521 1346 m 521 -241 l 586 -241 l 586 -307 l 521 -307 l 521 -241 m 243 -241 l 243 -307 l 178 -307 l 178 -241 l 243 -241 m 178 1346 l 243 1346 l 243 1280 l 178 1280 l 178 1346 z "},"▒":{"ha":764,"x_min":31,"x_max":734,"o":"m 31 1051 l 31 1235 l 88 1235 l 88 1051 l 31 1051 m 31 743 l 31 938 l 88 938 l 88 743 l 31 743 m 31 116 l 31 310 l 88 310 l 88 116 l 31 116 m 31 -182 l 31 2 l 88 2 l 88 -182 l 31 -182 m 31 424 l 31 620 l 88 620 l 88 424 l 31 424 m 469 1051 l 469 1235 l 525 1235 l 525 1051 l 469 1051 m 469 743 l 469 938 l 525 938 l 525 743 l 469 743 m 469 116 l 469 310 l 525 310 l 525 116 l 469 116 m 469 -182 l 469 2 l 525 2 l 525 -182 l 469 -182 m 469 424 l 469 620 l 525 620 l 525 424 l 469 424 m 359 891 l 359 1073 l 416 1073 l 416 891 l 359 891 m 359 582 l 359 764 l 416 764 l 416 582 l 359 582 m 359 -45 l 359 137 l 416 137 l 416 -45 l 359 -45 m 359 264 l 359 447 l 416 447 l 416 264 l 359 264 m 130 891 l 130 1073 l 186 1073 l 186 891 l 130 891 m 130 582 l 130 764 l 186 764 l 186 582 l 130 582 m 130 -45 l 130 137 l 186 137 l 186 -45 l 130 -45 m 130 264 l 130 447 l 186 447 l 186 264 l 130 264 m 245 1051 l 245 1235 l 300 1235 l 300 1051 l 245 1051 m 245 743 l 245 938 l 300 938 l 300 743 l 245 743 m 245 116 l 245 310 l 300 310 l 300 116 l 245 116 m 245 -182 l 245 2 l 300 2 l 300 -182 l 245 -182 m 245 424 l 245 620 l 300 620 l 300 424 l 245 424 m 567 891 l 567 1073 l 624 1073 l 624 891 l 567 891 m 567 582 l 567 764 l 624 764 l 624 582 l 567 582 m 567 -45 l 567 137 l 624 137 l 624 -45 l 567 -45 m 567 264 l 567 447 l 624 447 l 624 264 l 567 264 m 677 1051 l 677 1235 l 734 1235 l 734 1051 l 677 1051 m 677 743 l 677 938 l 734 938 l 734 743 l 677 743 m 677 116 l 677 310 l 734 310 l 734 116 l 677 116 m 677 -182 l 677 2 l 734 2 l 734 -182 l 677 -182 m 677 424 l 677 620 l 734 620 l 734 424 l 677 424 m 130 -307 l 130 -181 l 186 -181 l 186 -307 l 130 -307 m 359 -307 l 359 -181 l 416 -181 l 416 -307 l 359 -307 m 567 -307 l 567 -181 l 624 -181 l 624 -307 l 567 -307 m 130 1208 l 130 1346 l 186 1346 l 186 1208 l 130 1208 m 359 1208 l 359 1346 l 416 1346 l 416 1208 l 359 1208 m 567 1208 l 567 1346 l 624 1346 l 624 1208 l 567 1208 z "},"▓":{"ha":764,"x_min":15,"x_max":750,"o":"m 15 1037 l 15 1235 l 61 1235 l 61 1037 l 15 1037 m 15 729 l 15 938 l 61 938 l 61 729 l 15 729 m 15 102 l 15 310 l 61 310 l 61 102 l 15 102 m 15 -209 l 15 2 l 61 2 l 61 -209 l 15 -209 m 15 410 l 15 620 l 61 620 l 61 410 l 15 410 m 361 1037 l 361 1235 l 407 1235 l 407 1037 l 361 1037 m 361 729 l 361 938 l 407 938 l 407 729 l 361 729 m 361 102 l 361 310 l 407 310 l 407 102 l 361 102 m 361 -209 l 361 2 l 407 2 l 407 -209 l 361 -209 m 361 410 l 361 620 l 407 620 l 407 410 l 361 410 m 274 877 l 274 1101 l 321 1101 l 321 877 l 274 877 m 274 568 l 274 791 l 321 791 l 321 568 l 274 568 m 274 -59 l 274 164 l 321 164 l 321 -59 l 274 -59 m 274 250 l 274 475 l 321 475 l 321 250 l 274 250 m 97 877 l 97 1101 l 144 1101 l 144 877 l 97 877 m 97 568 l 97 791 l 144 791 l 144 568 l 97 568 m 97 -59 l 97 164 l 144 164 l 144 -59 l 97 -59 m 97 250 l 97 475 l 144 475 l 144 250 l 97 250 m 184 1037 l 184 1235 l 229 1235 l 229 1037 l 184 1037 m 184 729 l 184 938 l 229 938 l 229 729 l 184 729 m 184 102 l 184 310 l 229 310 l 229 102 l 184 102 m 184 -209 l 184 2 l 229 2 l 229 -209 l 184 -209 m 184 410 l 184 620 l 229 620 l 229 410 l 184 410 m 439 877 l 439 1101 l 485 1101 l 485 877 l 439 877 m 439 568 l 439 791 l 485 791 l 485 568 l 439 568 m 439 -59 l 439 164 l 485 164 l 485 -59 l 439 -59 m 439 250 l 439 475 l 485 475 l 485 250 l 439 250 m 525 1037 l 525 1235 l 572 1235 l 572 1037 l 525 1037 m 525 729 l 525 938 l 572 938 l 572 729 l 525 729 m 525 102 l 525 310 l 572 310 l 572 102 l 525 102 m 525 -209 l 525 2 l 572 2 l 572 -209 l 525 -209 m 525 410 l 525 620 l 572 620 l 572 410 l 525 410 m 97 -307 l 97 -153 l 144 -153 l 144 -307 l 97 -307 m 274 -307 l 274 -153 l 321 -153 l 321 -307 l 274 -307 m 439 -307 l 439 -153 l 485 -153 l 485 -307 l 439 -307 m 97 1181 l 97 1346 l 144 1346 l 144 1181 l 97 1181 m 274 1181 l 274 1346 l 321 1346 l 321 1181 l 274 1181 m 439 1181 l 439 1346 l 485 1346 l 485 1181 l 439 1181 m 617 877 l 617 1101 l 663 1101 l 663 877 l 617 877 m 617 568 l 617 791 l 663 791 l 663 568 l 617 568 m 617 -59 l 617 164 l 663 164 l 663 -59 l 617 -59 m 617 250 l 617 475 l 663 475 l 663 250 l 617 250 m 704 1037 l 704 1235 l 750 1235 l 750 1037 l 704 1037 m 704 729 l 704 938 l 750 938 l 750 729 l 704 729 m 704 102 l 704 310 l 750 310 l 750 102 l 704 102 m 704 -209 l 704 2 l 750 2 l 750 -209 l 704 -209 m 704 410 l 704 620 l 750 620 l 750 410 l 704 410 m 617 -307 l 617 -153 l 663 -153 l 663 -307 l 617 -307 m 617 1181 l 617 1346 l 663 1346 l 663 1181 l 617 1181 z "},"▔":{"ha":764,"x_min":0,"x_max":764,"o":"m 764 909 l 0 909 l 0 1115 l 764 1115 l 764 909 z "},"▕":{"ha":764,"x_min":668,"x_max":764,"o":"m 764 1346 l 764 -307 l 668 -307 l 668 1346 l 764 1346 z "},"▖":{"ha":764,"x_min":0,"x_max":382,"o":"m 382 -307 l 0 -307 l 0 520 l 382 520 l 382 -307 z "},"▗":{"ha":764,"x_min":382,"x_max":764,"o":"m 764 -307 l 382 -307 l 382 520 l 764 520 l 764 -307 z "},"▘":{"ha":764,"x_min":0,"x_max":382,"o":"m 382 520 l 0 520 l 0 1346 l 382 1346 l 382 520 z "},"▙":{"ha":764,"x_min":0,"x_max":764,"o":"m 382 -307 l 0 -307 l 0 520 l 382 520 l 382 -307 m 382 520 l 0 520 l 0 1346 l 382 1346 l 382 520 m 764 -307 l 382 -307 l 382 520 l 764 520 l 764 -307 z "},"▚":{"ha":764,"x_min":0,"x_max":764,"o":"m 382 520 l 0 520 l 0 1346 l 382 1346 l 382 520 m 764 -307 l 382 -307 l 382 520 l 764 520 l 764 -307 z "},"▛":{"ha":764,"x_min":0,"x_max":764,"o":"m 382 520 l 0 520 l 0 1346 l 382 1346 l 382 520 m 382 520 l 382 1346 l 764 1346 l 764 520 l 382 520 m 382 -307 l 0 -307 l 0 520 l 382 520 l 382 -307 z "},"▜":{"ha":764,"x_min":0,"x_max":764,"o":"m 382 520 l 0 520 l 0 1346 l 382 1346 l 382 520 m 382 520 l 382 1346 l 764 1346 l 764 520 l 382 520 m 764 -307 l 382 -307 l 382 520 l 764 520 l 764 -307 z "},"▝":{"ha":764,"x_min":382,"x_max":764,"o":"m 382 520 l 382 1346 l 764 1346 l 764 520 l 382 520 z "},"▞":{"ha":764,"x_min":0,"x_max":764,"o":"m 382 -307 l 0 -307 l 0 520 l 382 520 l 382 -307 m 382 520 l 382 1346 l 764 1346 l 764 520 l 382 520 z "},"▟":{"ha":764,"x_min":0,"x_max":764,"o":"m 382 -307 l 0 -307 l 0 520 l 382 520 l 382 -307 m 764 -307 l 382 -307 l 382 520 l 764 520 l 764 -307 m 382 520 l 382 1346 l 764 1346 l 764 520 l 382 520 z "},"▲":{"ha":764,"x_min":23,"x_max":741,"o":"m 741 0 l 23 0 l 382 678 l 741 0 z "},"△":{"ha":764,"x_min":23,"x_max":741,"o":"m 741 0 l 23 0 l 382 678 l 741 0 m 649 56 l 382 563 l 115 56 l 649 56 z "},"◇":{"ha":764,"x_min":35,"x_max":718,"o":"m 376 666 l 718 324 l 376 -17 l 35 324 l 376 666 m 376 582 l 118 324 l 376 66 l 634 324 l 376 582 z "},"◊":{"ha":764,"x_min":89,"x_max":674,"o":"m 421 810 l 674 405 l 421 0 l 323 0 l 89 405 l 323 810 l 421 810 m 374 125 l 558 405 l 374 685 l 205 405 l 374 125 z "},"○":{"ha":764,"x_min":50,"x_max":383,"o":"m 383 579 q 284 558 330 579 q 203 503 237 538 q 148 422 168 469 q 128 322 128 375 l 50 322 q 76 453 50 391 q 148 561 103 515 q 254 633 193 606 q 383 660 315 660 l 383 579 m 383 579 q 483 558 436 579 q 564 503 529 538 q 618 422 598 469 q 638 322 638 375 l 716 322 q 690 453 716 391 q 618 561 663 515 q 512 633 573 606 q 383 660 451 660 l 383 579 m 383 65 q 284 85 330 65 q 203 140 237 105 q 148 222 168 175 q 128 322 128 269 l 50 322 q 76 190 50 252 q 148 83 103 129 q 254 10 193 37 q 383 -16 315 -16 l 383 65 m 383 65 q 483 85 436 65 q 564 140 529 105 q 618 222 598 175 q 638 322 638 269 l 716 322 q 690 190 716 252 q 618 83 663 129 q 512 10 573 37 q 383 -16 451 -16 l 383 65 z "},"◎":{"ha":764,"x_min":50,"x_max":716,"o":"m 383 660 q 512 633 451 660 q 618 561 573 606 q 690 453 663 515 q 716 322 716 391 q 690 190 716 252 q 618 83 663 128 q 512 10 573 37 q 383 -16 451 -16 q 254 10 315 -16 q 148 83 193 37 q 76 190 103 128 q 50 322 50 252 q 76 453 50 391 q 148 561 103 515 q 254 633 193 606 q 383 660 315 660 m 383 65 q 483 85 436 65 q 564 140 529 105 q 618 222 598 175 q 638 322 638 269 q 618 422 638 375 q 564 503 598 469 q 483 558 529 538 q 383 579 436 579 q 284 558 330 579 q 203 503 237 538 q 148 422 168 469 q 128 322 128 375 q 148 222 128 269 q 203 140 168 175 q 284 85 237 105 q 383 65 330 65 m 383 521 q 459 505 424 521 q 521 462 494 490 q 563 399 547 435 q 579 322 579 363 q 563 244 579 280 q 521 181 547 208 q 459 138 494 154 q 383 123 424 123 q 307 138 343 123 q 245 181 272 154 q 203 244 219 208 q 188 322 188 280 q 203 399 188 363 q 245 462 219 435 q 307 505 272 490 q 383 521 343 521 m 383 196 q 508 322 508 196 q 383 448 508 448 q 258 322 258 448 q 383 196 258 196 z "},"●":{"ha":764,"x_min":50,"x_max":716,"o":"m 383 660 q 512 633 451 660 q 618 561 573 606 q 690 453 663 515 q 716 322 716 391 q 690 190 716 252 q 618 83 663 128 q 512 10 573 37 q 383 -16 451 -16 q 254 10 315 -16 q 148 83 193 37 q 76 190 103 128 q 50 322 50 252 q 76 453 50 391 q 148 561 103 515 q 254 633 193 606 q 383 660 315 660 z "},"◐":{"ha":764,"x_min":50,"x_max":383,"o":"m 383 -16 q 254 10 315 -16 q 148 83 193 37 q 76 190 103 128 q 50 322 50 252 q 76 453 50 391 q 148 561 103 515 q 254 633 193 606 q 383 660 315 660 l 383 -16 m 383 579 q 483 558 436 579 q 564 503 529 538 q 618 422 598 469 q 638 322 638 375 l 716 322 q 690 453 716 391 q 618 561 663 515 q 512 633 573 606 q 383 660 451 660 l 383 579 m 383 65 q 483 85 436 65 q 564 140 529 105 q 618 222 598 175 q 638 322 638 269 l 716 322 q 690 190 716 252 q 618 83 663 129 q 512 10 573 37 q 383 -16 451 -16 l 383 65 z "},"◑":{"ha":764,"x_min":50,"x_max":716,"o":"m 50 322 q 76 453 50 391 q 148 561 103 515 q 254 633 193 606 q 383 660 315 660 q 512 633 451 660 q 618 561 573 606 q 690 453 663 515 q 716 322 716 391 q 690 190 716 252 q 618 83 663 128 q 512 10 573 37 q 383 -16 451 -16 q 254 10 315 -16 q 148 83 193 37 q 76 190 103 128 q 50 322 50 252 m 383 65 l 383 579 q 284 558 330 579 q 203 503 237 538 q 148 422 168 469 q 128 322 128 375 q 148 222 128 269 q 203 140 168 175 q 284 85 237 105 q 383 65 330 65 z "},"◒":{"ha":764,"x_min":50,"x_max":716,"o":"m 50 322 q 76 453 50 391 q 148 561 103 515 q 254 633 193 606 q 383 660 315 660 q 512 633 451 660 q 618 561 573 606 q 690 453 663 515 q 716 322 716 391 q 690 190 716 252 q 618 83 663 128 q 512 10 573 37 q 383 -16 451 -16 q 254 10 315 -16 q 148 83 193 37 q 76 190 103 128 q 50 322 50 252 m 128 322 l 638 322 q 618 422 638 375 q 564 503 598 469 q 483 558 529 538 q 383 579 436 579 q 284 558 330 579 q 203 503 237 538 q 148 422 168 469 q 128 322 128 375 z "},"◓":{"ha":764,"x_min":50,"x_max":716,"o":"m 383 660 q 512 633 451 660 q 618 561 573 606 q 690 453 663 515 q 716 322 716 391 q 690 190 716 252 q 618 83 663 128 q 512 10 573 37 q 383 -16 451 -16 q 254 10 315 -16 q 148 83 193 37 q 76 190 103 128 q 50 322 50 252 q 76 453 50 391 q 148 561 103 515 q 254 633 193 606 q 383 660 315 660 m 638 322 l 128 322 q 148 222 128 269 q 203 140 168 175 q 284 85 237 105 q 383 65 330 65 q 483 85 436 65 q 564 140 529 105 q 618 222 598 175 q 638 322 638 269 z "},"◔":{"ha":764,"x_min":50,"x_max":716,"o":"m 50 322 q 76 453 50 391 q 148 561 103 515 q 254 633 193 606 q 383 660 315 660 q 512 633 451 660 q 618 561 573 606 q 690 453 663 515 q 716 322 716 391 q 690 190 716 252 q 618 83 663 128 q 512 10 573 37 q 383 -16 451 -16 q 254 10 315 -16 q 148 83 193 37 q 76 190 103 128 q 50 322 50 252 m 128 322 q 148 222 128 269 q 203 140 168 175 q 284 85 237 105 q 383 65 330 65 q 483 85 436 65 q 564 140 529 105 q 618 222 598 175 q 638 322 638 269 l 383 322 l 383 579 q 284 558 330 579 q 203 503 237 538 q 148 422 168 469 q 128 322 128 375 z "},"◕":{"ha":764,"x_min":50,"x_max":716,"o":"m 50 322 q 76 453 50 391 q 148 561 103 515 q 254 633 193 606 q 383 660 315 660 q 512 633 451 660 q 618 561 573 606 q 690 453 663 515 q 716 322 716 391 q 690 190 716 252 q 618 83 663 128 q 512 10 573 37 q 383 -16 451 -16 q 254 10 315 -16 q 148 83 193 37 q 76 190 103 128 q 50 322 50 252 m 383 322 l 383 579 q 284 558 330 579 q 203 503 237 538 q 148 422 168 469 q 128 322 128 375 l 383 322 z "},"◖":{"ha":764,"x_min":50,"x_max":383,"o":"m 383 -16 q 254 10 315 -16 q 148 83 193 37 q 76 190 103 128 q 50 322 50 252 q 76 453 50 391 q 148 561 103 515 q 254 633 193 606 q 383 660 315 660 l 383 -16 z "},"◗":{"ha":764,"x_min":383,"x_max":716,"o":"m 383 -16 q 512 10 451 -16 q 618 83 573 37 q 690 190 663 128 q 716 322 716 252 q 690 453 716 391 q 618 561 663 515 q 512 633 573 606 q 383 660 451 660 l 383 -16 z "},"◜":{"ha":764,"x_min":50,"x_max":383,"o":"m 383 579 q 284 558 330 579 q 203 503 237 538 q 148 422 168 469 q 128 322 128 375 l 50 322 q 76 453 50 391 q 148 561 103 515 q 254 633 193 606 q 383 660 315 660 l 383 579 z "},"◝":{"ha":764,"x_min":383,"x_max":716,"o":"m 383 579 q 483 558 436 579 q 564 503 529 538 q 618 422 598 469 q 638 322 638 375 l 716 322 q 690 453 716 391 q 618 561 663 515 q 512 633 573 606 q 383 660 451 660 l 383 579 z "},"◞":{"ha":764,"x_min":383,"x_max":716,"o":"m 383 65 q 483 85 436 65 q 564 140 529 105 q 618 222 598 175 q 638 322 638 269 l 716 322 q 690 190 716 252 q 618 83 663 129 q 512 10 573 37 q 383 -16 451 -16 l 383 65 m 383 65 q 483 85 436 65 q 564 140 529 105 q 618 222 598 175 q 638 322 638 269 l 716 322 q 690 190 716 252 q 618 83 663 129 q 512 10 573 37 q 383 -16 451 -16 l 383 65 z "},"◟":{"ha":764,"x_min":50,"x_max":383,"o":"m 383 -16 q 254 10 315 -16 q 148 83 193 37 q 76 190 103 128 q 50 322 50 252 l 128 322 q 148 222 128 269 q 203 140 168 175 q 284 85 237 105 q 383 65 330 65 l 383 -16 m 383 -16 q 254 10 315 -16 q 148 83 193 37 q 76 190 103 128 q 50 322 50 252 l 128 322 q 148 222 128 269 q 203 140 168 175 q 284 85 237 105 q 383 65 330 65 l 383 -16 m 383 -16 q 254 10 315 -16 q 148 83 193 37 q 76 190 103 128 q 50 322 50 252 l 128 322 q 148 222 128 269 q 203 140 168 175 q 284 85 237 105 q 383 65 330 65 l 383 -16 m 383 -16 q 254 10 315 -16 q 148 83 193 37 q 76 190 103 128 q 50 322 50 252 l 128 322 q 148 222 128 269 q 203 140 168 175 q 284 85 237 105 q 383 65 330 65 l 383 -16 z "},"◠":{"ha":764,"x_min":50,"x_max":383,"o":"m 383 579 q 284 558 330 579 q 203 503 237 538 q 148 422 168 469 q 128 322 128 375 l 50 322 q 76 453 50 391 q 148 561 103 515 q 254 633 193 606 q 383 660 315 660 l 383 579 m 383 579 q 483 558 436 579 q 564 503 529 538 q 618 422 598 469 q 638 322 638 375 l 716 322 q 690 453 716 391 q 618 561 663 515 q 512 633 573 606 q 383 660 451 660 l 383 579 m 383 579 q 483 558 436 579 q 564 503 529 538 q 618 422 598 469 q 638 322 638 375 l 716 322 q 690 453 716 391 q 618 561 663 515 q 512 633 573 606 q 383 660 451 660 l 383 579 z "},"◡":{"ha":764,"x_min":50,"x_max":716,"o":"m 128 322 q 148 222 128 269 q 203 140 168 175 q 284 85 237 105 q 383 65 330 65 q 483 85 436 65 q 564 140 529 105 q 618 222 598 175 q 638 322 638 269 l 716 322 q 690 190 716 252 q 618 83 663 128 q 512 10 573 37 q 383 -16 451 -16 q 254 10 315 -16 q 148 83 193 37 q 76 190 103 128 q 50 322 50 252 l 128 322 z "},"":{"ha":764,"x_min":94,"x_max":700,"o":"m 95 -307 l 95 58 q 109 187 95 134 q 146 275 123 240 q 198 335 169 311 q 258 378 228 359 q 334 434 302 409 q 388 490 367 459 q 420 560 410 520 q 431 659 431 600 l 431 1032 l 307 1032 l 503 1263 l 700 1032 l 575 1032 l 575 620 q 560 494 575 545 q 521 406 545 442 q 467 346 497 370 q 407 301 438 322 q 350 259 377 280 q 303 211 323 238 q 270 146 282 183 q 258 58 258 110 l 258 -307 l 95 -307 m 258 1346 l 258 531 l 94 411 l 94 1346 l 258 1346 z "},"":{"ha":764,"x_min":179,"x_max":586,"o":"m 313 310 l 527 -104 l 527 310 l 586 310 l 586 -231 l 523 -231 l 309 200 l 309 -231 l 250 -231 l 250 310 l 313 310 m 179 903 l 245 903 l 245 421 l 491 421 l 491 361 l 179 361 l 179 903 z "},"":{"ha":764,"x_min":153,"x_max":611,"o":"m 231 0 q 153 80 153 0 l 153 469 q 221 554 153 554 l 221 727 q 232 795 221 763 q 264 852 243 828 q 314 891 285 876 q 382 905 344 905 q 450 891 420 905 q 500 852 479 876 q 532 795 521 828 q 543 727 543 763 l 543 554 q 611 469 611 554 l 611 80 q 531 0 611 0 l 231 0 m 380 832 q 343 823 358 832 q 318 800 328 815 q 303 766 308 785 q 299 727 299 747 l 299 554 l 465 554 l 465 727 q 461 765 465 747 q 446 799 456 784 q 419 823 435 814 q 380 832 403 832 m 413 316 q 451 376 451 336 q 432 428 451 407 q 382 449 412 449 q 332 428 353 449 q 311 375 311 406 q 350 316 311 336 l 350 133 l 413 133 l 413 316 z "},"":{"ha":764,"x_min":0,"x_max":623,"o":"m 623 521 l 0 -307 l 0 1346 l 623 521 z "},"":{"ha":764,"x_min":8,"x_max":686,"o":"m 63 1329 l 686 517 l 63 -296 l 8 -231 l 581 517 l 8 1265 l 63 1329 z "},"":{"ha":764,"x_min":141,"x_max":764,"o":"m 141 562 l 764 -307 l 764 1428 l 141 562 z "},"":{"ha":764,"x_min":78,"x_max":756,"o":"m 701 1410 l 78 558 l 701 -296 l 756 -228 l 183 558 l 756 1343 l 701 1410 z "},"Æ":{"ha":764,"x_min":67,"x_max":676,"o":"m 67 0 l 247 903 l 671 903 l 671 804 l 385 804 l 454 524 l 638 524 l 638 426 l 477 426 l 557 98 l 676 98 l 676 0 l 483 0 l 425 255 l 211 255 l 166 0 l 67 0 m 407 336 l 314 749 l 299 749 l 226 336 l 407 336 z "},"ı":{"ha":764,"x_min":131,"x_max":633,"o":"m 131 81 l 337 81 l 337 579 l 201 587 l 201 660 l 432 660 l 432 81 l 626 81 l 626 76 q 627 37 626 57 q 633 0 627 17 l 131 0 l 131 81 z "},"À":{"ha":764,"x_min":67,"x_max":697,"o":"m 304 903 l 442 903 l 697 0 l 598 0 l 525 255 l 235 255 l 166 0 l 67 0 l 304 903 m 256 336 l 502 336 l 383 749 l 368 749 l 256 336 m 214 1170 l 267 1257 l 532 1069 l 498 1009 l 214 1170 z "},"Á":{"ha":764,"x_min":67,"x_max":697,"o":"m 304 903 l 442 903 l 697 0 l 598 0 l 525 255 l 235 255 l 166 0 l 67 0 l 304 903 m 256 336 l 502 336 l 383 749 l 368 749 l 256 336 m 532 1170 l 479 1257 l 214 1069 l 249 1009 l 532 1170 z "},"Â":{"ha":764,"x_min":67,"x_max":697,"o":"m 304 903 l 442 903 l 697 0 l 598 0 l 525 255 l 235 255 l 166 0 l 67 0 l 304 903 m 256 336 l 502 336 l 383 749 l 368 749 l 256 336 m 336 1225 l 414 1225 l 578 1007 l 494 1007 l 376 1130 l 272 1007 l 189 1007 l 336 1225 z "},"Ã":{"ha":764,"x_min":67,"x_max":697,"o":"m 304 903 l 442 903 l 697 0 l 598 0 l 525 255 l 235 255 l 166 0 l 67 0 l 304 903 m 256 336 l 502 336 l 383 749 l 368 749 l 256 336 m 286 1164 q 354 1149 330 1164 q 397 1117 378 1133 q 433 1090 420 1097 q 463 1083 447 1083 q 565 1159 524 1083 l 627 1115 q 601 1073 617 1094 q 565 1037 586 1053 q 517 1010 544 1021 q 458 1000 491 1000 q 393 1015 417 1000 q 351 1047 369 1030 q 320 1071 336 1060 q 280 1081 304 1081 q 229 1065 253 1081 q 181 1005 204 1049 l 119 1050 q 192 1137 149 1110 q 286 1164 234 1164 z "},"Ä":{"ha":764,"x_min":67,"x_max":697,"o":"m 304 903 l 442 903 l 697 0 l 598 0 l 525 255 l 235 255 l 166 0 l 67 0 l 304 903 m 256 336 l 502 336 l 383 749 l 368 749 l 256 336 m 417 1080 q 436 1133 417 1115 q 490 1152 455 1152 q 561 1080 561 1152 q 490 1007 561 1007 q 417 1080 417 1007 m 185 1080 q 204 1133 185 1115 q 258 1152 223 1152 q 330 1080 330 1152 q 258 1007 330 1007 q 185 1080 185 1007 z "},"Å":{"ha":764,"x_min":67,"x_max":697,"o":"m 304 903 l 442 903 l 697 0 l 598 0 l 525 255 l 235 255 l 166 0 l 67 0 l 304 903 m 256 336 l 502 336 l 383 749 l 368 749 l 256 336 m 374 892 q 277 928 315 892 q 240 1023 240 964 q 277 1118 240 1082 q 374 1154 315 1154 q 470 1118 433 1154 q 508 1023 508 1082 q 470 928 508 964 q 374 892 432 892 m 374 944 q 425 967 406 944 q 443 1023 443 990 q 425 1079 443 1057 q 374 1102 406 1102 q 323 1079 343 1102 q 304 1023 304 1057 q 324 967 304 990 q 374 944 344 944 z "},"Ç":{"ha":764,"x_min":60,"x_max":692,"o":"m 692 192 q 655 112 684 150 q 582 45 625 74 q 487 -1 539 16 q 378 -17 434 -17 q 244 15 303 -17 q 144 106 185 47 q 82 248 103 166 q 60 433 60 331 q 84 630 60 541 q 150 785 108 720 q 252 885 193 850 q 381 921 310 921 q 473 906 427 921 q 557 864 519 890 q 625 803 596 838 q 666 727 654 767 l 557 696 q 531 748 549 723 q 490 790 513 772 q 438 818 466 808 q 381 829 410 829 q 293 801 332 829 q 227 722 255 773 q 185 598 200 671 q 170 436 170 525 q 225 168 170 262 q 381 75 279 75 q 449 86 416 75 q 510 115 483 97 q 557 157 538 133 q 580 207 575 182 l 692 192 m 376 -296 q 286 -281 321 -296 q 221 -229 251 -266 l 270 -181 q 309 -216 286 -207 q 376 -226 332 -226 q 448 -215 427 -226 q 469 -177 469 -204 q 453 -138 469 -152 q 406 -125 436 -125 q 365 -131 384 -125 q 336 -147 345 -138 l 270 -147 l 297 0 l 366 0 l 346 -84 q 373 -73 351 -79 q 420 -68 395 -68 q 510 -98 478 -68 q 542 -179 542 -127 q 499 -267 542 -237 q 376 -296 457 -296 z "},"È":{"ha":764,"x_min":127,"x_max":631,"o":"m 127 0 l 127 903 l 631 903 l 631 804 l 226 804 l 226 524 l 561 524 l 561 426 l 226 426 l 226 98 l 631 98 l 631 0 l 127 0 m 222 1170 l 275 1257 l 541 1069 l 506 1009 l 222 1170 z "},"É":{"ha":764,"x_min":127,"x_max":631,"o":"m 127 0 l 127 903 l 631 903 l 631 804 l 226 804 l 226 524 l 561 524 l 561 426 l 226 426 l 226 98 l 631 98 l 631 0 l 127 0 m 541 1170 l 487 1257 l 222 1069 l 257 1009 l 541 1170 z "},"Ê":{"ha":764,"x_min":127,"x_max":631,"o":"m 127 0 l 127 903 l 631 903 l 631 804 l 226 804 l 226 524 l 561 524 l 561 426 l 226 426 l 226 98 l 631 98 l 631 0 l 127 0 m 344 1225 l 422 1225 l 586 1007 l 502 1007 l 384 1130 l 280 1007 l 197 1007 l 344 1225 z "},"Ë":{"ha":764,"x_min":127,"x_max":631,"o":"m 127 0 l 127 903 l 631 903 l 631 804 l 226 804 l 226 524 l 561 524 l 561 426 l 226 426 l 226 98 l 631 98 l 631 0 l 127 0 m 425 1080 q 444 1133 425 1115 q 498 1152 463 1152 q 569 1080 569 1152 q 498 1007 569 1007 q 425 1080 425 1007 m 193 1080 q 212 1133 193 1115 q 266 1152 231 1152 q 338 1080 338 1152 q 266 1007 338 1007 q 193 1080 193 1007 z "},"Ì":{"ha":764,"x_min":132,"x_max":634,"o":"m 132 81 l 332 81 l 332 822 l 162 822 l 162 903 l 591 903 l 591 822 l 431 822 l 431 81 l 627 81 l 627 76 q 628 37 627 57 q 634 0 628 17 l 132 0 l 132 81 m 222 1170 l 275 1257 l 541 1069 l 506 1009 l 222 1170 z "},"Í":{"ha":764,"x_min":132,"x_max":634,"o":"m 132 81 l 332 81 l 332 822 l 162 822 l 162 903 l 591 903 l 591 822 l 431 822 l 431 81 l 627 81 l 627 76 q 628 37 627 57 q 634 0 628 17 l 132 0 l 132 81 m 541 1170 l 487 1257 l 222 1069 l 257 1009 l 541 1170 z "},"Î":{"ha":764,"x_min":132,"x_max":634,"o":"m 132 81 l 332 81 l 332 822 l 162 822 l 162 903 l 591 903 l 591 822 l 431 822 l 431 81 l 627 81 l 627 76 q 628 37 627 57 q 634 0 628 17 l 132 0 l 132 81 m 344 1225 l 422 1225 l 586 1007 l 502 1007 l 384 1130 l 280 1007 l 197 1007 l 344 1225 z "},"Ï":{"ha":764,"x_min":132,"x_max":634,"o":"m 132 81 l 332 81 l 332 822 l 162 822 l 162 903 l 591 903 l 591 822 l 431 822 l 431 81 l 627 81 l 627 76 q 628 37 627 57 q 634 0 628 17 l 132 0 l 132 81 m 425 1080 q 444 1133 425 1115 q 498 1152 463 1152 q 569 1080 569 1152 q 498 1007 569 1007 q 425 1080 425 1007 m 193 1080 q 212 1133 193 1115 q 266 1152 231 1152 q 338 1080 338 1152 q 266 1007 338 1007 q 193 1080 193 1007 z "},"Ñ":{"ha":764,"x_min":102,"x_max":662,"o":"m 200 719 l 200 0 l 102 0 l 102 903 l 207 903 l 564 213 l 564 903 l 662 903 l 662 0 l 557 0 l 200 719 m 294 1164 q 362 1149 338 1164 q 405 1117 387 1133 q 442 1090 428 1097 q 471 1083 455 1083 q 573 1159 532 1083 l 635 1115 q 609 1073 625 1094 q 573 1037 594 1053 q 525 1010 552 1021 q 466 1000 499 1000 q 401 1015 425 1000 q 359 1047 377 1030 q 328 1071 344 1060 q 288 1081 313 1081 q 237 1065 262 1081 q 189 1005 212 1049 l 127 1050 q 200 1137 157 1110 q 294 1164 242 1164 z "},"Ò":{"ha":764,"x_min":60,"x_max":704,"o":"m 382 -17 q 245 13 306 -17 q 144 102 185 44 q 82 244 103 160 q 60 436 60 329 q 144 797 60 672 q 380 921 228 921 q 618 796 532 921 q 704 434 704 670 q 682 244 704 328 q 619 102 661 160 q 518 13 578 44 q 382 -17 458 -17 m 384 76 q 538 163 488 76 q 588 433 588 249 q 535 741 588 644 q 382 838 481 838 q 230 741 284 838 q 176 435 176 645 q 228 163 176 250 q 384 76 280 76 m 222 1170 l 275 1257 l 541 1069 l 506 1009 l 222 1170 z "},"Ó":{"ha":764,"x_min":60,"x_max":704,"o":"m 382 -17 q 245 13 306 -17 q 144 102 185 44 q 82 244 103 160 q 60 436 60 329 q 144 797 60 672 q 380 921 228 921 q 618 796 532 921 q 704 434 704 670 q 682 244 704 328 q 619 102 661 160 q 518 13 578 44 q 382 -17 458 -17 m 384 76 q 538 163 488 76 q 588 433 588 249 q 535 741 588 644 q 382 838 481 838 q 230 741 284 838 q 176 435 176 645 q 228 163 176 250 q 384 76 280 76 m 541 1170 l 487 1257 l 222 1069 l 257 1009 l 541 1170 z "},"Ô":{"ha":764,"x_min":60,"x_max":704,"o":"m 382 -17 q 245 13 306 -17 q 144 102 185 44 q 82 244 103 160 q 60 436 60 329 q 144 797 60 672 q 380 921 228 921 q 618 796 532 921 q 704 434 704 670 q 682 244 704 328 q 619 102 661 160 q 518 13 578 44 q 382 -17 458 -17 m 384 76 q 538 163 488 76 q 588 433 588 249 q 535 741 588 644 q 382 838 481 838 q 230 741 284 838 q 176 435 176 645 q 228 163 176 250 q 384 76 280 76 m 344 1225 l 422 1225 l 586 1007 l 502 1007 l 384 1130 l 280 1007 l 197 1007 l 344 1225 z "},"Õ":{"ha":764,"x_min":60,"x_max":704,"o":"m 382 -17 q 245 13 306 -17 q 144 102 185 44 q 82 244 103 160 q 60 436 60 329 q 144 797 60 672 q 380 921 228 921 q 618 796 532 921 q 704 434 704 670 q 682 244 704 328 q 619 102 661 160 q 518 13 578 44 q 382 -17 458 -17 m 384 76 q 538 163 488 76 q 588 433 588 249 q 535 741 588 644 q 382 838 481 838 q 230 741 284 838 q 176 435 176 645 q 228 163 176 250 q 384 76 280 76 m 294 1164 q 362 1149 338 1164 q 405 1117 387 1133 q 442 1090 428 1097 q 471 1083 455 1083 q 573 1159 532 1083 l 635 1115 q 609 1073 625 1094 q 573 1037 594 1053 q 525 1010 552 1021 q 466 1000 499 1000 q 401 1015 425 1000 q 359 1047 377 1030 q 328 1071 344 1060 q 288 1081 313 1081 q 237 1065 262 1081 q 189 1005 212 1049 l 127 1050 q 200 1137 157 1110 q 294 1164 242 1164 z "},"Ö":{"ha":764,"x_min":60,"x_max":704,"o":"m 382 -17 q 245 13 306 -17 q 144 102 185 44 q 82 244 103 160 q 60 436 60 329 q 144 797 60 672 q 380 921 228 921 q 618 796 532 921 q 704 434 704 670 q 682 244 704 328 q 619 102 661 160 q 518 13 578 44 q 382 -17 458 -17 m 384 76 q 538 163 488 76 q 588 433 588 249 q 535 741 588 644 q 382 838 481 838 q 230 741 284 838 q 176 435 176 645 q 228 163 176 250 q 384 76 280 76 m 425 1080 q 444 1133 425 1115 q 498 1152 463 1152 q 569 1080 569 1152 q 498 1007 569 1007 q 425 1080 425 1007 m 193 1080 q 212 1133 193 1115 q 266 1152 231 1152 q 338 1080 338 1152 q 266 1007 338 1007 q 193 1080 193 1007 z "},"Ù":{"ha":764,"x_min":94,"x_max":670,"o":"m 94 903 l 192 903 l 192 248 q 207 171 192 204 q 247 117 221 139 q 308 86 273 96 q 384 75 343 75 q 459 86 425 75 q 519 117 494 96 q 558 171 544 139 q 572 248 572 204 l 572 903 l 670 903 l 670 242 q 652 136 670 184 q 598 54 634 88 q 508 1 561 20 q 383 -17 455 -17 q 258 1 313 -17 q 167 54 204 20 q 112 136 131 88 q 94 242 94 184 l 94 903 m 222 1170 l 275 1257 l 541 1069 l 506 1009 l 222 1170 z "},"Ú":{"ha":764,"x_min":94,"x_max":670,"o":"m 94 903 l 192 903 l 192 248 q 207 171 192 204 q 247 117 221 139 q 308 86 273 96 q 384 75 343 75 q 459 86 425 75 q 519 117 494 96 q 558 171 544 139 q 572 248 572 204 l 572 903 l 670 903 l 670 242 q 652 136 670 184 q 598 54 634 88 q 508 1 561 20 q 383 -17 455 -17 q 258 1 313 -17 q 167 54 204 20 q 112 136 131 88 q 94 242 94 184 l 94 903 m 541 1170 l 487 1257 l 222 1069 l 257 1009 l 541 1170 z "},"Û":{"ha":764,"x_min":94,"x_max":670,"o":"m 94 903 l 192 903 l 192 248 q 207 171 192 204 q 247 117 221 139 q 308 86 273 96 q 384 75 343 75 q 459 86 425 75 q 519 117 494 96 q 558 171 544 139 q 572 248 572 204 l 572 903 l 670 903 l 670 242 q 652 136 670 184 q 598 54 634 88 q 508 1 561 20 q 383 -17 455 -17 q 258 1 313 -17 q 167 54 204 20 q 112 136 131 88 q 94 242 94 184 l 94 903 m 344 1225 l 422 1225 l 586 1007 l 502 1007 l 384 1130 l 280 1007 l 197 1007 l 344 1225 z "},"Ü":{"ha":764,"x_min":94,"x_max":670,"o":"m 94 903 l 192 903 l 192 248 q 207 171 192 204 q 247 117 221 139 q 308 86 273 96 q 384 75 343 75 q 459 86 425 75 q 519 117 494 96 q 558 171 544 139 q 572 248 572 204 l 572 903 l 670 903 l 670 242 q 652 136 670 184 q 598 54 634 88 q 508 1 561 20 q 383 -17 455 -17 q 258 1 313 -17 q 167 54 204 20 q 112 136 131 88 q 94 242 94 184 l 94 903 m 425 1080 q 444 1133 425 1115 q 498 1152 463 1152 q 569 1080 569 1152 q 498 1007 569 1007 q 425 1080 425 1007 m 193 1080 q 212 1133 193 1115 q 266 1152 231 1152 q 338 1080 338 1152 q 266 1007 338 1007 q 193 1080 193 1007 z "},"Ý":{"ha":764,"x_min":34,"x_max":729,"o":"m 138 903 l 374 490 l 625 903 l 729 903 l 421 375 l 421 0 l 323 0 l 323 375 l 34 903 l 138 903 m 541 1170 l 487 1257 l 222 1069 l 257 1009 l 541 1170 z "},"à":{"ha":764,"x_min":93,"x_max":659,"o":"m 93 171 q 190 321 93 271 q 481 372 288 372 q 523 371 505 372 q 560 369 542 370 l 560 374 q 546 461 560 421 q 505 528 531 500 q 443 573 479 557 q 362 589 406 589 q 270 569 318 589 q 167 495 222 550 l 108 567 q 222 649 156 620 q 360 678 287 678 q 481 655 426 678 q 575 591 536 632 q 637 495 615 551 q 659 374 659 439 l 659 0 l 535 0 q 552 35 543 12 q 560 81 560 58 q 479 10 535 37 q 354 -16 424 -16 q 252 -4 300 -16 q 168 32 204 8 q 113 90 133 56 q 93 171 93 125 m 193 171 q 236 94 193 120 q 337 67 278 67 q 398 74 367 67 q 458 94 428 81 q 514 128 487 108 q 560 177 541 149 l 560 284 q 522 285 541 285 q 486 285 503 285 q 264 259 334 285 q 193 171 193 233 m 222 927 l 275 1014 l 541 826 l 506 766 l 222 927 z "},"á":{"ha":764,"x_min":93,"x_max":659,"o":"m 93 171 q 190 321 93 271 q 481 372 288 372 q 523 371 505 372 q 560 369 542 370 l 560 374 q 546 461 560 421 q 505 528 531 500 q 443 573 479 557 q 362 589 406 589 q 270 569 318 589 q 167 495 222 550 l 108 567 q 222 649 156 620 q 360 678 287 678 q 481 655 426 678 q 575 591 536 632 q 637 495 615 551 q 659 374 659 439 l 659 0 l 535 0 q 552 35 543 12 q 560 81 560 58 q 479 10 535 37 q 354 -16 424 -16 q 252 -4 300 -16 q 168 32 204 8 q 113 90 133 56 q 93 171 93 125 m 193 171 q 236 94 193 120 q 337 67 278 67 q 398 74 367 67 q 458 94 428 81 q 514 128 487 108 q 560 177 541 149 l 560 284 q 522 285 541 285 q 486 285 503 285 q 264 259 334 285 q 193 171 193 233 m 541 927 l 487 1014 l 222 826 l 257 766 l 541 927 z "},"â":{"ha":764,"x_min":93,"x_max":659,"o":"m 93 171 q 190 321 93 271 q 481 372 288 372 q 523 371 505 372 q 560 369 542 370 l 560 374 q 546 461 560 421 q 505 528 531 500 q 443 573 479 557 q 362 589 406 589 q 270 569 318 589 q 167 495 222 550 l 108 567 q 222 649 156 620 q 360 678 287 678 q 481 655 426 678 q 575 591 536 632 q 637 495 615 551 q 659 374 659 439 l 659 0 l 535 0 q 552 35 543 12 q 560 81 560 58 q 479 10 535 37 q 354 -16 424 -16 q 252 -4 300 -16 q 168 32 204 8 q 113 90 133 56 q 93 171 93 125 m 193 171 q 236 94 193 120 q 337 67 278 67 q 398 74 367 67 q 458 94 428 81 q 514 128 487 108 q 560 177 541 149 l 560 284 q 522 285 541 285 q 486 285 503 285 q 264 259 334 285 q 193 171 193 233 m 344 981 l 422 981 l 586 764 l 502 764 l 384 887 l 280 764 l 197 764 l 344 981 z "},"ã":{"ha":764,"x_min":93,"x_max":659,"o":"m 93 171 q 190 321 93 271 q 481 372 288 372 q 523 371 505 372 q 560 369 542 370 l 560 374 q 546 461 560 421 q 505 528 531 500 q 443 573 479 557 q 362 589 406 589 q 270 569 318 589 q 167 495 222 550 l 108 567 q 222 649 156 620 q 360 678 287 678 q 481 655 426 678 q 575 591 536 632 q 637 495 615 551 q 659 374 659 439 l 659 0 l 535 0 q 552 35 543 12 q 560 81 560 58 q 479 10 535 37 q 354 -16 424 -16 q 252 -4 300 -16 q 168 32 204 8 q 113 90 133 56 q 93 171 93 125 m 193 171 q 236 94 193 120 q 337 67 278 67 q 398 74 367 67 q 458 94 428 81 q 514 128 487 108 q 560 177 541 149 l 560 284 q 522 285 541 285 q 486 285 503 285 q 264 259 334 285 q 193 171 193 233 m 294 921 q 362 906 338 921 q 405 874 387 890 q 442 847 428 854 q 471 840 455 840 q 573 916 532 840 l 635 872 q 609 830 625 851 q 573 794 594 810 q 525 767 552 778 q 466 757 499 757 q 401 772 425 757 q 359 804 377 787 q 328 828 344 817 q 288 838 313 838 q 237 822 262 838 q 189 762 212 806 l 127 807 q 200 894 157 867 q 294 921 242 921 z "},"ä":{"ha":764,"x_min":93,"x_max":659,"o":"m 93 171 q 190 321 93 271 q 481 372 288 372 q 523 371 505 372 q 560 369 542 370 l 560 374 q 546 461 560 421 q 505 528 531 500 q 443 573 479 557 q 362 589 406 589 q 270 569 318 589 q 167 495 222 550 l 108 567 q 222 649 156 620 q 360 678 287 678 q 481 655 426 678 q 575 591 536 632 q 637 495 615 551 q 659 374 659 439 l 659 0 l 535 0 q 552 35 543 12 q 560 81 560 58 q 479 10 535 37 q 354 -16 424 -16 q 252 -4 300 -16 q 168 32 204 8 q 113 90 133 56 q 93 171 93 125 m 193 171 q 236 94 193 120 q 337 67 278 67 q 398 74 367 67 q 458 94 428 81 q 514 128 487 108 q 560 177 541 149 l 560 284 q 522 285 541 285 q 486 285 503 285 q 264 259 334 285 q 193 171 193 233 m 425 837 q 444 890 425 872 q 498 909 463 909 q 569 837 569 909 q 498 764 569 764 q 425 837 425 764 m 193 837 q 212 890 193 872 q 266 909 231 909 q 338 837 338 909 q 266 764 338 764 q 193 837 193 764 z "},"å":{"ha":764,"x_min":93,"x_max":659,"o":"m 93 171 q 190 321 93 271 q 481 372 288 372 q 523 371 505 372 q 560 369 542 370 l 560 374 q 546 461 560 421 q 505 528 531 500 q 443 573 479 557 q 362 589 406 589 q 270 569 318 589 q 167 495 222 550 l 108 567 q 222 649 156 620 q 360 678 287 678 q 481 655 426 678 q 575 591 536 632 q 637 495 615 551 q 659 374 659 439 l 659 0 l 535 0 q 552 35 543 12 q 560 81 560 58 q 479 10 535 37 q 354 -16 424 -16 q 252 -4 300 -16 q 168 32 204 8 q 113 90 133 56 q 93 171 93 125 m 193 171 q 236 94 193 120 q 337 67 278 67 q 398 74 367 67 q 458 94 428 81 q 514 128 487 108 q 560 177 541 149 l 560 284 q 522 285 541 285 q 486 285 503 285 q 264 259 334 285 q 193 171 193 233 m 382 649 q 285 685 323 649 q 248 780 248 721 q 285 875 248 839 q 382 911 323 911 q 479 875 441 911 q 516 780 516 839 q 478 685 516 721 q 382 649 440 649 m 382 701 q 433 724 414 701 q 451 780 451 747 q 433 836 451 814 q 382 859 414 859 q 332 836 351 859 q 313 780 313 814 q 332 724 313 747 q 382 701 352 701 z "},"ç":{"ha":764,"x_min":83,"x_max":670,"o":"m 670 191 q 635 105 661 144 q 572 40 610 67 q 486 -2 535 13 q 378 -16 436 -16 q 160 69 237 -16 q 83 316 83 155 q 102 458 83 392 q 157 573 120 524 q 248 650 193 622 q 376 678 303 678 q 471 665 426 678 q 554 628 516 652 q 619 571 591 604 q 659 497 646 537 l 550 465 q 485 554 532 523 q 376 586 438 586 q 238 512 282 586 q 193 309 193 439 q 383 75 193 75 q 499 108 454 75 q 557 207 544 141 l 670 191 m 376 -296 q 286 -281 321 -296 q 221 -229 251 -266 l 270 -181 q 309 -216 286 -207 q 376 -226 332 -226 q 448 -215 427 -226 q 469 -177 469 -204 q 453 -138 469 -152 q 406 -125 436 -125 q 365 -131 384 -125 q 336 -147 345 -138 l 270 -147 l 297 0 l 366 0 l 346 -84 q 373 -73 351 -79 q 420 -68 395 -68 q 510 -98 478 -68 q 542 -179 542 -127 q 499 -267 542 -237 q 376 -296 457 -296 z "},"è":{"ha":764,"x_min":93,"x_max":662,"o":"m 93 284 l 93 341 q 169 590 93 502 q 394 678 245 678 q 530 650 477 678 q 612 575 582 623 q 652 466 641 528 q 662 336 662 404 q 662 310 662 323 q 661 284 662 296 l 191 284 q 206 198 191 237 q 247 131 221 160 q 310 87 273 103 q 389 72 346 72 q 481 91 433 72 q 584 166 529 111 l 644 94 q 530 12 595 41 q 391 -17 464 -17 q 272 5 326 -17 q 178 68 218 28 q 115 163 138 108 q 93 284 93 219 m 192 372 l 558 372 l 559 394 q 513 541 558 490 q 380 591 469 591 q 296 576 331 591 q 239 532 262 561 q 205 463 216 503 q 192 372 194 422 m 222 927 l 275 1014 l 541 826 l 506 766 l 222 927 z "},"é":{"ha":764,"x_min":93,"x_max":662,"o":"m 93 284 l 93 341 q 169 590 93 502 q 394 678 245 678 q 530 650 477 678 q 612 575 582 623 q 652 466 641 528 q 662 336 662 404 q 662 310 662 323 q 661 284 662 296 l 191 284 q 206 198 191 237 q 247 131 221 160 q 310 87 273 103 q 389 72 346 72 q 481 91 433 72 q 584 166 529 111 l 644 94 q 530 12 595 41 q 391 -17 464 -17 q 272 5 326 -17 q 178 68 218 28 q 115 163 138 108 q 93 284 93 219 m 192 372 l 558 372 l 559 394 q 513 541 558 490 q 380 591 469 591 q 296 576 331 591 q 239 532 262 561 q 205 463 216 503 q 192 372 194 422 m 541 927 l 487 1014 l 222 826 l 257 766 l 541 927 z "},"ê":{"ha":764,"x_min":93,"x_max":662,"o":"m 93 284 l 93 341 q 169 590 93 502 q 394 678 245 678 q 530 650 477 678 q 612 575 582 623 q 652 466 641 528 q 662 336 662 404 q 662 310 662 323 q 661 284 662 296 l 191 284 q 206 198 191 237 q 247 131 221 160 q 310 87 273 103 q 389 72 346 72 q 481 91 433 72 q 584 166 529 111 l 644 94 q 530 12 595 41 q 391 -17 464 -17 q 272 5 326 -17 q 178 68 218 28 q 115 163 138 108 q 93 284 93 219 m 192 372 l 558 372 l 559 394 q 513 541 558 490 q 380 591 469 591 q 296 576 331 591 q 239 532 262 561 q 205 463 216 503 q 192 372 194 422 m 344 981 l 422 981 l 586 764 l 502 764 l 384 887 l 280 764 l 197 764 l 344 981 z "},"ë":{"ha":764,"x_min":93,"x_max":662,"o":"m 93 284 l 93 341 q 169 590 93 502 q 394 678 245 678 q 530 650 477 678 q 612 575 582 623 q 652 466 641 528 q 662 336 662 404 q 662 310 662 323 q 661 284 662 296 l 191 284 q 206 198 191 237 q 247 131 221 160 q 310 87 273 103 q 389 72 346 72 q 481 91 433 72 q 584 166 529 111 l 644 94 q 530 12 595 41 q 391 -17 464 -17 q 272 5 326 -17 q 178 68 218 28 q 115 163 138 108 q 93 284 93 219 m 192 372 l 558 372 l 559 394 q 513 541 558 490 q 380 591 469 591 q 296 576 331 591 q 239 532 262 561 q 205 463 216 503 q 192 372 194 422 m 425 837 q 444 890 425 872 q 498 909 463 909 q 569 837 569 909 q 498 764 569 764 q 425 837 425 764 m 193 837 q 212 890 193 872 q 266 909 231 909 q 338 837 338 909 q 266 764 338 764 q 193 837 193 764 z "},"ì":{"ha":764,"x_min":131,"x_max":633,"o":"m 131 81 l 337 81 l 337 579 l 201 587 l 201 660 l 432 660 l 432 81 l 626 81 l 626 76 q 627 37 626 57 q 633 0 627 17 l 131 0 l 131 81 m 223 927 l 277 1014 l 542 826 l 507 766 l 223 927 z "},"í":{"ha":764,"x_min":131,"x_max":633,"o":"m 131 81 l 337 81 l 337 579 l 201 587 l 201 660 l 432 660 l 432 81 l 626 81 l 626 76 q 627 37 626 57 q 633 0 627 17 l 131 0 l 131 81 m 541 927 l 487 1014 l 222 826 l 257 766 l 541 927 z "},"î":{"ha":764,"x_min":131,"x_max":633,"o":"m 131 81 l 337 81 l 337 579 l 201 587 l 201 660 l 432 660 l 432 81 l 626 81 l 626 76 q 627 37 626 57 q 633 0 627 17 l 131 0 l 131 81 m 334 957 l 413 957 l 576 740 l 493 740 l 375 862 l 271 740 l 188 740 l 334 957 z "},"ï":{"ha":764,"x_min":131,"x_max":633,"o":"m 131 81 l 337 81 l 337 579 l 201 587 l 201 660 l 432 660 l 432 81 l 626 81 l 626 76 q 627 37 626 57 q 633 0 627 17 l 131 0 l 131 81 m 426 850 q 445 903 426 884 q 499 921 464 921 q 571 850 571 921 q 499 777 571 777 q 426 850 426 777 m 194 850 q 214 903 194 884 q 267 921 233 921 q 339 850 339 921 q 267 777 339 777 q 194 850 194 777 z "},"ñ":{"ha":764,"x_min":116,"x_max":663,"o":"m 118 660 l 116 660 l 242 660 q 225 625 234 648 q 216 579 216 602 l 216 0 l 118 0 l 118 660 m 213 580 q 247 620 225 602 q 296 651 269 638 q 355 671 324 664 q 418 678 387 678 q 527 649 481 678 q 601 573 572 620 q 643 465 630 525 q 656 344 656 405 l 656 76 q 657 37 656 57 q 663 0 657 17 l 551 0 l 551 368 q 539 451 551 412 q 503 518 527 490 q 446 563 479 546 q 368 580 412 580 q 271 549 307 580 q 213 475 235 519 l 213 580 m 294 921 q 362 906 338 921 q 405 874 387 890 q 442 847 428 854 q 471 840 455 840 q 573 916 532 840 l 635 872 q 609 830 625 851 q 573 794 594 810 q 525 767 552 778 q 466 757 499 757 q 401 772 425 757 q 359 804 377 787 q 328 828 344 817 q 288 838 313 838 q 237 822 262 838 q 189 762 212 806 l 127 807 q 200 894 157 867 q 294 921 242 921 z "},"ò":{"ha":764,"x_min":78,"x_max":686,"o":"m 381 -17 q 256 6 311 -17 q 160 75 200 30 q 99 183 120 119 q 78 328 78 248 q 98 471 78 406 q 159 582 119 536 q 253 653 198 628 q 378 678 309 678 q 506 653 449 678 q 602 581 563 627 q 664 470 642 535 q 686 326 686 405 q 664 183 686 247 q 602 75 642 119 q 506 6 563 30 q 381 -17 450 -17 m 384 67 q 524 134 473 67 q 574 326 574 200 q 524 524 574 451 q 382 597 473 597 q 240 525 291 597 q 190 329 190 453 q 242 135 190 203 q 384 67 294 67 m 219 946 l 272 1032 l 537 845 l 502 785 l 219 946 z "},"ó":{"ha":764,"x_min":78,"x_max":686,"o":"m 381 -17 q 256 6 311 -17 q 160 75 200 30 q 99 183 120 119 q 78 328 78 248 q 98 471 78 406 q 159 582 119 536 q 253 653 198 628 q 378 678 309 678 q 506 653 449 678 q 602 581 563 627 q 664 470 642 535 q 686 326 686 405 q 664 183 686 247 q 602 75 642 119 q 506 6 563 30 q 381 -17 450 -17 m 384 67 q 524 134 473 67 q 574 326 574 200 q 524 524 574 451 q 382 597 473 597 q 240 525 291 597 q 190 329 190 453 q 242 135 190 203 q 384 67 294 67 m 537 946 l 484 1032 l 219 845 l 254 785 l 537 946 z "},"ô":{"ha":764,"x_min":78,"x_max":686,"o":"m 381 -17 q 256 6 311 -17 q 160 75 200 30 q 99 183 120 119 q 78 328 78 248 q 98 471 78 406 q 159 582 119 536 q 253 653 198 628 q 378 678 309 678 q 506 653 449 678 q 602 581 563 627 q 664 470 642 535 q 686 326 686 405 q 664 183 686 247 q 602 75 642 119 q 506 6 563 30 q 381 -17 450 -17 m 384 67 q 524 134 473 67 q 574 326 574 200 q 524 524 574 451 q 382 597 473 597 q 240 525 291 597 q 190 329 190 453 q 242 135 190 203 q 384 67 294 67 m 340 1000 l 419 1000 l 582 782 l 499 782 l 381 905 l 277 782 l 193 782 l 340 1000 z "},"õ":{"ha":764,"x_min":78,"x_max":686,"o":"m 381 -17 q 256 6 311 -17 q 160 75 200 30 q 99 183 120 119 q 78 328 78 248 q 98 471 78 406 q 159 582 119 536 q 253 653 198 628 q 378 678 309 678 q 506 653 449 678 q 602 581 563 627 q 664 470 642 535 q 686 326 686 405 q 664 183 686 247 q 602 75 642 119 q 506 6 563 30 q 381 -17 450 -17 m 384 67 q 524 134 473 67 q 574 326 574 200 q 524 524 574 451 q 382 597 473 597 q 240 525 291 597 q 190 329 190 453 q 242 135 190 203 q 384 67 294 67 m 291 940 q 359 924 334 940 q 402 892 383 909 q 438 866 425 873 q 468 859 451 859 q 569 934 529 859 l 632 890 q 606 849 622 869 q 569 813 590 829 q 522 786 549 796 q 463 775 495 775 q 398 791 421 775 q 355 823 374 806 q 325 846 340 836 q 285 856 309 856 q 233 840 258 856 q 185 780 208 824 l 124 825 q 196 913 154 885 q 291 940 238 940 z "},"ö":{"ha":764,"x_min":78,"x_max":686,"o":"m 381 -17 q 256 6 311 -17 q 160 75 200 30 q 99 183 120 119 q 78 328 78 248 q 98 471 78 406 q 159 582 119 536 q 253 653 198 628 q 378 678 309 678 q 506 653 449 678 q 602 581 563 627 q 664 470 642 535 q 686 326 686 405 q 664 183 686 247 q 602 75 642 119 q 506 6 563 30 q 381 -17 450 -17 m 384 67 q 524 134 473 67 q 574 326 574 200 q 524 524 574 451 q 382 597 473 597 q 240 525 291 597 q 190 329 190 453 q 242 135 190 203 q 384 67 294 67 m 421 855 q 440 909 421 890 q 494 927 459 927 q 566 855 566 927 q 494 782 566 782 q 421 855 421 782 m 190 855 q 209 909 190 890 q 263 927 228 927 q 334 855 334 927 q 263 782 334 782 q 190 855 190 782 z "},"ù":{"ha":764,"x_min":100,"x_max":646,"o":"m 639 660 l 639 76 q 639 37 639 57 q 646 0 640 17 l 541 0 l 541 660 l 639 660 m 544 95 q 509 49 530 69 q 461 13 487 28 q 406 -9 435 -1 q 347 -17 377 -17 q 247 9 293 -17 q 168 79 201 35 q 117 181 135 123 q 100 306 100 240 l 100 661 l 205 661 l 205 281 q 218 201 205 240 q 256 134 231 163 q 314 87 280 104 q 389 69 348 69 q 436 78 416 69 q 475 101 457 86 q 509 140 493 117 q 544 193 525 163 l 544 95 m 222 962 l 275 1049 l 541 861 l 506 801 l 222 962 z "},"ú":{"ha":764,"x_min":100,"x_max":646,"o":"m 639 660 l 639 76 q 639 37 639 57 q 646 0 640 17 l 541 0 l 541 660 l 639 660 m 544 95 q 509 49 530 69 q 461 13 487 28 q 406 -9 435 -1 q 347 -17 377 -17 q 247 9 293 -17 q 168 79 201 35 q 117 181 135 123 q 100 306 100 240 l 100 661 l 205 661 l 205 281 q 218 201 205 240 q 256 134 231 163 q 314 87 280 104 q 389 69 348 69 q 436 78 416 69 q 475 101 457 86 q 509 140 493 117 q 544 193 525 163 l 544 95 m 541 962 l 487 1049 l 222 861 l 257 801 l 541 962 z "},"û":{"ha":764,"x_min":100,"x_max":646,"o":"m 639 660 l 639 76 q 639 37 639 57 q 646 0 640 17 l 541 0 l 541 660 l 639 660 m 544 95 q 509 49 530 69 q 461 13 487 28 q 406 -9 435 -1 q 347 -17 377 -17 q 247 9 293 -17 q 168 79 201 35 q 117 181 135 123 q 100 306 100 240 l 100 661 l 205 661 l 205 281 q 218 201 205 240 q 256 134 231 163 q 314 87 280 104 q 389 69 348 69 q 436 78 416 69 q 475 101 457 86 q 509 140 493 117 q 544 193 525 163 l 544 95 m 344 1016 l 422 1016 l 586 799 l 502 799 l 384 921 l 280 799 l 197 799 l 344 1016 z "},"ü":{"ha":764,"x_min":100,"x_max":646,"o":"m 639 660 l 639 76 q 639 37 639 57 q 646 0 640 17 l 541 0 l 541 660 l 639 660 m 544 95 q 509 49 530 69 q 461 13 487 28 q 406 -9 435 -1 q 347 -17 377 -17 q 247 9 293 -17 q 168 79 201 35 q 117 181 135 123 q 100 306 100 240 l 100 661 l 205 661 l 205 281 q 218 201 205 240 q 256 134 231 163 q 314 87 280 104 q 389 69 348 69 q 436 78 416 69 q 475 101 457 86 q 509 140 493 117 q 544 193 525 163 l 544 95 m 425 872 q 444 925 425 906 q 498 943 463 943 q 569 872 569 943 q 498 799 569 799 q 425 872 425 799 m 193 872 q 212 925 193 906 q 266 943 231 943 q 338 872 338 943 q 266 799 338 799 q 193 872 193 799 z "},"ý":{"ha":764,"x_min":98,"x_max":660,"o":"m 196 660 q 221 552 203 613 q 264 422 240 491 q 319 284 289 354 q 380 147 350 213 q 436 298 409 222 q 486 442 463 374 q 526 565 509 509 q 550 660 543 622 l 660 660 q 625 543 648 613 q 571 389 602 472 q 505 214 541 306 q 435 35 470 123 l 434 35 q 408 -31 421 1 q 382 -94 395 -64 q 303 -209 350 -171 q 188 -247 257 -247 q 164 -245 177 -247 q 138 -242 152 -244 l 154 -166 q 168 -168 161 -168 q 181 -168 175 -168 q 250 -141 222 -168 q 297 -65 278 -113 q 317 -17 307 -42 q 337 35 326 8 q 262 186 300 101 q 190 357 223 271 q 132 523 156 443 q 98 660 108 603 l 196 660 m 541 927 l 487 1014 l 222 826 l 257 766 l 541 927 z "},"ÿ":{"ha":764,"x_min":98,"x_max":660,"o":"m 196 660 q 221 552 203 613 q 264 422 240 491 q 319 284 289 354 q 380 147 350 213 q 436 298 409 222 q 486 442 463 374 q 526 565 509 509 q 550 660 543 622 l 660 660 q 625 543 648 613 q 571 389 602 472 q 505 214 541 306 q 435 35 470 123 l 434 35 q 408 -31 421 1 q 382 -94 395 -64 q 303 -209 350 -171 q 188 -247 257 -247 q 164 -245 177 -247 q 138 -242 152 -244 l 154 -166 q 168 -168 161 -168 q 181 -168 175 -168 q 250 -141 222 -168 q 297 -65 278 -113 q 317 -17 307 -42 q 337 35 326 8 q 262 186 300 101 q 190 357 223 271 q 132 523 156 443 q 98 660 108 603 l 196 660 m 425 837 q 444 890 425 872 q 498 909 463 909 q 569 837 569 909 q 498 764 569 764 q 425 837 425 764 m 193 837 q 212 890 193 872 q 266 909 231 909 q 338 837 338 909 q 266 764 338 764 q 193 837 193 764 z "},"þ":{"ha":764,"x_min":89,"x_max":678,"o":"m 89 903 l 188 903 l 188 579 q 273 655 225 631 q 390 678 321 678 q 602 592 527 678 q 678 348 678 506 q 656 199 678 266 q 595 84 634 132 q 500 10 556 36 q 376 -16 444 -16 q 273 1 321 -16 q 188 50 225 19 l 188 -238 l 89 -231 l 89 903 m 374 78 q 457 98 419 78 q 522 153 494 118 q 565 238 550 189 q 580 347 580 288 q 566 448 580 403 q 527 525 552 493 q 465 574 501 557 q 385 591 429 591 q 271 558 323 591 q 188 464 220 524 l 188 176 q 256 102 211 126 q 374 78 301 78 z "},"Ø":{"ha":764,"x_min":60,"x_max":704,"o":"m 382 -17 q 245 13 306 -17 q 144 102 185 44 q 82 244 103 160 q 60 436 60 329 q 144 797 60 672 q 380 921 228 921 q 618 796 532 921 q 704 434 704 670 q 682 244 704 328 q 619 102 661 160 q 518 13 578 44 q 382 -17 458 -17 m 384 76 q 538 163 488 76 q 588 433 588 249 q 535 741 588 644 q 382 838 481 838 q 230 741 284 838 q 176 435 176 645 q 228 163 176 250 q 384 76 280 76 m 632 872 l 201 -14 l 131 31 l 560 916 l 632 872 z "},"ø":{"ha":764,"x_min":78,"x_max":686,"o":"m 381 -17 q 256 6 311 -17 q 160 75 200 30 q 99 183 120 119 q 78 328 78 248 q 98 471 78 406 q 159 582 119 536 q 253 653 198 628 q 378 678 309 678 q 506 653 449 678 q 602 581 563 627 q 664 470 642 535 q 686 326 686 405 q 664 183 686 247 q 602 75 642 119 q 506 6 563 30 q 381 -17 450 -17 m 384 67 q 524 134 473 67 q 574 326 574 200 q 524 524 574 451 q 382 597 473 597 q 240 525 291 597 q 190 329 190 453 q 242 135 190 203 q 384 67 294 67 m 660 804 l 175 -190 l 104 -145 l 588 848 l 660 804 z "},"Ā":{"ha":764,"x_min":67,"x_max":697,"o":"m 304 903 l 442 903 l 697 0 l 598 0 l 525 255 l 235 255 l 166 0 l 67 0 l 304 903 m 256 336 l 502 336 l 383 749 l 368 749 l 256 336 m 542 1007 l 205 1007 l 205 1076 l 542 1076 l 542 1007 z "},"ā":{"ha":764,"x_min":93,"x_max":659,"o":"m 93 171 q 190 321 93 271 q 481 372 288 372 q 523 371 505 372 q 560 369 542 370 l 560 374 q 546 461 560 421 q 505 528 531 500 q 443 573 479 557 q 362 589 406 589 q 270 569 318 589 q 167 495 222 550 l 108 567 q 222 649 156 620 q 360 678 287 678 q 481 655 426 678 q 575 591 536 632 q 637 495 615 551 q 659 374 659 439 l 659 0 l 535 0 q 552 35 543 12 q 560 81 560 58 q 479 10 535 37 q 354 -16 424 -16 q 252 -4 300 -16 q 168 32 204 8 q 113 90 133 56 q 93 171 93 125 m 193 171 q 236 94 193 120 q 337 67 278 67 q 398 74 367 67 q 458 94 428 81 q 514 128 487 108 q 560 177 541 149 l 560 284 q 522 285 541 285 q 486 285 503 285 q 264 259 334 285 q 193 171 193 233 m 550 764 l 213 764 l 213 833 l 550 833 l 550 764 z "},"Ă":{"ha":764,"x_min":67,"x_max":697,"o":"m 304 903 l 442 903 l 697 0 l 598 0 l 525 255 l 235 255 l 166 0 l 67 0 l 304 903 m 256 336 l 502 336 l 383 749 l 368 749 l 256 336 m 263 1188 q 294 1108 263 1138 q 377 1078 325 1078 q 457 1106 428 1078 q 485 1188 485 1135 l 568 1188 q 554 1116 568 1149 q 513 1059 539 1083 q 453 1021 487 1035 q 377 1007 418 1007 q 300 1021 336 1007 q 237 1060 264 1036 q 195 1117 211 1084 q 179 1188 179 1150 l 263 1188 z "},"ă":{"ha":764,"x_min":93,"x_max":659,"o":"m 93 171 q 190 321 93 271 q 481 372 288 372 q 523 371 505 372 q 560 369 542 370 l 560 374 q 546 461 560 421 q 505 528 531 500 q 443 573 479 557 q 362 589 406 589 q 270 569 318 589 q 167 495 222 550 l 108 567 q 222 649 156 620 q 360 678 287 678 q 481 655 426 678 q 575 591 536 632 q 637 495 615 551 q 659 374 659 439 l 659 0 l 535 0 q 552 35 543 12 q 560 81 560 58 q 479 10 535 37 q 354 -16 424 -16 q 252 -4 300 -16 q 168 32 204 8 q 113 90 133 56 q 93 171 93 125 m 193 171 q 236 94 193 120 q 337 67 278 67 q 398 74 367 67 q 458 94 428 81 q 514 128 487 108 q 560 177 541 149 l 560 284 q 522 285 541 285 q 486 285 503 285 q 264 259 334 285 q 193 171 193 233 m 271 944 q 302 865 271 895 q 385 834 333 834 q 465 863 436 834 q 493 944 493 892 l 576 944 q 562 873 576 906 q 521 816 547 840 q 461 778 495 792 q 385 764 426 764 q 308 778 344 764 q 245 817 272 793 q 203 874 219 841 q 188 944 188 907 l 271 944 z "},"Ć":{"ha":764,"x_min":60,"x_max":692,"o":"m 692 192 q 655 112 684 150 q 582 45 625 74 q 487 -1 539 16 q 378 -17 434 -17 q 244 15 303 -17 q 144 106 185 47 q 82 248 103 166 q 60 433 60 331 q 84 630 60 541 q 150 785 108 720 q 252 885 193 850 q 381 921 310 921 q 473 906 427 921 q 557 864 519 890 q 625 803 596 838 q 666 727 654 767 l 557 696 q 531 748 549 723 q 490 790 513 772 q 438 818 466 808 q 381 829 410 829 q 293 801 332 829 q 227 722 255 773 q 185 598 200 671 q 170 436 170 525 q 225 168 170 262 q 381 75 279 75 q 449 86 416 75 q 510 115 483 97 q 557 157 538 133 q 580 207 575 182 l 692 192 m 541 1170 l 487 1257 l 222 1069 l 257 1009 l 541 1170 z "},"ć":{"ha":764,"x_min":83,"x_max":670,"o":"m 670 191 q 635 105 661 144 q 572 40 610 67 q 486 -2 535 13 q 378 -16 436 -16 q 160 69 237 -16 q 83 316 83 155 q 102 458 83 392 q 157 573 120 524 q 248 650 193 622 q 376 678 303 678 q 471 665 426 678 q 554 628 516 652 q 619 571 591 604 q 659 497 646 537 l 550 465 q 485 554 532 523 q 376 586 438 586 q 238 512 282 586 q 193 309 193 439 q 383 75 193 75 q 499 108 454 75 q 557 207 544 141 l 670 191 m 541 927 l 487 1014 l 222 826 l 257 766 l 541 927 z "},"Ĉ":{"ha":764,"x_min":60,"x_max":692,"o":"m 692 192 q 655 112 684 150 q 582 45 625 74 q 487 -1 539 16 q 378 -17 434 -17 q 244 15 303 -17 q 144 106 185 47 q 82 248 103 166 q 60 433 60 331 q 84 630 60 541 q 150 785 108 720 q 252 885 193 850 q 381 921 310 921 q 473 906 427 921 q 557 864 519 890 q 625 803 596 838 q 666 727 654 767 l 557 696 q 531 748 549 723 q 490 790 513 772 q 438 818 466 808 q 381 829 410 829 q 293 801 332 829 q 227 722 255 773 q 185 598 200 671 q 170 436 170 525 q 225 168 170 262 q 381 75 279 75 q 449 86 416 75 q 510 115 483 97 q 557 157 538 133 q 580 207 575 182 l 692 192 m 344 1225 l 422 1225 l 586 1007 l 502 1007 l 384 1130 l 280 1007 l 197 1007 l 344 1225 z "},"ĉ":{"ha":764,"x_min":83,"x_max":670,"o":"m 670 191 q 635 105 661 144 q 572 40 610 67 q 486 -2 535 13 q 378 -16 436 -16 q 160 69 237 -16 q 83 316 83 155 q 102 458 83 392 q 157 573 120 524 q 248 650 193 622 q 376 678 303 678 q 471 665 426 678 q 554 628 516 652 q 619 571 591 604 q 659 497 646 537 l 550 465 q 485 554 532 523 q 376 586 438 586 q 238 512 282 586 q 193 309 193 439 q 383 75 193 75 q 499 108 454 75 q 557 207 544 141 l 670 191 m 344 981 l 422 981 l 586 764 l 502 764 l 384 887 l 280 764 l 197 764 l 344 981 z "},"ċ":{"ha":764,"x_min":83,"x_max":670,"o":"m 670 191 q 635 105 661 144 q 572 40 610 67 q 486 -2 535 13 q 378 -16 436 -16 q 160 69 237 -16 q 83 316 83 155 q 102 458 83 392 q 157 573 120 524 q 248 650 193 622 q 376 678 303 678 q 471 665 426 678 q 554 628 516 652 q 619 571 591 604 q 659 497 646 537 l 550 465 q 485 554 532 523 q 376 586 438 586 q 238 512 282 586 q 193 309 193 439 q 383 75 193 75 q 499 108 454 75 q 557 207 544 141 l 670 191 m 309 837 q 328 890 309 872 q 382 909 347 909 q 454 837 454 909 q 382 764 454 764 q 309 837 309 764 z "},"Ċ":{"ha":764,"x_min":60,"x_max":692,"o":"m 692 192 q 655 112 684 150 q 582 45 625 74 q 487 -1 539 16 q 378 -17 434 -17 q 244 15 303 -17 q 144 106 185 47 q 82 248 103 166 q 60 433 60 331 q 84 630 60 541 q 150 785 108 720 q 252 885 193 850 q 381 921 310 921 q 473 906 427 921 q 557 864 519 890 q 625 803 596 838 q 666 727 654 767 l 557 696 q 531 748 549 723 q 490 790 513 772 q 438 818 466 808 q 381 829 410 829 q 293 801 332 829 q 227 722 255 773 q 185 598 200 671 q 170 436 170 525 q 225 168 170 262 q 381 75 279 75 q 449 86 416 75 q 510 115 483 97 q 557 157 538 133 q 580 207 575 182 l 692 192 m 309 1080 q 328 1133 309 1115 q 382 1152 347 1152 q 454 1080 454 1152 q 382 1007 454 1007 q 309 1080 309 1007 z "},"Č":{"ha":764,"x_min":60,"x_max":692,"o":"m 692 192 q 655 112 684 150 q 582 45 625 74 q 487 -1 539 16 q 378 -17 434 -17 q 244 15 303 -17 q 144 106 185 47 q 82 248 103 166 q 60 433 60 331 q 84 630 60 541 q 150 785 108 720 q 252 885 193 850 q 381 921 310 921 q 473 906 427 921 q 557 864 519 890 q 625 803 596 838 q 666 727 654 767 l 557 696 q 531 748 549 723 q 490 790 513 772 q 438 818 466 808 q 381 829 410 829 q 293 801 332 829 q 227 722 255 773 q 185 598 200 671 q 170 436 170 525 q 225 168 170 262 q 381 75 279 75 q 449 86 416 75 q 510 115 483 97 q 557 157 538 133 q 580 207 575 182 l 692 192 m 334 999 l 413 999 l 576 1216 l 493 1216 l 375 1094 l 271 1216 l 188 1216 l 334 999 z "},"č":{"ha":764,"x_min":83,"x_max":670,"o":"m 670 191 q 635 105 661 144 q 572 40 610 67 q 486 -2 535 13 q 378 -16 436 -16 q 160 69 237 -16 q 83 316 83 155 q 102 458 83 392 q 157 573 120 524 q 248 650 193 622 q 376 678 303 678 q 471 665 426 678 q 554 628 516 652 q 619 571 591 604 q 659 497 646 537 l 550 465 q 485 554 532 523 q 376 586 438 586 q 238 512 282 586 q 193 309 193 439 q 383 75 193 75 q 499 108 454 75 q 557 207 544 141 l 670 191 m 334 756 l 413 756 l 576 973 l 493 973 l 375 851 l 271 973 l 188 973 l 334 756 z "},"Ď":{"ha":764,"x_min":98,"x_max":677,"o":"m 394 98 q 534 189 486 98 q 581 455 581 279 q 530 717 581 634 q 370 800 479 800 l 197 800 l 197 98 l 394 98 m 677 458 q 394 0 677 0 l 98 0 l 98 903 l 313 903 q 480 878 411 903 q 593 800 550 853 q 657 662 637 747 q 677 458 677 578 m 334 999 l 413 999 l 576 1216 l 493 1216 l 375 1094 l 271 1216 l 188 1216 l 334 999 z "},"Đ":{"ha":764,"x_min":98,"x_max":677,"o":"m 313 903 q 480 878 411 903 q 593 800 550 853 q 657 662 637 747 q 677 458 677 578 q 394 0 677 0 l 98 0 l 98 903 l 313 903 m 581 463 q 528 719 580 638 q 370 800 477 800 l 197 800 l 197 463 l 581 463 m 197 370 l 197 98 l 394 98 q 520 167 473 98 q 578 370 567 236 l 197 370 z "},"Ð":{"ha":764,"x_min":98,"x_max":677,"o":"m 313 903 q 480 878 411 903 q 593 800 550 853 q 657 662 637 747 q 677 458 677 578 q 394 0 677 0 l 98 0 l 98 903 l 313 903 m 581 463 q 528 719 580 638 q 370 800 477 800 l 197 800 l 197 463 l 581 463 m 197 370 l 197 98 l 394 98 q 520 167 473 98 q 578 370 567 236 l 197 370 z "},"đ":{"ha":764,"x_min":78,"x_max":674,"o":"m 366 678 q 483 655 435 678 q 568 579 531 631 l 568 910 l 667 903 l 667 76 q 667 37 667 57 q 674 0 668 17 l 568 0 l 568 50 q 483 1 531 19 q 380 -16 435 -16 q 256 10 313 -16 q 161 84 200 36 q 100 199 122 132 q 78 348 78 266 q 153 592 78 506 q 366 678 229 678 m 382 78 q 500 102 455 78 q 568 176 545 126 l 568 464 q 484 558 536 524 q 370 591 433 591 q 291 574 326 591 q 229 525 255 557 q 190 448 204 493 q 176 347 176 403 q 191 238 176 288 q 234 153 206 189 q 299 98 262 118 q 382 78 337 78 m 550 764 l 213 764 l 213 833 l 550 833 l 550 764 z "},"Ē":{"ha":764,"x_min":127,"x_max":631,"o":"m 127 0 l 127 903 l 631 903 l 631 804 l 226 804 l 226 524 l 561 524 l 561 426 l 226 426 l 226 98 l 631 98 l 631 0 l 127 0 m 550 1007 l 213 1007 l 213 1076 l 550 1076 l 550 1007 z "},"ē":{"ha":764,"x_min":93,"x_max":662,"o":"m 93 284 l 93 341 q 169 590 93 502 q 394 678 245 678 q 530 650 477 678 q 612 575 582 623 q 652 466 641 528 q 662 336 662 404 q 662 310 662 323 q 661 284 662 296 l 191 284 q 206 198 191 237 q 247 131 221 160 q 310 87 273 103 q 389 72 346 72 q 481 91 433 72 q 584 166 529 111 l 644 94 q 530 12 595 41 q 391 -17 464 -17 q 272 5 326 -17 q 178 68 218 28 q 115 163 138 108 q 93 284 93 219 m 192 372 l 558 372 l 559 394 q 513 541 558 490 q 380 591 469 591 q 296 576 331 591 q 239 532 262 561 q 205 463 216 503 q 192 372 194 422 m 550 764 l 213 764 l 213 833 l 550 833 l 550 764 z "},"Ĕ":{"ha":764,"x_min":127,"x_max":631,"o":"m 127 0 l 127 903 l 631 903 l 631 804 l 226 804 l 226 524 l 561 524 l 561 426 l 226 426 l 226 98 l 631 98 l 631 0 l 127 0 m 271 1188 q 302 1108 271 1138 q 385 1078 333 1078 q 465 1106 436 1078 q 493 1188 493 1135 l 576 1188 q 562 1116 576 1149 q 521 1059 547 1083 q 461 1021 495 1035 q 385 1007 426 1007 q 308 1021 344 1007 q 245 1060 272 1036 q 203 1117 219 1084 q 188 1188 188 1150 l 271 1188 z "},"ĕ":{"ha":764,"x_min":93,"x_max":662,"o":"m 93 284 l 93 341 q 169 590 93 502 q 394 678 245 678 q 530 650 477 678 q 612 575 582 623 q 652 466 641 528 q 662 336 662 404 q 662 310 662 323 q 661 284 662 296 l 191 284 q 206 198 191 237 q 247 131 221 160 q 310 87 273 103 q 389 72 346 72 q 481 91 433 72 q 584 166 529 111 l 644 94 q 530 12 595 41 q 391 -17 464 -17 q 272 5 326 -17 q 178 68 218 28 q 115 163 138 108 q 93 284 93 219 m 192 372 l 558 372 l 559 394 q 513 541 558 490 q 380 591 469 591 q 296 576 331 591 q 239 532 262 561 q 205 463 216 503 q 192 372 194 422 m 271 944 q 302 865 271 895 q 385 834 333 834 q 465 863 436 834 q 493 944 493 892 l 576 944 q 562 873 576 906 q 521 816 547 840 q 461 778 495 792 q 385 764 426 764 q 308 778 344 764 q 245 817 272 793 q 203 874 219 841 q 188 944 188 907 l 271 944 z "},"Ė":{"ha":764,"x_min":127,"x_max":631,"o":"m 127 0 l 127 903 l 631 903 l 631 804 l 226 804 l 226 524 l 561 524 l 561 426 l 226 426 l 226 98 l 631 98 l 631 0 l 127 0 m 309 1080 q 328 1133 309 1115 q 382 1152 347 1152 q 454 1080 454 1152 q 382 1007 454 1007 q 309 1080 309 1007 z "},"ė":{"ha":764,"x_min":93,"x_max":662,"o":"m 93 284 l 93 341 q 169 590 93 502 q 394 678 245 678 q 530 650 477 678 q 612 575 582 623 q 652 466 641 528 q 662 336 662 404 q 662 310 662 323 q 661 284 662 296 l 191 284 q 206 198 191 237 q 247 131 221 160 q 310 87 273 103 q 389 72 346 72 q 481 91 433 72 q 584 166 529 111 l 644 94 q 530 12 595 41 q 391 -17 464 -17 q 272 5 326 -17 q 178 68 218 28 q 115 163 138 108 q 93 284 93 219 m 192 372 l 558 372 l 559 394 q 513 541 558 490 q 380 591 469 591 q 296 576 331 591 q 239 532 262 561 q 205 463 216 503 q 192 372 194 422 m 309 837 q 328 890 309 872 q 382 909 347 909 q 454 837 454 909 q 382 764 454 764 q 309 837 309 764 z "},"Ě":{"ha":764,"x_min":127,"x_max":631,"o":"m 127 0 l 127 903 l 631 903 l 631 804 l 226 804 l 226 524 l 561 524 l 561 426 l 226 426 l 226 98 l 631 98 l 631 0 l 127 0 m 334 999 l 413 999 l 576 1216 l 493 1216 l 375 1094 l 271 1216 l 188 1216 l 334 999 z "},"Ĝ":{"ha":764,"x_min":60,"x_max":692,"o":"m 692 324 q 670 183 692 247 q 608 76 648 120 q 510 7 567 31 q 382 -17 453 -17 q 245 13 304 -17 q 144 100 185 43 q 82 238 103 156 q 60 426 60 321 q 85 633 60 541 q 156 789 110 725 q 266 887 201 853 q 410 921 331 921 q 547 889 483 921 q 671 782 611 856 l 594 720 q 548 770 569 750 q 505 804 527 791 q 461 823 484 817 q 411 829 438 829 q 233 728 295 829 q 170 434 170 627 q 224 167 170 258 q 387 75 278 75 q 473 93 434 75 q 542 142 513 110 q 586 221 571 175 q 602 324 602 267 l 390 324 l 390 405 l 692 405 l 692 324 m 344 1225 l 422 1225 l 586 1007 l 502 1007 l 384 1130 l 280 1007 l 197 1007 l 344 1225 z "},"ě":{"ha":764,"x_min":93,"x_max":662,"o":"m 93 284 l 93 341 q 169 590 93 502 q 394 678 245 678 q 530 650 477 678 q 612 575 582 623 q 652 466 641 528 q 662 336 662 404 q 662 310 662 323 q 661 284 662 296 l 191 284 q 206 198 191 237 q 247 131 221 160 q 310 87 273 103 q 389 72 346 72 q 481 91 433 72 q 584 166 529 111 l 644 94 q 530 12 595 41 q 391 -17 464 -17 q 272 5 326 -17 q 178 68 218 28 q 115 163 138 108 q 93 284 93 219 m 192 372 l 558 372 l 559 394 q 513 541 558 490 q 380 591 469 591 q 296 576 331 591 q 239 532 262 561 q 205 463 216 503 q 192 372 194 422 m 334 756 l 413 756 l 576 973 l 493 973 l 375 851 l 271 973 l 188 973 l 334 756 z "},"ĝ":{"ha":764,"x_min":96,"x_max":659,"o":"m 659 0 l 659 583 q 659 623 659 603 q 666 660 660 642 l 560 660 l 560 0 l 659 0 m 659 0 q 639 -86 659 -47 q 583 -151 619 -124 q 496 -193 547 -178 q 382 -208 444 -208 q 293 -201 337 -208 q 211 -179 249 -193 q 144 -146 174 -166 q 96 -102 115 -126 l 155 -30 q 385 -119 231 -119 q 560 0 560 -119 l 659 0 m 355 678 q 237 657 289 678 q 148 597 184 637 q 91 503 111 558 q 72 380 72 448 q 92 252 72 310 q 149 152 112 193 q 237 87 185 110 q 352 64 289 64 q 464 83 410 64 q 564 139 517 102 l 564 269 q 483 187 536 216 q 369 157 429 157 q 286 175 324 157 q 223 222 249 192 q 182 292 197 252 q 168 378 168 332 q 182 463 168 424 q 222 531 196 502 q 283 577 248 560 q 362 594 318 594 q 478 560 425 594 q 564 463 531 525 l 564 579 q 355 678 493 678 m 344 981 l 422 981 l 586 764 l 502 764 l 384 887 l 280 764 l 197 764 l 344 981 z "},"Ğ":{"ha":764,"x_min":60,"x_max":692,"o":"m 692 324 q 670 183 692 247 q 608 76 648 120 q 510 7 567 31 q 382 -17 453 -17 q 245 13 304 -17 q 144 100 185 43 q 82 238 103 156 q 60 426 60 321 q 85 633 60 541 q 156 789 110 725 q 266 887 201 853 q 410 921 331 921 q 547 889 483 921 q 671 782 611 856 l 594 720 q 548 770 569 750 q 505 804 527 791 q 461 823 484 817 q 411 829 438 829 q 233 728 295 829 q 170 434 170 627 q 224 167 170 258 q 387 75 278 75 q 473 93 434 75 q 542 142 513 110 q 586 221 571 175 q 602 324 602 267 l 390 324 l 390 405 l 692 405 l 692 324 m 271 1188 q 302 1108 271 1138 q 385 1078 333 1078 q 465 1106 436 1078 q 493 1188 493 1135 l 576 1188 q 562 1116 576 1149 q 521 1059 547 1083 q 461 1021 495 1035 q 385 1007 426 1007 q 308 1021 344 1007 q 245 1060 272 1036 q 203 1117 219 1084 q 188 1188 188 1150 l 271 1188 z "},"ğ":{"ha":764,"x_min":96,"x_max":659,"o":"m 659 0 l 659 583 q 659 623 659 603 q 666 660 660 642 l 560 660 l 560 0 l 659 0 m 659 0 q 639 -86 659 -47 q 583 -151 619 -124 q 496 -193 547 -178 q 382 -208 444 -208 q 293 -201 337 -208 q 211 -179 249 -193 q 144 -146 174 -166 q 96 -102 115 -126 l 155 -30 q 385 -119 231 -119 q 560 0 560 -119 l 659 0 m 355 678 q 237 657 289 678 q 148 597 184 637 q 91 503 111 558 q 72 380 72 448 q 92 252 72 310 q 149 152 112 193 q 237 87 185 110 q 352 64 289 64 q 464 83 410 64 q 564 139 517 102 l 564 269 q 483 187 536 216 q 369 157 429 157 q 286 175 324 157 q 223 222 249 192 q 182 292 197 252 q 168 378 168 332 q 182 463 168 424 q 222 531 196 502 q 283 577 248 560 q 362 594 318 594 q 478 560 425 594 q 564 463 531 525 l 564 579 q 355 678 493 678 m 271 944 q 302 865 271 895 q 385 834 333 834 q 465 863 436 834 q 493 944 493 892 l 576 944 q 562 873 576 906 q 521 816 547 840 q 461 778 495 792 q 385 764 426 764 q 308 778 344 764 q 245 817 272 793 q 203 874 219 841 q 188 944 188 907 l 271 944 z "},"Ġ":{"ha":764,"x_min":60,"x_max":692,"o":"m 692 324 q 670 183 692 247 q 608 76 648 120 q 510 7 567 31 q 382 -17 453 -17 q 245 13 304 -17 q 144 100 185 43 q 82 238 103 156 q 60 426 60 321 q 85 633 60 541 q 156 789 110 725 q 266 887 201 853 q 410 921 331 921 q 547 889 483 921 q 671 782 611 856 l 594 720 q 548 770 569 750 q 505 804 527 791 q 461 823 484 817 q 411 829 438 829 q 233 728 295 829 q 170 434 170 627 q 224 167 170 258 q 387 75 278 75 q 473 93 434 75 q 542 142 513 110 q 586 221 571 175 q 602 324 602 267 l 390 324 l 390 405 l 692 405 l 692 324 m 309 1080 q 328 1133 309 1115 q 382 1152 347 1152 q 454 1080 454 1152 q 382 1007 454 1007 q 309 1080 309 1007 z "},"ġ":{"ha":764,"x_min":96,"x_max":659,"o":"m 659 0 l 659 583 q 659 623 659 603 q 666 660 660 642 l 560 660 l 560 0 l 659 0 m 659 0 q 639 -86 659 -47 q 583 -151 619 -124 q 496 -193 547 -178 q 382 -208 444 -208 q 293 -201 337 -208 q 211 -179 249 -193 q 144 -146 174 -166 q 96 -102 115 -126 l 155 -30 q 385 -119 231 -119 q 560 0 560 -119 l 659 0 m 355 678 q 237 657 289 678 q 148 597 184 637 q 91 503 111 558 q 72 380 72 448 q 92 252 72 310 q 149 152 112 193 q 237 87 185 110 q 352 64 289 64 q 464 83 410 64 q 564 139 517 102 l 564 269 q 483 187 536 216 q 369 157 429 157 q 286 175 324 157 q 223 222 249 192 q 182 292 197 252 q 168 378 168 332 q 182 463 168 424 q 222 531 196 502 q 283 577 248 560 q 362 594 318 594 q 478 560 425 594 q 564 463 531 525 l 564 579 q 355 678 493 678 m 309 837 q 328 890 309 872 q 382 909 347 909 q 454 837 454 909 q 382 764 454 764 q 309 837 309 764 z "},"Ĥ":{"ha":764,"x_min":91,"x_max":675,"o":"m 91 903 l 190 903 l 190 475 l 569 475 l 569 903 l 668 903 l 668 76 q 668 37 668 57 q 675 0 669 17 l 569 0 l 569 394 l 190 394 l 190 0 l 91 0 l 91 903 m 344 1225 l 422 1225 l 586 1007 l 502 1007 l 384 1130 l 280 1007 l 197 1007 l 344 1225 z "},"ĥ":{"ha":764,"x_min":105,"x_max":650,"o":"m 200 580 q 234 620 212 602 q 284 651 256 638 q 343 671 311 664 q 405 678 374 678 q 514 649 469 678 q 588 573 559 620 q 630 465 617 525 q 644 344 644 405 l 644 76 q 644 37 644 57 q 650 0 645 17 l 538 0 l 538 368 q 526 451 538 412 q 490 518 514 490 q 433 563 466 546 q 355 580 399 580 q 258 549 294 580 q 200 475 222 519 l 200 580 m 105 910 l 204 903 l 204 0 l 105 0 l 105 910 m 344 1199 l 422 1199 l 586 981 l 502 981 l 384 1104 l 280 981 l 197 981 l 344 1199 z "},"Ħ":{"ha":764,"x_min":29,"x_max":736,"o":"m 91 903 l 190 903 l 190 475 l 569 475 l 569 903 l 668 903 l 668 76 q 668 37 668 57 q 675 0 669 17 l 569 0 l 569 394 l 190 394 l 190 0 l 91 0 l 91 903 m 29 579 l 29 660 l 736 660 l 736 579 l 29 579 z "},"ħ":{"ha":764,"x_min":51,"x_max":650,"o":"m 200 580 q 234 620 212 602 q 284 651 256 638 q 343 671 311 664 q 405 678 374 678 q 514 649 469 678 q 588 573 559 620 q 630 465 617 525 q 644 344 644 405 l 644 76 q 644 37 644 57 q 650 0 645 17 l 538 0 l 538 368 q 526 451 538 412 q 490 518 514 490 q 433 563 466 546 q 355 580 399 580 q 258 549 294 580 q 200 475 222 519 l 200 580 m 105 910 l 204 903 l 204 0 l 105 0 l 105 910 m 388 764 l 51 764 l 51 833 l 388 833 l 388 764 z "},"Ĩ":{"ha":764,"x_min":127,"x_max":635,"o":"m 132 81 l 332 81 l 332 822 l 162 822 l 162 903 l 591 903 l 591 822 l 431 822 l 431 81 l 627 81 l 627 76 q 628 37 627 57 q 634 0 628 17 l 132 0 l 132 81 m 294 1164 q 362 1149 338 1164 q 405 1117 387 1133 q 442 1090 428 1097 q 471 1083 455 1083 q 573 1159 532 1083 l 635 1115 q 609 1073 625 1094 q 573 1037 594 1053 q 525 1010 552 1021 q 466 1000 499 1000 q 401 1015 425 1000 q 359 1047 377 1030 q 328 1071 344 1060 q 288 1081 313 1081 q 237 1065 262 1081 q 189 1005 212 1049 l 127 1050 q 200 1137 157 1110 q 294 1164 242 1164 z "},"ī":{"ha":764,"x_min":131,"x_max":633,"o":"m 131 81 l 337 81 l 337 579 l 201 587 l 201 660 l 432 660 l 432 81 l 626 81 l 626 76 q 627 37 626 57 q 633 0 627 17 l 131 0 l 131 81 m 551 764 l 214 764 l 214 833 l 551 833 l 551 764 z "},"Ĭ":{"ha":764,"x_min":132,"x_max":634,"o":"m 132 81 l 332 81 l 332 822 l 162 822 l 162 903 l 591 903 l 591 822 l 431 822 l 431 81 l 627 81 l 627 76 q 628 37 627 57 q 634 0 628 17 l 132 0 l 132 81 m 271 1188 q 302 1108 271 1138 q 385 1078 333 1078 q 465 1106 436 1078 q 493 1188 493 1135 l 576 1188 q 562 1116 576 1149 q 521 1059 547 1083 q 461 1021 495 1035 q 385 1007 426 1007 q 308 1021 344 1007 q 245 1060 272 1036 q 203 1117 219 1084 q 188 1188 188 1150 l 271 1188 z "},"ĭ":{"ha":764,"x_min":131,"x_max":633,"o":"m 131 81 l 337 81 l 337 579 l 201 587 l 201 660 l 432 660 l 432 81 l 626 81 l 626 76 q 627 37 626 57 q 633 0 627 17 l 131 0 l 131 81 m 271 -104 q 302 -184 271 -154 q 385 -214 333 -214 q 465 -185 436 -214 q 493 -104 493 -156 l 576 -104 q 562 -175 576 -142 q 521 -233 547 -208 q 461 -271 495 -257 q 385 -285 426 -285 q 308 -270 344 -285 q 245 -231 272 -256 q 203 -174 219 -207 q 188 -104 188 -141 l 271 -104 z "},"İ":{"ha":764,"x_min":132,"x_max":634,"o":"m 132 81 l 332 81 l 332 822 l 162 822 l 162 903 l 591 903 l 591 822 l 431 822 l 431 81 l 627 81 l 627 76 q 628 37 627 57 q 634 0 628 17 l 132 0 l 132 81 m 309 1080 q 328 1133 309 1115 q 382 1152 347 1152 q 454 1080 454 1152 q 382 1007 454 1007 q 309 1080 309 1007 z "},"Ĵ":{"ha":764,"x_min":96,"x_max":666,"o":"m 96 89 l 155 161 q 385 72 231 72 q 560 191 560 72 l 560 814 l 171 814 l 171 903 l 666 903 q 659 866 660 885 q 659 826 659 846 l 659 191 q 639 105 659 144 q 583 40 619 67 q 496 -2 547 13 q 382 -17 444 -17 q 293 -10 337 -17 q 211 12 249 -2 q 144 45 174 25 q 96 89 115 65 m 344 1225 l 422 1225 l 586 1007 l 502 1007 l 384 1130 l 280 1007 l 197 1007 l 344 1225 z "},"ĵ":{"ha":764,"x_min":103,"x_max":713,"o":"m 191 -50 q 251 -123 213 -101 q 328 -146 288 -146 q 377 -137 353 -146 q 418 -109 400 -127 q 447 -62 436 -90 q 458 2 458 -35 l 458 579 l 323 587 l 323 660 l 557 660 l 557 2 q 540 -92 557 -47 q 493 -170 523 -137 q 421 -223 463 -204 q 326 -243 378 -243 q 263 -234 295 -243 q 202 -207 231 -226 q 147 -159 172 -189 q 103 -89 122 -130 l 191 -50 m 471 981 l 550 981 l 713 764 l 630 764 l 512 887 l 407 764 l 324 764 l 471 981 z "},"Ķ":{"ha":764,"x_min":104,"x_max":716,"o":"m 104 0 l 104 903 l 203 903 l 203 477 l 552 903 l 683 903 l 308 439 l 716 0 l 569 0 l 240 355 l 203 309 l 203 0 l 104 0 m 299 -265 q 308 -247 301 -260 q 323 -215 315 -234 q 342 -176 332 -197 q 359 -135 352 -155 q 346 -95 346 -120 q 404 -37 346 -37 q 462 -95 462 -37 q 457 -122 462 -112 q 435 -169 450 -142 q 402 -220 419 -196 q 368 -263 384 -244 q 343 -287 352 -281 l 299 -265 z "},"ķ":{"ha":764,"x_min":132,"x_max":712,"o":"m 230 903 l 230 396 l 536 660 l 674 660 l 340 361 l 712 0 l 559 0 l 262 291 l 230 264 l 230 0 l 132 0 l 132 910 l 230 903 m 299 -265 q 308 -247 301 -260 q 323 -215 315 -234 q 342 -176 332 -197 q 359 -135 352 -155 q 346 -95 346 -120 q 404 -37 346 -37 q 462 -95 462 -37 q 457 -122 462 -112 q 435 -169 450 -142 q 402 -220 419 -196 q 368 -263 384 -244 q 343 -287 352 -281 l 299 -265 z "},"ĸ":{"ha":764,"x_min":130,"x_max":712,"o":"m 674 660 l 216 251 l 132 311 l 536 660 l 674 660 m 712 0 l 559 0 l 160 390 l 310 390 l 712 0 m 132 660 l 130 660 l 256 660 q 239 625 248 648 q 230 579 230 602 l 230 0 l 132 0 l 132 660 z "},"Ĺ":{"ha":764,"x_min":124,"x_max":642,"o":"m 642 0 l 124 0 l 124 903 l 222 903 l 222 81 l 642 81 l 642 0 m 541 1170 l 487 1257 l 222 1069 l 257 1009 l 541 1170 z "},"ĺ":{"ha":764,"x_min":133,"x_max":635,"o":"m 133 81 l 333 81 l 333 822 l 198 830 l 198 903 l 432 903 l 432 81 l 628 81 l 628 76 q 629 37 628 57 q 635 0 630 17 l 133 0 l 133 81 m 541 1170 l 487 1257 l 222 1069 l 257 1009 l 541 1170 z "},"Ļ":{"ha":764,"x_min":124,"x_max":642,"o":"m 642 0 l 124 0 l 124 903 l 222 903 l 222 81 l 642 81 l 642 0 m 299 -265 q 308 -247 301 -260 q 323 -215 315 -234 q 342 -176 332 -197 q 359 -135 352 -155 q 346 -95 346 -120 q 404 -37 346 -37 q 462 -95 462 -37 q 457 -122 462 -112 q 435 -169 450 -142 q 402 -220 419 -196 q 368 -263 384 -244 q 343 -287 352 -281 l 299 -265 z "},"ļ":{"ha":764,"x_min":133,"x_max":635,"o":"m 133 81 l 333 81 l 333 822 l 198 830 l 198 903 l 432 903 l 432 81 l 628 81 l 628 76 q 629 37 628 57 q 635 0 630 17 l 133 0 l 133 81 m 299 -265 q 308 -247 301 -260 q 323 -215 315 -234 q 342 -176 332 -197 q 359 -135 352 -155 q 346 -95 346 -120 q 404 -37 346 -37 q 462 -95 462 -37 q 457 -122 462 -112 q 435 -169 450 -142 q 402 -220 419 -196 q 368 -263 384 -244 q 343 -287 352 -281 l 299 -265 z "},"Ŀ":{"ha":764,"x_min":124,"x_max":642,"o":"m 642 0 l 124 0 l 124 903 l 222 903 l 222 81 l 642 81 l 642 0 m 310 368 q 329 421 310 403 q 383 440 348 440 q 455 368 455 440 q 383 295 455 295 q 310 368 310 295 m 310 368 q 329 421 310 403 q 383 440 348 440 q 455 368 455 440 q 383 295 455 295 q 310 368 310 295 z "},"Ń":{"ha":764,"x_min":102,"x_max":662,"o":"m 200 719 l 200 0 l 102 0 l 102 903 l 207 903 l 564 213 l 564 903 l 662 903 l 662 0 l 557 0 l 200 719 m 541 1170 l 487 1257 l 222 1069 l 257 1009 l 541 1170 z "},"ń":{"ha":764,"x_min":116,"x_max":663,"o":"m 118 660 l 116 660 l 242 660 q 225 625 234 648 q 216 579 216 602 l 216 0 l 118 0 l 118 660 m 213 580 q 247 620 225 602 q 296 651 269 638 q 355 671 324 664 q 418 678 387 678 q 527 649 481 678 q 601 573 572 620 q 643 465 630 525 q 656 344 656 405 l 656 76 q 657 37 656 57 q 663 0 657 17 l 551 0 l 551 368 q 539 451 551 412 q 503 518 527 490 q 446 563 479 546 q 368 580 412 580 q 271 549 307 580 q 213 475 235 519 l 213 580 m 541 927 l 487 1014 l 222 826 l 257 766 l 541 927 z "},"Ņ":{"ha":764,"x_min":102,"x_max":662,"o":"m 200 719 l 200 0 l 102 0 l 102 903 l 207 903 l 564 213 l 564 903 l 662 903 l 662 0 l 557 0 l 200 719 m 299 -265 q 308 -247 301 -260 q 323 -215 315 -234 q 342 -176 332 -197 q 359 -135 352 -155 q 346 -95 346 -120 q 404 -37 346 -37 q 462 -95 462 -37 q 457 -122 462 -112 q 435 -169 450 -142 q 402 -220 419 -196 q 368 -263 384 -244 q 343 -287 352 -281 l 299 -265 z "},"ņ":{"ha":764,"x_min":116,"x_max":663,"o":"m 118 660 l 116 660 l 242 660 q 225 625 234 648 q 216 579 216 602 l 216 0 l 118 0 l 118 660 m 213 580 q 247 620 225 602 q 296 651 269 638 q 355 671 324 664 q 418 678 387 678 q 527 649 481 678 q 601 573 572 620 q 643 465 630 525 q 656 344 656 405 l 656 76 q 657 37 656 57 q 663 0 657 17 l 551 0 l 551 368 q 539 451 551 412 q 503 518 527 490 q 446 563 479 546 q 368 580 412 580 q 271 549 307 580 q 213 475 235 519 l 213 580 m 299 -265 q 308 -247 301 -260 q 323 -215 315 -234 q 342 -176 332 -197 q 359 -135 352 -155 q 346 -95 346 -120 q 404 -37 346 -37 q 462 -95 462 -37 q 457 -122 462 -112 q 435 -169 450 -142 q 402 -220 419 -196 q 368 -263 384 -244 q 343 -287 352 -281 l 299 -265 z "},"Ň":{"ha":764,"x_min":102,"x_max":662,"o":"m 200 719 l 200 0 l 102 0 l 102 903 l 207 903 l 564 213 l 564 903 l 662 903 l 662 0 l 557 0 l 200 719 m 334 999 l 413 999 l 576 1216 l 493 1216 l 375 1094 l 271 1216 l 188 1216 l 334 999 z "},"ň":{"ha":764,"x_min":116,"x_max":663,"o":"m 118 660 l 116 660 l 242 660 q 225 625 234 648 q 216 579 216 602 l 216 0 l 118 0 l 118 660 m 213 580 q 247 620 225 602 q 296 651 269 638 q 355 671 324 664 q 418 678 387 678 q 527 649 481 678 q 601 573 572 620 q 643 465 630 525 q 656 344 656 405 l 656 76 q 657 37 656 57 q 663 0 657 17 l 551 0 l 551 368 q 539 451 551 412 q 503 518 527 490 q 446 563 479 546 q 368 580 412 580 q 271 549 307 580 q 213 475 235 519 l 213 580 m 334 756 l 413 756 l 576 973 l 493 973 l 375 851 l 271 973 l 188 973 l 334 756 z "},"Ō":{"ha":764,"x_min":60,"x_max":704,"o":"m 382 -17 q 245 13 306 -17 q 144 102 185 44 q 82 244 103 160 q 60 436 60 329 q 144 797 60 672 q 380 921 228 921 q 618 796 532 921 q 704 434 704 670 q 682 244 704 328 q 619 102 661 160 q 518 13 578 44 q 382 -17 458 -17 m 384 76 q 538 163 488 76 q 588 433 588 249 q 535 741 588 644 q 382 838 481 838 q 230 741 284 838 q 176 435 176 645 q 228 163 176 250 q 384 76 280 76 m 550 1007 l 213 1007 l 213 1076 l 550 1076 l 550 1007 z "},"ō":{"ha":764,"x_min":78,"x_max":686,"o":"m 381 -17 q 256 6 311 -17 q 160 75 200 30 q 99 183 120 119 q 78 328 78 248 q 98 471 78 406 q 159 582 119 536 q 253 653 198 628 q 378 678 309 678 q 506 653 449 678 q 602 581 563 627 q 664 470 642 535 q 686 326 686 405 q 664 183 686 247 q 602 75 642 119 q 506 6 563 30 q 381 -17 450 -17 m 384 67 q 524 134 473 67 q 574 326 574 200 q 524 524 574 451 q 382 597 473 597 q 240 525 291 597 q 190 329 190 453 q 242 135 190 203 q 384 67 294 67 m 546 782 l 209 782 l 209 852 l 546 852 l 546 782 z "},"Ŏ":{"ha":764,"x_min":60,"x_max":704,"o":"m 382 -17 q 245 13 306 -17 q 144 102 185 44 q 82 244 103 160 q 60 436 60 329 q 144 797 60 672 q 380 921 228 921 q 618 796 532 921 q 704 434 704 670 q 682 244 704 328 q 619 102 661 160 q 518 13 578 44 q 382 -17 458 -17 m 384 76 q 538 163 488 76 q 588 433 588 249 q 535 741 588 644 q 382 838 481 838 q 230 741 284 838 q 176 435 176 645 q 228 163 176 250 q 384 76 280 76 m 271 1188 q 302 1108 271 1138 q 385 1078 333 1078 q 465 1106 436 1078 q 493 1188 493 1135 l 576 1188 q 562 1116 576 1149 q 521 1059 547 1083 q 461 1021 495 1035 q 385 1007 426 1007 q 308 1021 344 1007 q 245 1060 272 1036 q 203 1117 219 1084 q 188 1188 188 1150 l 271 1188 z "},"ŏ":{"ha":764,"x_min":78,"x_max":686,"o":"m 381 -17 q 256 6 311 -17 q 160 75 200 30 q 99 183 120 119 q 78 328 78 248 q 98 471 78 406 q 159 582 119 536 q 253 653 198 628 q 378 678 309 678 q 506 653 449 678 q 602 581 563 627 q 664 470 642 535 q 686 326 686 405 q 664 183 686 247 q 602 75 642 119 q 506 6 563 30 q 381 -17 450 -17 m 384 67 q 524 134 473 67 q 574 326 574 200 q 524 524 574 451 q 382 597 473 597 q 240 525 291 597 q 190 329 190 453 q 242 135 190 203 q 384 67 294 67 m 267 963 q 299 883 267 913 q 382 853 330 853 q 461 882 433 853 q 490 963 490 911 l 573 963 q 558 892 573 925 q 518 834 544 859 q 457 796 492 810 q 382 782 422 782 q 304 797 340 782 q 242 836 269 811 q 200 893 215 860 q 184 963 184 926 l 267 963 z "},"ő":{"ha":764,"x_min":78,"x_max":686,"o":"m 381 -17 q 256 6 311 -17 q 160 75 200 30 q 99 183 120 119 q 78 328 78 248 q 98 471 78 406 q 159 582 119 536 q 253 653 198 628 q 378 678 309 678 q 506 653 449 678 q 602 581 563 627 q 664 470 642 535 q 686 326 686 405 q 664 183 686 247 q 602 75 642 119 q 506 6 563 30 q 381 -17 450 -17 m 384 67 q 524 134 473 67 q 574 326 574 200 q 524 524 574 451 q 382 597 473 597 q 240 525 291 597 q 190 329 190 453 q 242 135 190 203 q 384 67 294 67 m 542 964 l 623 942 l 487 782 l 421 782 l 542 964 m 248 782 l 368 964 l 449 942 l 314 782 l 248 782 z "},"Ő":{"ha":764,"x_min":60,"x_max":704,"o":"m 382 -17 q 245 13 306 -17 q 144 102 185 44 q 82 244 103 160 q 60 436 60 329 q 144 797 60 672 q 380 921 228 921 q 618 796 532 921 q 704 434 704 670 q 682 244 704 328 q 619 102 661 160 q 518 13 578 44 q 382 -17 458 -17 m 384 76 q 538 163 488 76 q 588 433 588 249 q 535 741 588 644 q 382 838 481 838 q 230 741 284 838 q 176 435 176 645 q 228 163 176 250 q 384 76 280 76 m 545 1189 l 626 1167 l 491 1007 l 425 1007 l 545 1189 m 251 1007 l 372 1189 l 453 1167 l 317 1007 l 251 1007 z "},"Ŕ":{"ha":764,"x_min":110,"x_max":678,"o":"m 110 903 l 382 903 q 499 883 447 903 q 588 827 551 863 q 645 739 625 791 q 666 624 666 688 q 616 464 666 522 q 478 381 566 405 q 502 340 490 361 q 527 299 514 319 q 536 282 531 289 q 546 265 541 274 q 594 185 571 225 q 637 109 618 145 q 667 46 655 74 q 678 0 678 17 l 563 0 q 551 46 563 17 q 521 109 539 74 q 480 183 503 144 q 432 263 456 222 l 399 315 q 385 339 392 328 q 372 363 377 351 q 342 362 356 362 q 313 361 328 361 l 208 361 l 208 0 l 110 0 l 110 903 m 208 459 l 370 459 q 572 627 572 459 q 523 759 572 713 q 382 804 473 804 l 208 804 l 208 459 m 541 1170 l 487 1257 l 222 1069 l 257 1009 l 541 1170 z "},"ŕ":{"ha":764,"x_min":90,"x_max":712,"o":"m 90 81 l 295 81 l 295 579 l 160 587 l 160 660 l 403 660 q 396 645 399 655 q 391 622 394 634 q 386 599 388 610 q 384 582 384 588 q 428 635 402 616 q 483 663 455 654 q 539 675 512 672 q 586 678 567 678 q 605 678 595 678 q 630 674 616 677 q 664 664 645 670 q 712 647 684 657 l 650 551 q 551 578 602 578 q 447 545 492 578 q 390 459 403 513 l 390 81 l 586 81 l 586 76 q 586 37 586 57 q 593 0 587 17 l 90 0 l 90 81 m 541 927 l 487 1014 l 222 826 l 257 766 l 541 927 z "},"Ŗ":{"ha":764,"x_min":110,"x_max":678,"o":"m 110 903 l 382 903 q 499 883 447 903 q 588 827 551 863 q 645 739 625 791 q 666 624 666 688 q 616 464 666 522 q 478 381 566 405 q 502 340 490 361 q 527 299 514 319 q 536 282 531 289 q 546 265 541 274 q 594 185 571 225 q 637 109 618 145 q 667 46 655 74 q 678 0 678 17 l 563 0 q 551 46 563 17 q 521 109 539 74 q 480 183 503 144 q 432 263 456 222 l 399 315 q 385 339 392 328 q 372 363 377 351 q 342 362 356 362 q 313 361 328 361 l 208 361 l 208 0 l 110 0 l 110 903 m 208 459 l 370 459 q 572 627 572 459 q 523 759 572 713 q 382 804 473 804 l 208 804 l 208 459 m 299 -265 q 308 -247 301 -260 q 323 -215 315 -234 q 342 -176 332 -197 q 359 -135 352 -155 q 346 -95 346 -120 q 404 -37 346 -37 q 462 -95 462 -37 q 457 -122 462 -112 q 435 -169 450 -142 q 402 -220 419 -196 q 368 -263 384 -244 q 343 -287 352 -281 l 299 -265 z "},"ŗ":{"ha":764,"x_min":90,"x_max":712,"o":"m 90 81 l 295 81 l 295 579 l 160 587 l 160 660 l 403 660 q 396 645 399 655 q 391 622 394 634 q 386 599 388 610 q 384 582 384 588 q 428 635 402 616 q 483 663 455 654 q 539 675 512 672 q 586 678 567 678 q 605 678 595 678 q 630 674 616 677 q 664 664 645 670 q 712 647 684 657 l 650 551 q 551 578 602 578 q 447 545 492 578 q 390 459 403 513 l 390 81 l 586 81 l 586 76 q 586 37 586 57 q 593 0 587 17 l 90 0 l 90 81 m 258 -265 q 267 -247 260 -260 q 283 -215 274 -234 q 302 -176 292 -197 q 318 -135 311 -155 q 306 -95 306 -120 q 363 -37 306 -37 q 421 -95 421 -37 q 417 -122 421 -112 q 394 -169 410 -142 q 361 -220 378 -196 q 328 -263 344 -244 q 302 -287 311 -281 l 258 -265 z "},"Ř":{"ha":764,"x_min":110,"x_max":678,"o":"m 110 903 l 382 903 q 499 883 447 903 q 588 827 551 863 q 645 739 625 791 q 666 624 666 688 q 616 464 666 522 q 478 381 566 405 q 502 340 490 361 q 527 299 514 319 q 536 282 531 289 q 546 265 541 274 q 594 185 571 225 q 637 109 618 145 q 667 46 655 74 q 678 0 678 17 l 563 0 q 551 46 563 17 q 521 109 539 74 q 480 183 503 144 q 432 263 456 222 l 399 315 q 385 339 392 328 q 372 363 377 351 q 342 362 356 362 q 313 361 328 361 l 208 361 l 208 0 l 110 0 l 110 903 m 208 459 l 370 459 q 572 627 572 459 q 523 759 572 713 q 382 804 473 804 l 208 804 l 208 459 m 334 999 l 413 999 l 576 1216 l 493 1216 l 375 1094 l 271 1216 l 188 1216 l 334 999 z "},"ř":{"ha":764,"x_min":90,"x_max":712,"o":"m 90 81 l 295 81 l 295 579 l 160 587 l 160 660 l 403 660 q 396 645 399 655 q 391 622 394 634 q 386 599 388 610 q 384 582 384 588 q 428 635 402 616 q 483 663 455 654 q 539 675 512 672 q 586 678 567 678 q 605 678 595 678 q 630 674 616 677 q 664 664 645 670 q 712 647 684 657 l 650 551 q 551 578 602 578 q 447 545 492 578 q 390 459 403 513 l 390 81 l 586 81 l 586 76 q 586 37 586 57 q 593 0 587 17 l 90 0 l 90 81 m 334 756 l 413 756 l 576 973 l 493 973 l 375 851 l 271 973 l 188 973 l 334 756 z "},"Ś":{"ha":764,"x_min":95,"x_max":668,"o":"m 370 -17 q 203 14 278 -17 q 95 102 128 45 l 163 161 q 365 71 226 71 q 519 114 463 71 q 574 242 574 157 q 528 354 574 316 q 392 409 483 392 q 274 442 328 419 q 182 499 220 465 q 122 578 144 534 q 101 677 101 623 q 121 775 101 730 q 178 852 141 819 q 265 902 214 884 q 377 920 316 920 q 528 889 459 920 q 634 802 597 858 l 569 741 q 527 783 547 766 q 484 810 506 800 q 440 825 463 821 q 388 830 417 830 q 244 790 294 830 q 193 684 193 750 q 249 571 193 617 q 424 502 304 525 q 606 423 544 479 q 668 253 668 367 q 646 133 668 184 q 584 49 624 82 q 490 -1 545 15 q 370 -17 435 -17 m 541 1170 l 487 1257 l 222 1069 l 257 1009 l 541 1170 z "},"ś":{"ha":764,"x_min":116,"x_max":655,"o":"m 414 378 q 525 350 479 367 q 600 311 571 333 q 642 260 628 289 q 655 194 655 231 q 637 109 655 148 q 584 42 618 71 q 501 -2 550 14 q 392 -17 453 -17 q 236 17 303 -17 q 116 122 168 52 l 182 189 q 282 101 230 132 q 394 71 334 71 q 458 80 427 71 q 512 107 488 90 q 549 146 535 124 q 563 193 563 169 q 556 222 563 209 q 532 245 549 235 q 487 263 515 255 q 418 280 459 272 q 293 314 345 295 q 208 358 241 333 q 159 413 175 382 q 144 483 144 444 q 162 563 144 527 q 214 624 181 598 q 295 664 248 650 q 402 678 343 678 q 547 650 484 678 q 647 571 610 623 l 584 508 q 504 570 544 552 q 410 588 464 588 q 340 580 372 588 q 285 559 308 573 q 249 527 262 545 q 236 485 236 508 q 280 420 236 444 q 414 378 324 396 m 557 927 l 503 1014 l 238 826 l 273 766 l 557 927 z "},"Ŝ":{"ha":764,"x_min":95,"x_max":668,"o":"m 370 -17 q 203 14 278 -17 q 95 102 128 45 l 163 161 q 365 71 226 71 q 519 114 463 71 q 574 242 574 157 q 528 354 574 316 q 392 409 483 392 q 274 442 328 419 q 182 499 220 465 q 122 578 144 534 q 101 677 101 623 q 121 775 101 730 q 178 852 141 819 q 265 902 214 884 q 377 920 316 920 q 528 889 459 920 q 634 802 597 858 l 569 741 q 527 783 547 766 q 484 810 506 800 q 440 825 463 821 q 388 830 417 830 q 244 790 294 830 q 193 684 193 750 q 249 571 193 617 q 424 502 304 525 q 606 423 544 479 q 668 253 668 367 q 646 133 668 184 q 584 49 624 82 q 490 -1 545 15 q 370 -17 435 -17 m 344 1225 l 422 1225 l 586 1007 l 502 1007 l 384 1130 l 280 1007 l 197 1007 l 344 1225 z "},"ŝ":{"ha":764,"x_min":116,"x_max":655,"o":"m 414 378 q 525 350 479 367 q 600 311 571 333 q 642 260 628 289 q 655 194 655 231 q 637 109 655 148 q 584 42 618 71 q 501 -2 550 14 q 392 -17 453 -17 q 236 17 303 -17 q 116 122 168 52 l 182 189 q 282 101 230 132 q 394 71 334 71 q 458 80 427 71 q 512 107 488 90 q 549 146 535 124 q 563 193 563 169 q 556 222 563 209 q 532 245 549 235 q 487 263 515 255 q 418 280 459 272 q 293 314 345 295 q 208 358 241 333 q 159 413 175 382 q 144 483 144 444 q 162 563 144 527 q 214 624 181 598 q 295 664 248 650 q 402 678 343 678 q 547 650 484 678 q 647 571 610 623 l 584 508 q 504 570 544 552 q 410 588 464 588 q 340 580 372 588 q 285 559 308 573 q 249 527 262 545 q 236 485 236 508 q 280 420 236 444 q 414 378 324 396 m 360 981 l 439 981 l 602 764 l 519 764 l 400 887 l 296 764 l 213 764 l 360 981 z "},"Ş":{"ha":764,"x_min":95,"x_max":668,"o":"m 370 -17 q 203 14 278 -17 q 95 102 128 45 l 163 161 q 365 71 226 71 q 519 114 463 71 q 574 242 574 157 q 528 354 574 316 q 392 409 483 392 q 274 442 328 419 q 182 499 220 465 q 122 578 144 534 q 101 677 101 623 q 121 775 101 730 q 178 852 141 819 q 265 902 214 884 q 377 920 316 920 q 528 889 459 920 q 634 802 597 858 l 569 741 q 527 783 547 766 q 484 810 506 800 q 440 825 463 821 q 388 830 417 830 q 244 790 294 830 q 193 684 193 750 q 249 571 193 617 q 424 502 304 525 q 606 423 544 479 q 668 253 668 367 q 646 133 668 184 q 584 49 624 82 q 490 -1 545 15 q 370 -17 435 -17 m 376 -296 q 286 -281 321 -296 q 221 -229 251 -266 l 270 -181 q 309 -216 286 -207 q 376 -226 332 -226 q 448 -215 427 -226 q 469 -177 469 -204 q 453 -138 469 -152 q 406 -125 436 -125 q 365 -131 384 -125 q 336 -147 345 -138 l 270 -147 l 297 0 l 366 0 l 346 -84 q 373 -73 351 -79 q 420 -68 395 -68 q 510 -98 478 -68 q 542 -179 542 -127 q 499 -267 542 -237 q 376 -296 457 -296 z "},"ş":{"ha":764,"x_min":116,"x_max":655,"o":"m 414 378 q 525 350 479 367 q 600 311 571 333 q 642 260 628 289 q 655 194 655 231 q 637 109 655 148 q 584 42 618 71 q 501 -2 550 14 q 392 -17 453 -17 q 236 17 303 -17 q 116 122 168 52 l 182 189 q 282 101 230 132 q 394 71 334 71 q 458 80 427 71 q 512 107 488 90 q 549 146 535 124 q 563 193 563 169 q 556 222 563 209 q 532 245 549 235 q 487 263 515 255 q 418 280 459 272 q 293 314 345 295 q 208 358 241 333 q 159 413 175 382 q 144 483 144 444 q 162 563 144 527 q 214 624 181 598 q 295 664 248 650 q 402 678 343 678 q 547 650 484 678 q 647 571 610 623 l 584 508 q 504 570 544 552 q 410 588 464 588 q 340 580 372 588 q 285 559 308 573 q 249 527 262 545 q 236 485 236 508 q 280 420 236 444 q 414 378 324 396 m 376 -296 q 286 -281 321 -296 q 221 -229 251 -266 l 270 -181 q 309 -216 286 -207 q 376 -226 332 -226 q 448 -215 427 -226 q 469 -177 469 -204 q 453 -138 469 -152 q 406 -125 436 -125 q 365 -131 384 -125 q 336 -147 345 -138 l 270 -147 l 297 0 l 366 0 l 346 -84 q 373 -73 351 -79 q 420 -68 395 -68 q 510 -98 478 -68 q 542 -179 542 -127 q 499 -267 542 -237 q 376 -296 457 -296 z "},"Š":{"ha":764,"x_min":95,"x_max":668,"o":"m 370 -17 q 203 14 278 -17 q 95 102 128 45 l 163 161 q 365 71 226 71 q 519 114 463 71 q 574 242 574 157 q 528 354 574 316 q 392 409 483 392 q 274 442 328 419 q 182 499 220 465 q 122 578 144 534 q 101 677 101 623 q 121 775 101 730 q 178 852 141 819 q 265 902 214 884 q 377 920 316 920 q 528 889 459 920 q 634 802 597 858 l 569 741 q 527 783 547 766 q 484 810 506 800 q 440 825 463 821 q 388 830 417 830 q 244 790 294 830 q 193 684 193 750 q 249 571 193 617 q 424 502 304 525 q 606 423 544 479 q 668 253 668 367 q 646 133 668 184 q 584 49 624 82 q 490 -1 545 15 q 370 -17 435 -17 m 334 999 l 413 999 l 576 1216 l 493 1216 l 375 1094 l 271 1216 l 188 1216 l 334 999 z "},"š":{"ha":764,"x_min":116,"x_max":655,"o":"m 414 378 q 525 350 479 367 q 600 311 571 333 q 642 260 628 289 q 655 194 655 231 q 637 109 655 148 q 584 42 618 71 q 501 -2 550 14 q 392 -17 453 -17 q 236 17 303 -17 q 116 122 168 52 l 182 189 q 282 101 230 132 q 394 71 334 71 q 458 80 427 71 q 512 107 488 90 q 549 146 535 124 q 563 193 563 169 q 556 222 563 209 q 532 245 549 235 q 487 263 515 255 q 418 280 459 272 q 293 314 345 295 q 208 358 241 333 q 159 413 175 382 q 144 483 144 444 q 162 563 144 527 q 214 624 181 598 q 295 664 248 650 q 402 678 343 678 q 547 650 484 678 q 647 571 610 623 l 584 508 q 504 570 544 552 q 410 588 464 588 q 340 580 372 588 q 285 559 308 573 q 249 527 262 545 q 236 485 236 508 q 280 420 236 444 q 414 378 324 396 m 334 756 l 413 756 l 576 973 l 493 973 l 375 851 l 271 973 l 188 973 l 334 756 z "},"Ť":{"ha":764,"x_min":88,"x_max":676,"o":"m 676 903 l 676 822 l 427 822 l 427 0 l 329 0 l 329 822 l 88 822 l 88 903 l 676 903 m 334 999 l 413 999 l 576 1216 l 493 1216 l 375 1094 l 271 1216 l 188 1216 l 334 999 z "},"Ũ":{"ha":764,"x_min":94,"x_max":670,"o":"m 94 903 l 192 903 l 192 248 q 207 171 192 204 q 247 117 221 139 q 308 86 273 96 q 384 75 343 75 q 459 86 425 75 q 519 117 494 96 q 558 171 544 139 q 572 248 572 204 l 572 903 l 670 903 l 670 242 q 652 136 670 184 q 598 54 634 88 q 508 1 561 20 q 383 -17 455 -17 q 258 1 313 -17 q 167 54 204 20 q 112 136 131 88 q 94 242 94 184 l 94 903 m 294 1164 q 362 1149 338 1164 q 405 1117 387 1133 q 442 1090 428 1097 q 471 1083 455 1083 q 573 1159 532 1083 l 635 1115 q 609 1073 625 1094 q 573 1037 594 1053 q 525 1010 552 1021 q 466 1000 499 1000 q 401 1015 425 1000 q 359 1047 377 1030 q 328 1071 344 1060 q 288 1081 313 1081 q 237 1065 262 1081 q 189 1005 212 1049 l 127 1050 q 200 1137 157 1110 q 294 1164 242 1164 z "},"ũ":{"ha":764,"x_min":100,"x_max":646,"o":"m 639 660 l 639 76 q 639 37 639 57 q 646 0 640 17 l 541 0 l 541 660 l 639 660 m 544 95 q 509 49 530 69 q 461 13 487 28 q 406 -9 435 -1 q 347 -17 377 -17 q 247 9 293 -17 q 168 79 201 35 q 117 181 135 123 q 100 306 100 240 l 100 661 l 205 661 l 205 281 q 218 201 205 240 q 256 134 231 163 q 314 87 280 104 q 389 69 348 69 q 436 78 416 69 q 475 101 457 86 q 509 140 493 117 q 544 193 525 163 l 544 95 m 294 956 q 362 940 338 956 q 405 909 387 925 q 442 882 428 889 q 471 875 455 875 q 573 950 532 875 l 635 906 q 609 865 625 885 q 573 829 594 845 q 525 802 552 813 q 466 792 499 792 q 401 807 425 792 q 359 839 377 822 q 328 862 344 852 q 288 873 313 873 q 237 856 262 873 q 189 796 212 840 l 127 841 q 200 929 157 902 q 294 956 242 956 z "},"Ū":{"ha":764,"x_min":94,"x_max":670,"o":"m 94 903 l 192 903 l 192 248 q 207 171 192 204 q 247 117 221 139 q 308 86 273 96 q 384 75 343 75 q 459 86 425 75 q 519 117 494 96 q 558 171 544 139 q 572 248 572 204 l 572 903 l 670 903 l 670 242 q 652 136 670 184 q 598 54 634 88 q 508 1 561 20 q 383 -17 455 -17 q 258 1 313 -17 q 167 54 204 20 q 112 136 131 88 q 94 242 94 184 l 94 903 m 550 1007 l 213 1007 l 213 1076 l 550 1076 l 550 1007 z "},"ū":{"ha":764,"x_min":100,"x_max":646,"o":"m 639 660 l 639 76 q 639 37 639 57 q 646 0 640 17 l 541 0 l 541 660 l 639 660 m 544 95 q 509 49 530 69 q 461 13 487 28 q 406 -9 435 -1 q 347 -17 377 -17 q 247 9 293 -17 q 168 79 201 35 q 117 181 135 123 q 100 306 100 240 l 100 661 l 205 661 l 205 281 q 218 201 205 240 q 256 134 231 163 q 314 87 280 104 q 389 69 348 69 q 436 78 416 69 q 475 101 457 86 q 509 140 493 117 q 544 193 525 163 l 544 95 m 550 799 l 213 799 l 213 868 l 550 868 l 550 799 z "},"Ŭ":{"ha":764,"x_min":94,"x_max":670,"o":"m 94 903 l 192 903 l 192 248 q 207 171 192 204 q 247 117 221 139 q 308 86 273 96 q 384 75 343 75 q 459 86 425 75 q 519 117 494 96 q 558 171 544 139 q 572 248 572 204 l 572 903 l 670 903 l 670 242 q 652 136 670 184 q 598 54 634 88 q 508 1 561 20 q 383 -17 455 -17 q 258 1 313 -17 q 167 54 204 20 q 112 136 131 88 q 94 242 94 184 l 94 903 m 271 1188 q 302 1108 271 1138 q 385 1078 333 1078 q 465 1106 436 1078 q 493 1188 493 1135 l 576 1188 q 562 1116 576 1149 q 521 1059 547 1083 q 461 1021 495 1035 q 385 1007 426 1007 q 308 1021 344 1007 q 245 1060 272 1036 q 203 1117 219 1084 q 188 1188 188 1150 l 271 1188 z "},"ŭ":{"ha":764,"x_min":100,"x_max":646,"o":"m 639 660 l 639 76 q 639 37 639 57 q 646 0 640 17 l 541 0 l 541 660 l 639 660 m 544 95 q 509 49 530 69 q 461 13 487 28 q 406 -9 435 -1 q 347 -17 377 -17 q 247 9 293 -17 q 168 79 201 35 q 117 181 135 123 q 100 306 100 240 l 100 661 l 205 661 l 205 281 q 218 201 205 240 q 256 134 231 163 q 314 87 280 104 q 389 69 348 69 q 436 78 416 69 q 475 101 457 86 q 509 140 493 117 q 544 193 525 163 l 544 95 m 271 979 q 302 899 271 929 q 385 869 333 869 q 465 898 436 869 q 493 979 493 927 l 576 979 q 562 908 576 941 q 521 851 547 875 q 461 813 495 826 q 385 799 426 799 q 308 813 344 799 q 245 852 272 828 q 203 909 219 876 q 188 979 188 942 l 271 979 z "},"Ů":{"ha":764,"x_min":94,"x_max":670,"o":"m 94 903 l 192 903 l 192 248 q 207 171 192 204 q 247 117 221 139 q 308 86 273 96 q 384 75 343 75 q 459 86 425 75 q 519 117 494 96 q 558 171 544 139 q 572 248 572 204 l 572 903 l 670 903 l 670 242 q 652 136 670 184 q 598 54 634 88 q 508 1 561 20 q 383 -17 455 -17 q 258 1 313 -17 q 167 54 204 20 q 112 136 131 88 q 94 242 94 184 l 94 903 m 382 892 q 285 928 323 892 q 248 1023 248 964 q 285 1118 248 1082 q 382 1154 323 1154 q 479 1118 441 1154 q 516 1023 516 1082 q 478 928 516 964 q 382 892 440 892 m 382 944 q 433 967 414 944 q 451 1023 451 990 q 433 1079 451 1057 q 382 1102 414 1102 q 332 1079 351 1102 q 313 1023 313 1057 q 332 967 313 990 q 382 944 352 944 z "},"ů":{"ha":764,"x_min":100,"x_max":646,"o":"m 639 660 l 639 76 q 639 37 639 57 q 646 0 640 17 l 541 0 l 541 660 l 639 660 m 544 95 q 509 49 530 69 q 461 13 487 28 q 406 -9 435 -1 q 347 -17 377 -17 q 247 9 293 -17 q 168 79 201 35 q 117 181 135 123 q 100 306 100 240 l 100 661 l 205 661 l 205 281 q 218 201 205 240 q 256 134 231 163 q 314 87 280 104 q 389 69 348 69 q 436 78 416 69 q 475 101 457 86 q 509 140 493 117 q 544 193 525 163 l 544 95 m 382 684 q 285 720 323 684 q 248 815 248 756 q 285 910 248 874 q 382 946 323 946 q 479 910 441 946 q 516 815 516 874 q 478 720 516 756 q 382 684 440 684 m 382 736 q 433 759 414 736 q 451 815 451 781 q 433 871 451 848 q 382 894 414 894 q 332 871 351 894 q 313 815 313 848 q 332 759 313 781 q 382 736 352 736 z "},"Ű":{"ha":764,"x_min":94,"x_max":670,"o":"m 94 903 l 192 903 l 192 248 q 207 171 192 204 q 247 117 221 139 q 308 86 273 96 q 384 75 343 75 q 459 86 425 75 q 519 117 494 96 q 558 171 544 139 q 572 248 572 204 l 572 903 l 670 903 l 670 242 q 652 136 670 184 q 598 54 634 88 q 508 1 561 20 q 383 -17 455 -17 q 258 1 313 -17 q 167 54 204 20 q 112 136 131 88 q 94 242 94 184 l 94 903 m 545 1189 l 626 1167 l 491 1007 l 425 1007 l 545 1189 m 251 1007 l 372 1189 l 453 1167 l 317 1007 l 251 1007 z "},"ű":{"ha":764,"x_min":100,"x_max":646,"o":"m 639 660 l 639 76 q 639 37 639 57 q 646 0 640 17 l 541 0 l 541 660 l 639 660 m 544 95 q 509 49 530 69 q 461 13 487 28 q 406 -9 435 -1 q 347 -17 377 -17 q 247 9 293 -17 q 168 79 201 35 q 117 181 135 123 q 100 306 100 240 l 100 661 l 205 661 l 205 281 q 218 201 205 240 q 256 134 231 163 q 314 87 280 104 q 389 69 348 69 q 436 78 416 69 q 475 101 457 86 q 509 140 493 117 q 544 193 525 163 l 544 95 m 545 980 l 626 958 l 491 799 l 425 799 l 545 980 m 251 799 l 372 980 l 453 958 l 317 799 l 251 799 z "},"Ŵ":{"ha":764,"x_min":52,"x_max":711,"o":"m 150 903 q 152 793 150 855 q 157 663 154 731 q 166 523 161 595 q 178 385 171 451 q 194 260 185 318 q 213 161 203 203 q 259 288 240 233 q 293 386 279 343 q 316 465 307 429 q 332 532 325 500 l 432 532 q 446 465 438 500 q 468 387 455 431 q 500 289 481 344 q 544 161 519 234 q 565 260 556 203 q 583 385 575 318 q 595 523 590 451 q 605 663 601 595 q 611 793 609 731 q 612 903 612 855 l 711 903 q 707 768 711 843 q 696 611 703 693 q 678 444 689 529 q 656 278 668 359 q 629 127 644 198 q 600 0 615 56 l 506 0 q 470 98 488 46 q 434 201 451 149 q 403 305 417 253 q 380 403 389 356 q 355 305 370 356 q 322 201 340 253 q 285 98 304 149 q 248 0 266 46 l 154 0 q 127 127 140 56 q 104 278 115 198 q 83 444 93 359 q 67 611 73 529 q 56 768 60 693 q 52 903 52 843 l 150 903 m 344 1225 l 422 1225 l 586 1007 l 502 1007 l 384 1130 l 280 1007 l 197 1007 l 344 1225 z "},"ŵ":{"ha":764,"x_min":64,"x_max":699,"o":"m 162 678 q 181 411 162 536 q 233 161 200 286 q 292 329 266 251 q 334 498 318 407 l 434 498 q 472 329 449 407 q 527 161 494 251 q 581 411 561 286 q 601 678 601 536 l 699 678 q 689 502 699 588 q 663 332 679 416 q 624 165 646 248 q 580 0 603 82 l 486 0 q 453 89 469 46 q 425 172 438 131 q 401 256 412 214 q 381 345 390 299 q 365 277 374 310 q 343 205 355 244 q 311 117 330 167 q 265 0 292 68 l 171 0 q 131 165 150 82 q 97 332 112 248 q 73 502 82 416 q 64 678 64 588 l 162 678 m 344 981 l 422 981 l 586 764 l 502 764 l 384 887 l 280 764 l 197 764 l 344 981 z "},"Ŷ":{"ha":764,"x_min":34,"x_max":729,"o":"m 138 903 l 374 490 l 625 903 l 729 903 l 421 375 l 421 0 l 323 0 l 323 375 l 34 903 l 138 903 m 344 1225 l 422 1225 l 586 1007 l 502 1007 l 384 1130 l 280 1007 l 197 1007 l 344 1225 z "},"ŷ":{"ha":764,"x_min":98,"x_max":660,"o":"m 196 660 q 221 552 203 613 q 264 422 240 491 q 319 284 289 354 q 380 147 350 213 q 436 298 409 222 q 486 442 463 374 q 526 565 509 509 q 550 660 543 622 l 660 660 q 625 543 648 613 q 571 389 602 472 q 505 214 541 306 q 435 35 470 123 l 434 35 q 408 -31 421 1 q 382 -94 395 -64 q 303 -209 350 -171 q 188 -247 257 -247 q 164 -245 177 -247 q 138 -242 152 -244 l 154 -166 q 168 -168 161 -168 q 181 -168 175 -168 q 250 -141 222 -168 q 297 -65 278 -113 q 317 -17 307 -42 q 337 35 326 8 q 262 186 300 101 q 190 357 223 271 q 132 523 156 443 q 98 660 108 603 l 196 660 m 344 981 l 422 981 l 586 764 l 502 764 l 384 887 l 280 764 l 197 764 l 344 981 z "},"Ÿ":{"ha":764,"x_min":34,"x_max":729,"o":"m 138 903 l 374 490 l 625 903 l 729 903 l 421 375 l 421 0 l 323 0 l 323 375 l 34 903 l 138 903 m 425 1080 q 444 1133 425 1115 q 498 1152 463 1152 q 569 1080 569 1152 q 498 1007 569 1007 q 425 1080 425 1007 m 193 1080 q 212 1133 193 1115 q 266 1152 231 1152 q 338 1080 338 1152 q 266 1007 338 1007 q 193 1080 193 1007 z "},"Ź":{"ha":764,"x_min":73,"x_max":691,"o":"m 73 93 l 273 398 l 139 398 l 139 487 l 331 487 l 543 810 l 108 810 l 108 903 l 668 903 l 668 810 l 457 487 l 625 487 l 625 398 l 398 398 l 199 93 l 691 93 l 691 0 l 73 0 l 73 93 m 541 1170 l 487 1257 l 222 1069 l 257 1009 l 541 1170 z "},"ź":{"ha":764,"x_min":131,"x_max":633,"o":"m 520 579 l 146 579 l 146 660 l 622 660 l 622 571 l 234 81 l 626 81 l 626 76 q 627 37 626 57 q 633 0 627 17 l 131 0 l 131 81 l 520 579 m 541 927 l 487 1014 l 222 826 l 257 766 l 541 927 z "},"Ż":{"ha":764,"x_min":73,"x_max":691,"o":"m 73 93 l 273 398 l 139 398 l 139 487 l 331 487 l 543 810 l 108 810 l 108 903 l 668 903 l 668 810 l 457 487 l 625 487 l 625 398 l 398 398 l 199 93 l 691 93 l 691 0 l 73 0 l 73 93 m 309 1080 q 328 1133 309 1115 q 382 1152 347 1152 q 454 1080 454 1152 q 382 1007 454 1007 q 309 1080 309 1007 z "},"ż":{"ha":764,"x_min":131,"x_max":633,"o":"m 520 579 l 146 579 l 146 660 l 622 660 l 622 571 l 234 81 l 626 81 l 626 76 q 627 37 626 57 q 633 0 627 17 l 131 0 l 131 81 l 520 579 m 309 837 q 328 890 309 872 q 382 909 347 909 q 454 837 454 909 q 382 764 454 764 q 309 837 309 764 z "},"Ž":{"ha":764,"x_min":73,"x_max":691,"o":"m 73 93 l 273 398 l 139 398 l 139 487 l 331 487 l 543 810 l 108 810 l 108 903 l 668 903 l 668 810 l 457 487 l 625 487 l 625 398 l 398 398 l 199 93 l 691 93 l 691 0 l 73 0 l 73 93 m 334 999 l 413 999 l 576 1216 l 493 1216 l 375 1094 l 271 1216 l 188 1216 l 334 999 z "},"ž":{"ha":764,"x_min":131,"x_max":633,"o":"m 520 579 l 146 579 l 146 660 l 622 660 l 622 571 l 234 81 l 626 81 l 626 76 q 627 37 626 57 q 633 0 627 17 l 131 0 l 131 81 l 520 579 m 334 756 l 413 756 l 576 973 l 493 973 l 375 851 l 271 973 l 188 973 l 334 756 z "},"ſ":{"ha":764,"x_min":203,"x_max":656,"o":"m 203 -231 l 203 678 q 222 781 203 736 q 274 858 242 826 q 348 905 307 889 q 434 921 390 921 q 497 913 465 921 q 558 885 529 904 q 612 837 587 867 q 656 767 638 808 l 568 728 q 509 802 546 779 q 432 824 471 824 q 383 815 406 824 q 341 787 359 806 q 312 741 323 769 q 301 676 301 713 l 301 -238 l 203 -231 z "},"Ŋ":{"ha":764,"x_min":102,"x_max":662,"o":"m 200 719 l 200 0 l 102 0 l 102 903 l 207 903 l 564 213 l 564 903 l 662 903 l 662 -81 q 647 -148 662 -117 q 607 -201 632 -178 q 550 -236 582 -223 q 481 -249 517 -249 q 411 -231 443 -249 q 345 -172 380 -213 l 395 -110 q 436 -148 413 -135 q 486 -160 459 -160 q 543 -136 523 -160 q 564 -57 564 -112 l 564 0 l 557 0 l 200 719 z "},"ď":{"ha":764,"x_min":89,"x_max":685,"o":"m 377 678 q 495 655 447 678 q 580 579 543 631 l 580 910 l 678 903 l 678 76 q 679 37 678 57 q 685 0 679 17 l 580 0 l 580 50 q 495 1 543 19 q 391 -16 447 -16 q 268 10 324 -16 q 172 84 212 36 q 111 199 133 132 q 89 348 89 266 q 165 592 89 506 q 377 678 241 678 m 394 78 q 512 102 466 78 q 580 176 557 126 l 580 464 q 496 558 547 524 q 382 591 444 591 q 302 574 338 591 q 241 525 266 557 q 201 448 215 493 q 188 347 188 403 q 203 238 188 288 q 245 153 218 189 q 311 98 273 118 q 394 78 348 78 m 300 814 l 378 814 l 542 1031 l 458 1031 l 340 909 l 236 1031 l 153 1031 l 300 814 z "},"ł":{"ha":764,"x_min":126,"x_max":635,"o":"m 201 81 l 126 116 l 333 506 l 333 822 l 198 830 l 198 903 l 432 903 l 432 691 l 546 907 l 618 863 l 432 514 l 432 81 l 628 81 l 628 76 q 629 37 628 57 q 635 0 630 17 l 133 0 l 133 81 l 201 81 m 333 81 l 333 329 l 201 81 l 333 81 z "},"Ł":{"ha":764,"x_min":118,"x_max":642,"o":"m 642 0 l 124 0 l 124 903 l 222 903 l 222 81 l 642 81 l 642 0 m 193 80 l 118 115 l 538 906 l 610 862 l 193 80 z "},"ŀ":{"ha":764,"x_min":93,"x_max":606,"o":"m 93 81 l 293 81 l 293 822 l 157 830 l 157 903 l 391 903 l 391 81 l 588 81 l 588 76 q 589 37 588 57 q 595 0 589 17 l 93 0 l 93 81 m 462 451 q 481 505 462 486 q 535 523 500 523 q 606 451 606 523 q 535 378 606 378 q 462 451 462 378 z "},"ŉ":{"ha":764,"x_min":64,"x_max":663,"o":"m 118 660 l 116 660 l 242 660 q 225 625 234 648 q 216 579 216 602 l 216 0 l 118 0 l 118 660 m 213 580 q 247 620 225 602 q 296 651 269 638 q 355 671 324 664 q 418 678 387 678 q 527 649 481 678 q 601 573 572 620 q 643 465 630 525 q 656 344 656 405 l 656 76 q 657 37 656 57 q 663 0 657 17 l 551 0 l 551 368 q 539 451 551 412 q 503 518 527 490 q 446 563 479 546 q 368 580 412 580 q 271 549 307 580 q 213 475 235 519 l 213 580 m 64 743 q 73 761 66 748 q 89 793 80 774 q 107 832 97 811 q 124 873 117 853 q 111 913 111 888 q 169 971 111 971 q 227 913 227 971 q 222 887 227 896 q 200 839 215 866 q 167 788 184 813 q 133 745 149 764 q 108 721 117 727 l 64 743 z "},"Ŧ":{"ha":764,"x_min":88,"x_max":676,"o":"m 676 903 l 676 822 l 427 822 l 427 0 l 329 0 l 329 822 l 88 822 l 88 903 l 676 903 m 551 589 l 214 589 l 214 659 l 551 659 l 551 589 z "},"ŧ":{"ha":764,"x_min":116,"x_max":676,"o":"m 222 660 l 222 910 l 321 903 l 321 660 l 602 660 l 602 571 l 321 571 l 321 228 q 332 163 321 191 q 361 117 343 135 q 402 89 378 98 q 451 80 426 80 q 528 102 491 80 q 588 176 566 125 l 676 137 q 578 19 639 56 q 454 -17 516 -17 q 368 -1 410 -17 q 294 46 326 15 q 242 123 262 78 q 222 226 222 168 l 222 571 l 116 571 l 116 660 l 222 660 m 492 414 l 155 414 l 155 484 l 492 484 l 492 414 z "}}}
